<?xml version="1.0" encoding="UTF-8"?>
<svg version="1.1" xmlns="http://www.w3.org/2000/svg" width="512" height="512">
<path d="M0 0 C1.27985023 -0.01058945 1.27985023 -0.01058945 2.58555603 -0.02139282 C76.27182961 -0.49236526 139.52556028 24.22214215 192.4050293 75.76025391 C198.28602197 81.56685132 203.5865609 87.68718545 208.6796875 94.203125 C209.44539063 95.14027344 210.21109375 96.07742187 211 97.04296875 C222.53209001 111.4488111 231.93861782 127.47703995 239.6796875 144.203125 C239.97004883 144.81333496 240.26041016 145.42354492 240.55957031 146.05224609 C249.61515206 165.13544923 255.77194544 185.47543115 259.6796875 206.203125 C259.84339844 207.02844727 260.00710938 207.85376953 260.17578125 208.70410156 C270.62614117 263.43894122 258.96642264 321.31370093 233.6796875 370.203125 C233.07423096 371.37875 233.07423096 371.37875 232.45654297 372.578125 C217.33699651 401.56983892 194.41724413 428.08559117 168.6796875 448.203125 C167.74253906 448.96882813 166.80539062 449.73453125 165.83984375 450.5234375 C122.53878705 485.18657426 67.16032398 502.74238183 12.0546875 502.515625 C11.13215179 502.51380219 10.20961609 502.51197937 9.25912476 502.51010132 C-4.8063092 502.46338646 -18.47743107 501.87102579 -32.3203125 499.203125 C-33.22023926 499.04215332 -34.12016602 498.88118164 -35.04736328 498.71533203 C-75.504959 491.3920218 -114.78027076 473.70243444 -146.3203125 447.203125 C-147.45414181 446.27308961 -148.58826107 445.3434076 -149.72265625 444.4140625 C-162.79015018 433.58281577 -174.95636158 421.66049853 -185.3203125 408.203125 C-186.08085937 407.27113281 -186.84140625 406.33914063 -187.625 405.37890625 C-219.18559889 366.00378207 -239.2502389 313.28224057 -239.5234375 262.62890625 C-239.53049713 261.75069717 -239.53755676 260.8724881 -239.54483032 259.96766663 C-239.77452547 223.00245546 -239.77452547 223.00245546 -236.3203125 206.203125 C-236.12163574 205.2239209 -235.92295898 204.2447168 -235.71826172 203.23583984 C-227.75316709 165.17641015 -212.5788253 128.81935213 -188.3203125 98.203125 C-187.68867188 97.37941406 -187.05703125 96.55570312 -186.40625 95.70703125 C-174.49868436 80.39380383 -160.59551467 66.14285187 -145.3203125 54.203125 C-144.38316406 53.43742187 -143.44601563 52.67171875 -142.48046875 51.8828125 C-103.18081711 20.42285971 -50.5528032 0.28129413 0 0 Z " fill="#D8CECD" transform="translate(244.3203125,4.796875)"/>
<path d="M0 0 C3.19810241 0.01616069 6.39495157 -0.00000831 9.59301758 -0.01904297 C50.72943013 -0.06050675 98.14294628 12.24481758 132.0012207 36.39111328 C132.0012207 36.72111328 132.0012207 37.05111328 132.0012207 37.39111328 C89.1012207 37.39111328 46.2012207 37.39111328 2.0012207 37.39111328 C2.0012207 49.93111328 2.0012207 62.47111328 2.0012207 75.39111328 C9.97330688 75.32041626 9.97330688 75.32041626 18.10644531 75.24829102 C35.66037076 75.09920653 53.21432102 74.99930953 70.76871395 74.92480373 C81.4127069 74.87842542 92.05609948 74.81521291 102.69970703 74.7121582 C111.97833922 74.62236255 121.25653655 74.56436803 130.53559119 74.54431683 C135.44759912 74.53259819 140.35836321 74.50512352 145.26997185 74.43954277 C149.89717449 74.37826245 154.52262618 74.35964615 159.15019608 74.37314415 C160.84453551 74.37067648 162.53893597 74.35288271 164.23292351 74.31826401 C176.99461725 74.07034674 176.99461725 74.07034674 181.95788765 77.33722115 C184.23316505 79.57567919 186.12836262 81.8124209 188.0012207 84.39111328 C189.00920379 85.59197454 190.02112779 86.78956293 191.0402832 87.98095703 C191.90931464 89.09135908 192.77138602 90.20724536 193.6262207 91.32861328 C194.08569092 91.92270996 194.54516113 92.51680664 195.01855469 93.12890625 C204.61728163 105.62323513 204.61728163 105.62323513 208.0012207 112.39111328 C140.0212207 112.39111328 72.0412207 112.39111328 2.0012207 112.39111328 C2.0012207 124.93111328 2.0012207 137.47111328 2.0012207 150.39111328 C76.5812207 150.39111328 151.1612207 150.39111328 228.0012207 150.39111328 C230.92530121 156.97029442 233.44548697 163.23265268 235.6887207 170.01611328 C235.99616211 170.91845703 236.30360352 171.82080078 236.62036133 172.75048828 C237.0621875 174.07693359 237.0621875 174.07693359 237.51293945 175.43017578 C237.90678833 176.60894287 237.90678833 176.60894287 238.30859375 177.81152344 C239.14947296 180.94325755 239.54263949 184.1810448 240.0012207 187.39111328 C161.4612207 187.39111328 82.9212207 187.39111328 2.0012207 187.39111328 C2.0012207 199.93111328 2.0012207 212.47111328 2.0012207 225.39111328 C5.05585068 225.38889267 8.11048065 225.38667206 11.25767517 225.38438416 C39.23932544 225.3645046 67.22097379 225.34956586 95.20262932 225.34004795 C98.86653154 225.33879718 102.53043374 225.33750286 106.19433594 225.33618164 C106.92378363 225.33591933 107.65323133 225.33565702 108.40478349 225.33538676 C120.23138739 225.33102995 132.05798644 225.32314235 143.88458746 225.31396049 C156.01075505 225.30462424 168.13692011 225.29905773 180.26309115 225.29702479 C187.75159733 225.2956495 195.24008983 225.29129859 202.72859181 225.28319681 C208.46111695 225.27730901 214.19363325 225.27665424 219.92616081 225.2780056 C222.28491297 225.27772908 224.64366561 225.27572144 227.0024147 225.27190781 C230.20755688 225.26697722 233.4126392 225.26811263 236.61778259 225.27085876 C237.56426114 225.26794592 238.51073968 225.26503308 239.48589939 225.26203197 C245.88709949 225.27699207 245.88709949 225.27699207 247.0012207 226.39111328 C247.102136 228.79270701 247.14093853 231.16488741 247.1340332 233.56689453 C247.13546829 234.64924629 247.13546829 234.64924629 247.13693237 235.75346375 C247.13761432 237.28429247 247.13575905 238.81512406 247.1315918 240.34594727 C247.1262669 242.68333503 247.13152418 245.02052859 247.13793945 247.35791016 C247.13727822 248.8442387 247.13599612 250.33056713 247.1340332 251.81689453 C247.13605743 252.51494705 247.13808167 253.21299957 247.14016724 253.9322052 C247.12384792 257.33441714 246.83494243 260.05622638 246.0012207 263.39111328 C84.9612207 263.39111328 -76.0787793 263.39111328 -241.9987793 263.39111328 C-242.71516473 259.09280068 -243.12688341 255.59264946 -243.1315918 251.32080078 C-243.13288086 250.17611328 -243.13416992 249.03142578 -243.13549805 247.85205078 C-243.13163086 246.66869141 -243.12776367 245.48533203 -243.1237793 244.26611328 C-243.12764648 243.10595703 -243.13151367 241.94580078 -243.13549805 240.75048828 C-243.12710669 233.2486137 -242.74741694 225.85532046 -241.9987793 218.39111328 C-240.3487793 219.05111328 -238.6987793 219.71111328 -236.9987793 220.39111328 C-237.21147461 219.50359375 -237.21147461 219.50359375 -237.4284668 218.59814453 C-237.89530441 216.08786862 -238.1907415 213.94207768 -237.9987793 211.39111328 C-236.23771508 209.01774059 -234.5463526 208.00284333 -231.9987793 206.39111328 C-234.3087793 206.06111328 -236.6187793 205.73111328 -238.9987793 205.39111328 C-239.31796555 198.64032404 -238.17753883 192.79126327 -236.4987793 186.26611328 C-236.23540771 185.22729004 -235.97203613 184.1884668 -235.70068359 183.11816406 C-226.65393581 148.62727505 -226.65393581 148.62727505 -218.3112793 142.01611328 C-217.68866211 141.51337891 -217.06604492 141.01064453 -216.42456055 140.49267578 C-215.95405273 140.12916016 -215.48354492 139.76564453 -214.9987793 139.39111328 C-211.89534131 140.59800583 -208.98684037 141.89708274 -205.9987793 143.39111328 C-206.6587793 140.42111328 -207.3187793 137.45111328 -207.9987793 134.39111328 C-204.5337793 131.91611328 -204.5337793 131.91611328 -200.9987793 129.39111328 C-204.2987793 129.06111328 -207.5987793 128.73111328 -210.9987793 128.39111328 C-210.59178275 122.180346 -208.49917764 118.23733114 -205.1237793 113.07861328 C-204.67647461 112.36382812 -204.22916992 111.64904297 -203.76831055 110.91259766 C-201.65203309 107.60084193 -200.33473193 105.6150817 -196.9987793 103.39111328 C-194.6887793 105.04111328 -192.3787793 106.69111328 -189.9987793 108.39111328 C-190.1637793 109.48423828 -190.3287793 110.57736328 -190.4987793 111.70361328 C-191.06596113 115.26637201 -191.06596113 115.26637201 -190.9987793 118.39111328 C-189.0187793 116.74111328 -187.0387793 115.09111328 -184.9987793 113.39111328 C-181.89534131 114.59800583 -178.98684037 115.89708274 -175.9987793 117.39111328 C-176.9887793 112.93611328 -176.9887793 112.93611328 -177.9987793 108.39111328 C-176.0187793 107.07111328 -174.0387793 105.75111328 -171.9987793 104.39111328 C-174.9687793 104.06111328 -177.9387793 103.73111328 -180.9987793 103.39111328 C-181.9887793 100.42111328 -182.9787793 97.45111328 -183.9987793 94.39111328 C-184.9887793 97.03111328 -185.9787793 99.67111328 -186.9987793 102.39111328 C-190.2987793 102.39111328 -193.5987793 102.39111328 -196.9987793 102.39111328 C-194.15538701 97.03399738 -190.9036801 92.65792336 -186.8737793 88.14111328 C-186.01490112 87.16658203 -186.01490112 87.16658203 -185.13867188 86.17236328 C-183.4313474 84.23988405 -181.71530858 82.31541423 -179.9987793 80.39111328 C-179.06746968 79.33410351 -178.1364544 78.27683428 -177.20581055 77.21923828 C-173.03717834 72.54002942 -168.82704026 68.13603946 -164.0222168 64.10986328 C-162.61952057 62.91838386 -161.25127507 61.68560367 -159.9128418 60.42236328 C-148.27885475 49.46338573 -134.79103338 40.40185744 -120.9987793 32.39111328 C-119.98686523 31.78009766 -118.97495117 31.16908203 -117.93237305 30.53955078 C-116.96428711 29.97494141 -115.99620117 29.41033203 -114.9987793 28.82861328 C-114.1531543 28.33232422 -113.3075293 27.83603516 -112.4362793 27.32470703 C-109.46780592 26.18774367 -107.99713964 26.43956752 -104.9987793 27.39111328 C-102.1862793 28.95361328 -102.1862793 28.95361328 -99.9987793 30.39111328 C-100.1637793 31.48423828 -100.3287793 32.57736328 -100.4987793 33.70361328 C-101.06596113 37.26637201 -101.06596113 37.26637201 -100.9987793 40.39111328 C-100.2769043 39.71048828 -99.5550293 39.02986328 -98.8112793 38.32861328 C-95.9987793 36.39111328 -95.9987793 36.39111328 -93.4987793 36.45361328 C-90.76031148 37.48053871 -88.43992687 38.78693059 -85.9987793 40.39111328 C-86.9887793 35.93611328 -86.9887793 35.93611328 -87.9987793 31.39111328 C-86.0187793 29.74111328 -84.0387793 28.09111328 -81.9987793 26.39111328 C-84.9687793 26.06111328 -87.9387793 25.73111328 -90.9987793 25.39111328 C-91.3287793 23.08111328 -91.6587793 20.77111328 -91.9987793 18.39111328 C-62.92434801 4.87220502 -31.87662391 -0.19086333 0 0 Z " fill="#3F3D70" transform="translate(253.998779296875,11.60888671875)"/>
<path d="M0 0 C161.04 0 322.08 0 488 0 C488 12.44543647 485.18779122 24.74836915 483 37 C325.26 37 167.52 37 5 37 C3.57899831 30.60549239 2.34246024 24.38888026 1.375 17.9375 C1.17390625 16.6680957 1.17390625 16.6680957 0.96875 15.37304688 C0.84242187 14.53708984 0.71609375 13.70113281 0.5859375 12.83984375 C0.4729834 12.10113037 0.3600293 11.36241699 0.24365234 10.60131836 C-0.08598289 7.0820163 0 3.53470598 0 0 Z " fill="#FEFEFE" transform="translate(12,275)"/>
<path d="M0 0 C157.08 0 314.16 0 476 0 C475.34177484 5.26580131 474.87142562 9.01627925 473.2578125 13.8203125 C472.74154297 15.36525391 472.74154297 15.36525391 472.21484375 16.94140625 C471.85519531 17.99199219 471.49554688 19.04257812 471.125 20.125 C470.77308594 21.18332031 470.42117188 22.24164063 470.05859375 23.33203125 C468.31321107 28.50329517 466.4614071 33.07718581 464 38 C314.84 38 165.68 38 12 38 C0 9.2 0 9.2 0 0 Z " fill="#B22235" transform="translate(18,312)"/>
<path d="M0 0 C149.16 0 298.32 0 452 0 C447.4942768 11.26430801 447.4942768 11.26430801 445.08984375 15.8671875 C444.57486328 16.85460937 444.05988281 17.84203125 443.52929688 18.859375 C443.00400391 19.85453125 442.47871094 20.8496875 441.9375 21.875 C441.40833984 22.89335937 440.87917969 23.91171875 440.33398438 24.9609375 C437.40296753 30.5508316 437.40296753 30.5508316 436 33 C435.42560591 34.04810786 435.42560591 34.04810786 434.83960789 35.11738962 C433 37 433 37 429.98202974 37.51175267 C428.72987174 37.51728073 427.47771375 37.52280879 426.18761158 37.52850437 C425.48756011 37.5370145 424.78750865 37.54552463 424.0662435 37.55429265 C421.7025679 37.57805666 419.33980688 37.57315644 416.97602844 37.5684967 C415.27146182 37.57954277 413.5669056 37.59230686 411.86236352 37.60664839 C407.16429363 37.64093896 402.46645802 37.64996847 397.76827776 37.6548301 C392.70670805 37.66427291 387.64527465 37.69648941 382.58378601 37.72544861 C370.3535589 37.79026648 358.12335568 37.81681375 345.89299157 37.84036294 C340.13649449 37.85247179 334.3800115 37.86921026 328.62352562 37.88570976 C309.49283919 37.93930648 290.36216898 37.98469761 271.23141193 38.00208378 C269.39395214 38.00377852 269.39395214 38.00377852 267.51937194 38.0055075 C265.6774612 38.00720035 265.6774612 38.00720035 263.79834014 38.0089274 C261.3099774 38.01122635 258.82161467 38.01354029 256.33325195 38.01586914 C254.48177266 38.01759118 254.48177266 38.01759118 252.59288975 38.01934802 C232.59074024 38.03949608 212.58925826 38.11719889 192.58737693 38.21952838 C172.06167522 38.32368913 151.53630994 38.37913481 131.01034039 38.38583177 C119.4815946 38.39075096 107.95374873 38.41682851 96.42525673 38.49675179 C86.60824271 38.56459541 76.79238783 38.58811301 66.97517786 38.5535707 C61.96479817 38.53728115 56.95677087 38.54210276 51.94668961 38.60350418 C47.35905823 38.65922351 42.77553668 38.65490061 38.18789854 38.60283475 C36.52899889 38.59456355 34.86981331 38.60826995 33.21132664 38.64619649 C28.17914118 38.75403313 23.78661845 38.65879515 19 37 C15.1879574 33.05843858 13.18794523 29.04088297 11 24 C9.94351296 21.90841025 8.88196304 19.81935973 7.8125 17.734375 C6.86739269 15.74317631 5.92979126 13.74839642 5 11.75 C4.26716797 10.20505859 4.26716797 10.20505859 3.51953125 8.62890625 C0 1.16592262 0 1.16592262 0 0 Z " fill="#FEFEFE" transform="translate(30,350)"/>
<path d="M0 0 C135.96 0 271.92 0 412 0 C405.00884948 11.65191754 405.00884948 11.65191754 400.8125 16.875 C400.35053223 17.45725342 399.88856445 18.03950684 399.41259766 18.6394043 C394.27732121 25.03122141 388.79954452 31.20045548 383 37 C381.12684577 37.10573531 379.24966232 37.14030009 377.37354279 37.14818764 C376.14397999 37.15572898 374.9144172 37.16327031 373.64759493 37.17104018 C372.26542975 37.17440626 370.8832643 37.17766104 369.50109863 37.18081665 C368.04646852 37.18768976 366.59184031 37.19497802 365.13721418 37.20264852 C361.12070166 37.22245297 357.10418932 37.23579274 353.08764744 37.24799705 C349.64716135 37.25924417 346.20669523 37.2741823 342.76622349 37.28912015 C310.14990605 37.43025459 277.53313798 37.49554664 244.91657257 37.54844093 C240.66899088 37.55545016 236.42140941 37.56257709 232.17382812 37.56982422 C231.11807679 37.57161951 230.06232546 37.5734148 228.97458166 37.5752645 C211.87660674 37.6053234 194.77893933 37.67008017 177.68112522 37.74851067 C160.13535389 37.82833134 142.58974178 37.87412165 125.04379225 37.88746679 C115.18907354 37.89587783 105.33489947 37.91965814 95.48036194 37.98213577 C87.08605316 38.03532561 78.69236554 38.05809781 70.29789311 38.04102559 C66.01484138 38.03327495 61.7331252 38.04009904 57.45028687 38.08630753 C53.52622708 38.12831174 49.60443256 38.12848763 45.68030399 38.09587733 C44.26359106 38.09139105 42.84672917 38.10203377 41.43027788 38.12962742 C30.88810472 38.32266163 30.88810472 38.32266163 26.21076107 35.04607272 C23.93393149 32.80296362 21.94809657 30.53011706 20 28 C19.01206986 26.83713514 18.02288044 25.67533605 17.03125 24.515625 C16.1802145 23.4327697 15.3364093 22.34419217 14.5 21.25 C14.04713623 20.66581299 13.59427246 20.08162598 13.12768555 19.47973633 C0 2.38369572 0 2.38369572 0 0 Z " fill="#B22034" transform="translate(50,388)"/>
<path d="M0 0 C115.83 0 231.66 0 351 0 C343.87016554 8.3181402 336.10814332 15.19188194 327.625 22.0625 C327.04951416 22.53260498 326.47402832 23.00270996 325.88110352 23.48706055 C324.68359941 24.44470239 323.46595818 25.37763547 322.23074532 26.28611946 C319.95327262 27.97507335 319.95327262 27.97507335 317.87298393 30.01423454 C307.49354519 38.6729554 295.27921502 37.14022839 282.44189453 37.06689453 C279.84216356 37.08102303 277.24244904 37.09851732 274.64276123 37.11911011 C268.33487104 37.16221753 262.02770483 37.16218162 255.71971597 37.14585902 C250.58847286 37.1332173 245.45743961 37.1355709 240.32619858 37.14840317 C239.59362049 37.15020648 238.8610424 37.15200979 238.10626497 37.15386774 C236.61764156 37.15757046 235.12901821 37.16129559 233.64039491 37.16504286 C219.70591441 37.1981401 205.77183984 37.18081259 191.83738385 37.1470717 C179.11465846 37.11768847 166.3928782 37.14692808 153.67027451 37.20461203 C140.57740048 37.26352843 127.48496166 37.28530723 114.39196098 37.26624763 C112.90845171 37.26420272 111.42494237 37.26221349 109.94143295 37.26028061 C109.21168944 37.25932783 108.48194594 37.25837505 107.73008899 37.2573934 C102.611741 37.25308158 97.49380898 37.27258436 92.37555313 37.30182266 C85.47200895 37.3407125 78.57024226 37.32649695 71.66677094 37.27742386 C69.14093516 37.26744037 66.61496483 37.2743028 64.08923721 37.29972076 C48.95894698 37.43988003 39.16484455 36.6303019 28 26 C26.26230482 24.63007926 24.51446125 23.27276921 22.75 21.9375 C18.50869152 18.4888295 14.4395659 14.86838464 10.40625 11.1796875 C7.46526192 8.51561063 4.44274658 5.95510238 1.3984375 3.41015625 C0 2 0 2 0 0 Z " fill="#FEFEFE" transform="translate(81,426)"/>
<path d="M0 0 C31.06713511 -0.02258475 62.13426728 -0.0404979 93.20140862 -0.05106533 C96.86531084 -0.05231611 100.52921304 -0.05361042 104.19311523 -0.05493164 C104.92256293 -0.05519395 105.65201062 -0.05545626 106.40356279 -0.05572652 C118.23016668 -0.06008333 130.05676574 -0.06797093 141.88336676 -0.0771528 C154.00953435 -0.08648904 166.1356994 -0.09205555 178.26187044 -0.09408849 C185.75037662 -0.09546378 193.23886913 -0.09981469 200.7273711 -0.10791647 C206.45989625 -0.11380427 212.19241254 -0.11445904 217.92494011 -0.11310768 C220.28369227 -0.1133842 222.64244491 -0.11539184 225.001194 -0.11920547 C228.20633618 -0.12413606 231.4114185 -0.12300065 234.61656189 -0.12025452 C235.56304043 -0.12316736 236.50951898 -0.1260802 237.48467869 -0.12908131 C243.88587879 -0.11412121 243.88587879 -0.11412121 245 1 C245.1009153 3.40159373 245.13971783 5.77377413 245.1328125 8.17578125 C245.13376923 8.89734909 245.13472595 9.61891693 245.13571167 10.36235046 C245.13639361 11.89317919 245.13453834 13.42401078 245.13037109 14.95483398 C245.1250462 17.29222175 245.13030347 19.62941531 245.13671875 21.96679688 C245.13605751 23.45312542 245.13477541 24.93945385 245.1328125 26.42578125 C245.13483673 27.12383377 245.13686096 27.82188629 245.13894653 28.54109192 C245.12262722 31.94330386 244.83372173 34.6651131 244 38 C163.48 38 82.96 38 0 38 C0 25.46 0 12.92 0 0 Z " fill="#B22236" transform="translate(256,237)"/>
<path d="M0 0 C78.87 0 157.74 0 239 0 C242.46467839 16.16849918 242.46467839 16.16849918 243.1875 23.5625 C243.26935547 24.31595703 243.35121094 25.06941406 243.43554688 25.84570312 C243.82872785 29.60239864 244 33.21353857 244 37 C163.48 37 82.96 37 0 37 C0 24.79 0 12.58 0 0 Z " fill="#FEFEFE" transform="translate(256,200)"/>
<path d="M0 0 C74.58 0 149.16 0 226 0 C228.92408051 6.57918114 231.44426627 12.8415394 233.6875 19.625 C233.99494141 20.52734375 234.30238281 21.4296875 234.61914062 22.359375 C235.0609668 23.68582031 235.0609668 23.68582031 235.51171875 25.0390625 C235.77428467 25.82490723 236.03685059 26.61075195 236.30737305 27.42041016 C237.14825225 30.55214427 237.54141879 33.78993152 238 37 C159.46 37 80.92 37 0 37 C0 24.79 0 12.58 0 0 Z " fill="#B12034" transform="translate(256,162)"/>
<path d="M0 0 C26.72058378 -0.30096092 53.44075926 -0.53293928 80.16269684 -0.67355824 C92.57031455 -0.74058663 104.97685978 -0.83196258 117.38378906 -0.98071289 C128.19803437 -1.11030622 139.01150305 -1.19416041 149.82650328 -1.22315043 C155.55324669 -1.24009725 161.27776842 -1.2799007 167.00379944 -1.37449074 C172.39550588 -1.46283513 177.78407972 -1.48993433 183.17644119 -1.47039986 C185.1534746 -1.47397224 187.13061421 -1.49978363 189.10702133 -1.54967117 C203.64221737 -1.89852028 203.64221737 -1.89852028 207.56161308 1.25743318 C210.5850705 4.76182574 212.27570549 8.72155636 214 13 C214.97210584 14.85561556 215.95839087 16.70399484 216.96875 18.5390625 C217.81871582 20.23126717 218.66261663 21.92653374 219.5 23.625 C219.94085938 24.49511719 220.38171875 25.36523438 220.8359375 26.26171875 C221.25101563 27.09574219 221.66609375 27.92976563 222.09375 28.7890625 C222.46177734 29.52850098 222.82980469 30.26793945 223.20898438 31.02978516 C224 33 224 33 224 36 C150.08 36 76.16 36 0 36 C0 24.12 0 12.24 0 0 Z " fill="#FEFEFE" transform="translate(257,125)"/>
<path d="M0 0 C22.92251725 -0.2032785 45.84430312 -0.36901705 68.76749325 -0.46630955 C79.4114862 -0.51268786 90.05487878 -0.57590037 100.69848633 -0.67895508 C109.97711851 -0.76875073 119.25531585 -0.82674525 128.53437048 -0.84679645 C133.44637841 -0.85851509 138.35714251 -0.88598976 143.26875114 -0.95157051 C147.89595378 -1.01285083 152.52140547 -1.03146713 157.14897537 -1.01796913 C158.84331481 -1.0204368 160.53771527 -1.03823057 162.2317028 -1.07284927 C174.99339655 -1.32076654 174.99339655 -1.32076654 179.95666695 1.94610786 C182.23194435 4.18456591 184.12714192 6.42130762 186 9 C187.00798309 10.20086126 188.01990708 11.39844965 189.0390625 12.58984375 C189.90809394 13.7002458 190.77016532 14.81613208 191.625 15.9375 C192.31420532 16.82864502 192.31420532 16.82864502 193.01733398 17.73779297 C202.61606092 30.23212185 202.61606092 30.23212185 206 37 C138.02 37 70.04 37 0 37 C0 24.79 0 12.58 0 0 Z " fill="#B12034" transform="translate(256,87)"/>
<path d="M0 0 C85.8 0 171.6 0 260 0 C236.94780146 18.44175883 204.5558569 28.65974667 176 34 C175.3144101 34.1302356 174.62882019 34.26047119 173.92245483 34.39465332 C160.72303471 36.83611083 147.80010563 37.47091536 134.39233398 37.39111328 C131.20057109 37.37506572 128.01008374 37.3910456 124.81835938 37.41015625 C106.74708226 37.42943348 88.65379325 36.0213851 71.125 31.375 C70.14853516 31.12121582 69.17207031 30.86743164 68.16601562 30.60595703 C44.36241708 24.19992167 20.56660694 14.7883089 0 1 C0 0.67 0 0.34 0 0 Z " fill="#B22034" transform="translate(126,463)"/>
<path d="M0 0 C16.89033472 -0.15832188 33.78003128 -0.28713838 50.67090321 -0.3626852 C58.51451592 -0.3987031 66.35763316 -0.44776374 74.20092773 -0.52807617 C81.04119185 -0.59808426 87.88109697 -0.64306336 94.72170943 -0.65861946 C98.34035987 -0.66770599 101.95798376 -0.68889378 105.57630348 -0.7401104 C109.62659883 -0.79697075 113.67513637 -0.79791426 117.72583008 -0.79467773 C118.91122879 -0.81984467 120.0966275 -0.8450116 121.31794739 -0.87094116 C129.98858867 -0.79627105 135.18205572 1.76183625 142 7 C142.6916969 7.5056376 143.3833938 8.0112752 144.09605122 8.53223515 C145.78625012 9.77424131 147.42738868 11.06150968 149.0625 12.375 C149.94663574 13.07761963 149.94663574 13.07761963 150.84863281 13.79443359 C156.0869083 17.99445382 161.06420723 22.45006726 166 27 C168.71897625 29.41936454 171.44015017 31.83619461 174.1640625 34.25 C175.07285156 35.11625 175.07285156 35.11625 176 36 C176 36.33 176 36.66 176 37 C117.92 37 59.84 37 0 37 C0 24.79 0 12.58 0 0 Z " fill="#FEFEFE" transform="translate(256,49)"/>
<path d="M0 0 C15.74783081 -0.25129517 30.56431198 -0.12881098 46 3 C46.74040527 3.14985352 47.48081055 3.29970703 48.24365234 3.45410156 C76.1792049 9.27993519 106.61608433 19.32357593 130 36 C130 36.33 130 36.66 130 37 C87.1 37 44.2 37 0 37 C0 24.79 0 12.58 0 0 Z " fill="#B22135" transform="translate(256,12)"/>
<path d="M0 0 C0.66 0 1.32 0 2 0 C2.66 2.97 3.32 5.94 4 9 C7.63 9 11.26 9 15 9 C10.375 13.875 10.375 13.875 7 15 C7.66 18.3 8.32 21.6 9 25 C5.9168649 23.80100302 2.93720508 22.52299523 0 21 C-1.98 22.65 -3.96 24.3 -6 26 C-6.66 25.67 -7.32 25.34 -8 25 C-7.01 21.7 -6.02 18.4 -5 15 C-6.32 14.34 -7.64 13.68 -9 13 C-10.37086915 11.70529025 -11.71340837 10.37849103 -13 9 C-9.37 9 -5.74 9 -2 9 C-1.34 6.03 -0.68 3.06 0 0 Z " fill="#EDEDF1" transform="translate(190,105)"/>
<path d="M0 0 C2.46278801 2.46278801 2.99771255 4.70676982 4 8 C7.3 8.33 10.6 8.66 14 9 C14 9.66 14 10.32 14 11 C8.58823529 15 8.58823529 15 6 15 C6.34224609 15.81404297 6.34224609 15.81404297 6.69140625 16.64453125 C6.97886719 17.35996094 7.26632813 18.07539063 7.5625 18.8125 C7.85253906 19.52019531 8.14257812 20.22789062 8.44140625 20.95703125 C9 23 9 23 8 26 C5.69 24.35 3.38 22.7 1 21 C-2.11198065 22.49836105 -5.0534615 24.19933758 -8 26 C-7.84660156 25.26394531 -7.69320312 24.52789062 -7.53515625 23.76953125 C-7.04873709 20.72639649 -6.7318624 18.07493282 -7 15 C-8.99231797 12.58522717 -11.24949025 11.41298007 -14 10 C-14 9.67 -14 9.34 -14 9 C-10.37 9 -6.74 9 -3 9 C-2.01 6.03 -1.02 3.06 0 0 Z " fill="#EEEEF2" transform="translate(70,156)"/>
<path d="M0 0 C0.66 0 1.32 0 2 0 C2.66 2.97 3.32 5.94 4 9 C7.63 9 11.26 9 15 9 C10.375 13.875 10.375 13.875 7 15 C7.99 18.63 8.98 22.26 10 26 C8.046875 24.6328125 6.09375 23.265625 4.140625 21.8984375 C2.01854964 20.72587497 2.01854964 20.72587497 -0.125 21.75 C-2.14464029 23.09642686 -4.09132783 24.50032901 -6 26 C-6.66 25.67 -7.32 25.34 -8 25 C-7.67 24.0925 -7.34 23.185 -7 22.25 C-5.80394277 18.92954193 -5.80394277 18.92954193 -6 15 C-7.51534291 13.47141018 -7.51534291 13.47141018 -9.5 12.3125 C-10.67729696 11.55800215 -11.84704067 10.79118893 -13 10 C-13 9.67 -13 9.34 -13 9 C-9.37 9 -5.74 9 -2 9 C-1.34 6.03 -0.68 3.06 0 0 Z " fill="#EFEEF3" transform="translate(190,156)"/>
<path d="M0 0 C2 1 2 1 2.6328125 2.84765625 C3.08854167 4.8984375 3.54427083 6.94921875 4 9 C7.63 9 11.26 9 15 9 C10.25 13.875 10.25 13.875 8 15 C8.33 18.3 8.66 21.6 9 25 C4.22181818 23.14181818 4.22181818 23.14181818 2.09375 21.78125 C-0.01906985 20.72059311 -0.01906985 20.72059311 -2.140625 21.8984375 C-2.83671875 22.38570312 -3.5328125 22.87296875 -4.25 23.375 C-5.4875 24.24125 -6.725 25.1075 -8 26 C-6.515 20.555 -6.515 20.555 -5 15 C-6.32 14.34 -7.64 13.68 -9 13 C-10.37086915 11.70529025 -11.71340837 10.37849103 -13 9 C-9.37 9 -5.74 9 -2 9 C-1.855625 7.88625 -1.71125 6.7725 -1.5625 5.625 C-1 2 -1 2 0 0 Z " fill="#EFEFF3" transform="translate(130,156)"/>
<path d="M0 0 C2.29633824 3.44450737 2.54016485 5.93812283 3 10 C6.63 10 10.26 10 14 10 C9.25 14.875 9.25 14.875 7 16 C7.66 19.63 8.32 23.26 9 27 C7.783125 26.13375 6.56625 25.2675 5.3125 24.375 C2.04640387 22.21140211 2.04640387 22.21140211 -1.75 22.5625 C-2.4925 23.036875 -3.235 23.51125 -4 24 C-5.98 24.99 -5.98 24.99 -8 26 C-7.67 22.7 -7.34 19.4 -7 16 C-8.155 15.195625 -9.31 14.39125 -10.5 13.5625 C-11.68653894 12.73616038 -12.8588092 11.88791631 -14 11 C-14 10.67 -14 10.34 -14 10 C-10.37 10 -6.74 10 -3 10 C-2.690625 8.535625 -2.38125 7.07125 -2.0625 5.5625 C-1.125 1.125 -1.125 1.125 0 0 Z " fill="#F1F1F5" transform="translate(101,181)"/>
<path d="M0 0 C2.95183101 2.95183101 3.08663988 5.95511947 4 10 C7.63 10 11.26 10 15 10 C12.74259377 12.33524782 10.7194239 14.18705073 8 16 C8.33 19.3 8.66 22.6 9 26 C5 24 5 24 2.75 22.5625 C-0.67711178 21.86149986 -1.41569596 22.56130435 -4.3125 24.375 C-5.55360093 25.23298844 -6.78684721 26.10292921 -8 27 C-7.40049704 23.31733897 -6.75241109 19.65456815 -6 16 C-6.5053125 15.65066406 -7.010625 15.30132812 -7.53125 14.94140625 C-8.1809375 14.48636719 -8.830625 14.03132812 -9.5 13.5625 C-10.1496875 13.11003906 -10.799375 12.65757812 -11.46875 12.19140625 C-12.22671875 11.60166016 -12.22671875 11.60166016 -13 11 C-13 10.67 -13 10.34 -13 10 C-9.37 10 -5.74 10 -2 10 C-1.855625 8.906875 -1.71125 7.81375 -1.5625 6.6875 C-1 3 -1 3 0 0 Z " fill="#F2F2F5" transform="translate(40,181)"/>
<path d="M0 0 C2 1 2 1 2.6328125 2.84765625 C3.08854167 4.8984375 3.54427083 6.94921875 4 9 C7.3 9 10.6 9 14 9 C9.375 13.875 9.375 13.875 6 15 C6.99 18.3 7.98 21.6 9 25 C5 23 5 23 2 21 C-1.96125928 21.2731903 -4.84249552 23.77539457 -8 26 C-7.34 22.37 -6.68 18.74 -6 15 C-7.155 14.195625 -8.31 13.39125 -9.5 12.5625 C-10.68653894 11.73616038 -11.8588092 10.88791631 -13 10 C-13 9.67 -13 9.34 -13 9 C-9.7 9 -6.4 9 -3 9 C-2.01 6.03 -1.02 3.06 0 0 Z " fill="#F3F2F6" transform="translate(161,182)"/>
<path d="M0 0 C0.66 0 1.32 0 2 0 C2.66 2.97 3.32 5.94 4 9 C7.63 9 11.26 9 15 9 C12.74259377 11.33524782 10.7194239 13.18705073 8 15 C8.59950296 18.68266103 9.24758891 22.34543185 10 26 C9.22076172 25.42378906 9.22076172 25.42378906 8.42578125 24.8359375 C6.32521353 23.38378902 4.31130894 22.08894071 2 21 C-0.79174051 21.39980539 -0.79174051 21.39980539 -3 23 C-4.98 23.99 -4.98 23.99 -7 25 C-6.67 21.7 -6.34 18.4 -6 15 C-7.155 14.195625 -8.31 13.39125 -9.5 12.5625 C-10.68653894 11.73616038 -11.8588092 10.88791631 -13 10 C-13 9.67 -13 9.34 -13 9 C-9.37 9 -5.74 9 -2 9 C-1.34 6.03 -0.68 3.06 0 0 Z " fill="#F2F2F5" transform="translate(160,131)"/>
<path d="M0 0 C0.66 0 1.32 0 2 0 C2.66 2.97 3.32 5.94 4 9 C7.63 9 11.26 9 15 9 C12.74259377 11.33524782 10.7194239 13.18705073 8 15 C8.33 18.3 8.66 21.6 9 25 C7.948125 24.29875 6.89625 23.5975 5.8125 22.875 C2.78188284 21.09533142 2.78188284 21.09533142 -0.6875 21.625 C-1.8321875 22.305625 -1.8321875 22.305625 -3 23 C-4.98 23.99 -4.98 23.99 -7 25 C-6.67 21.7 -6.34 18.4 -6 15 C-7.155 14.195625 -8.31 13.39125 -9.5 12.5625 C-10.68653894 11.73616038 -11.8588092 10.88791631 -13 10 C-13 9.67 -13 9.34 -13 9 C-9.37 9 -5.74 9 -2 9 C-1.34 6.03 -0.68 3.06 0 0 Z " fill="#F3F3F6" transform="translate(221,182)"/>
<path d="M0 0 C2.46278801 2.46278801 2.99771255 4.70676982 4 8 C7.3 8.33 10.6 8.66 14 9 C9.25 13.875 9.25 13.875 7 15 C7.144375 15.70125 7.28875 16.4025 7.4375 17.125 C8.01478375 20.07556141 8.51695141 23.03270151 9 26 C8.54109375 25.62746094 8.0821875 25.25492188 7.609375 24.87109375 C6.99578125 24.39800781 6.3821875 23.92492187 5.75 23.4375 C5.14671875 22.96183594 4.5434375 22.48617187 3.921875 21.99609375 C2.04508619 20.79507063 2.04508619 20.79507063 -0.1015625 21.25 C-2.38900572 22.15368127 -4.05591588 23.50953551 -6 25 C-6.66 25 -7.32 25 -8 25 C-7.49287967 21.28111761 -6.88391785 18.26545761 -5 15 C-5.5775 14.7525 -6.155 14.505 -6.75 14.25 C-9.3002997 12.83316683 -11.01785701 11.12372463 -13 9 C-9.7 9 -6.4 9 -3 9 C-2.01 6.03 -1.02 3.06 0 0 Z " fill="#F2F2F5" transform="translate(221,131)"/>
<path d="M0 0 C2 1 2 1 2.6328125 2.84765625 C3.08854167 4.8984375 3.54427083 6.94921875 4 9 C7.3 9 10.6 9 14 9 C9.375 13.875 9.375 13.875 6 15 C6.99 18.3 7.98 21.6 9 25 C6.08482708 23.92598892 4.22189824 23.22189824 2 21 C-1.96017943 21.28286996 -4.84549333 23.77750666 -8 26 C-7.44894091 22.0507432 -6.61064629 18.65079826 -5 15 C-5.5775 14.7525 -6.155 14.505 -6.75 14.25 C-9.3002997 12.83316683 -11.01785701 11.12372463 -13 9 C-9.7 8.67 -6.4 8.34 -3 8 C-2.01 5.36 -1.02 2.72 0 0 Z " fill="#F2F2F5" transform="translate(100,131)"/>
<path d="M0 0 C2.29633824 3.44450737 2.54016485 5.93812283 3 10 C6.63 10 10.26 10 14 10 C11.74259377 12.33524782 9.7194239 14.18705073 7 16 C7.66 19.63 8.32 23.26 9 27 C7.948125 26.154375 6.89625 25.30875 5.8125 24.4375 C2.90170417 22.34041404 2.90170417 22.34041404 -0.625 22 C-3.26187379 23.11026265 -5.6101509 24.42952774 -8 26 C-7.34 22.37 -6.68 18.74 -6 15 C-8.475 14.01 -8.475 14.01 -11 13 C-11.66 12.01 -12.32 11.02 -13 10 C-9.7 10 -6.4 10 -3 10 C-2.690625 8.535625 -2.38125 7.07125 -2.0625 5.5625 C-1.125 1.125 -1.125 1.125 0 0 Z " fill="#F3F3F6" transform="translate(70,207)"/>
<path d="M0 0 C0.66 0.33 1.32 0.66 2 1 C2.6328125 3.06640625 2.6328125 3.06640625 3.125 5.5625 C3.29257813 6.38878906 3.46015625 7.21507813 3.6328125 8.06640625 C3.75398438 8.70449219 3.87515625 9.34257813 4 10 C6.97 10 9.94 10 13 10 C12.195625 10.78375 11.39125 11.5675 10.5625 12.375 C8.01309583 14.71982856 8.01309583 14.71982856 7 17 C7.3191623 19.22624593 7.3191623 19.22624593 7.9375 21.625 C8.4634375 23.790625 8.4634375 23.790625 9 26 C6.03 24.35 3.06 22.7 0 21 C-2.64 22.65 -5.28 24.3 -8 26 C-7.44894091 22.0507432 -6.61064629 18.65079826 -5 15 C-6.1446875 14.566875 -6.1446875 14.566875 -7.3125 14.125 C-10 13 -10 13 -13 11 C-13 10.34 -13 9.68 -13 9 C-9.7 8.67 -6.4 8.34 -3 8 C-2.01 5.36 -1.02 2.72 0 0 Z " fill="#F0F0F4" transform="translate(130,105)"/>
<path d="M0 0 C0.66 0.33 1.32 0.66 2 1 C2.6328125 3.06640625 2.6328125 3.06640625 3.125 5.5625 C3.29257813 6.38878906 3.46015625 7.21507813 3.6328125 8.06640625 C3.75398438 8.70449219 3.87515625 9.34257813 4 10 C6.97 10 9.94 10 13 10 C12.195625 10.78375 11.39125 11.5675 10.5625 12.375 C8.01309583 14.71982856 8.01309583 14.71982856 7 17 C7.3191623 19.22624593 7.3191623 19.22624593 7.9375 21.625 C8.4634375 23.790625 8.4634375 23.790625 9 26 C6.03 24.35 3.06 22.7 0 21 C-3.465 23.475 -3.465 23.475 -7 26 C-8 24 -8 24 -7.44140625 21.8359375 C-7.00634766 20.61777344 -7.00634766 20.61777344 -6.5625 19.375 C-6.27503906 18.55773437 -5.98757812 17.74046875 -5.69140625 16.8984375 C-5.34916016 15.95871094 -5.34916016 15.95871094 -5 15 C-6.1446875 14.566875 -6.1446875 14.566875 -7.3125 14.125 C-10 13 -10 13 -13 11 C-13 10.34 -13 9.68 -13 9 C-9.7 8.67 -6.4 8.34 -3 8 C-2.01 5.36 -1.02 2.72 0 0 Z " fill="#F1F0F4" transform="translate(99,79)"/>
<path d="M0 0 C0.66 0 1.32 0 2 0 C3.31626692 3.61973402 4 6.09567131 4 10 C7.3 10 10.6 10 14 10 C12.37660195 11.70884005 10.70680947 13.37446717 9 15 C8.34 15 7.68 15 7 15 C7.66 18.3 8.32 21.6 9 25 C7.68 24.34 6.36 23.68 5 23 C3.33859237 22.32033324 1.67299959 21.65061095 0 21 C-1.98 22.65 -3.96 24.3 -6 26 C-6.66 25.67 -7.32 25.34 -8 25 C-7.01 21.7 -6.02 18.4 -5 15 C-6.32 14.34 -7.64 13.68 -9 13 C-10.37086915 11.70529025 -11.71340837 10.37849103 -13 9 C-9.37 9 -5.74 9 -2 9 C-1.34 6.03 -0.68 3.06 0 0 Z " fill="#F0F0F4" transform="translate(159,79)"/>
<path d="M0 0 C2.46278801 2.46278801 2.99771255 4.70676982 4 8 C7.3 8.33 10.6 8.66 14 9 C14 9.66 14 10.32 14 11 C11.79189025 12.8588679 9.3918738 14.37694278 7 16 C7.66 19.3 8.32 22.6 9 26 C6.03 24.35 3.06 22.7 0 21 C-2.64 22.65 -5.28 24.3 -8 26 C-7.34 22.7 -6.68 19.4 -6 16 C-6.99 15.195625 -7.98 14.39125 -9 13.5625 C-9.99 12.716875 -10.98 11.87125 -12 11 C-12 10.67 -12 10.34 -12 10 C-9.03 10 -6.06 10 -3 10 C-2.86722656 9.36191406 -2.73445312 8.72382812 -2.59765625 8.06640625 C-2.42105469 7.24011719 -2.24445313 6.41382812 -2.0625 5.5625 C-1.88847656 4.73878906 -1.71445313 3.91507812 -1.53515625 3.06640625 C-1 1 -1 1 0 0 Z " fill="#F1F1F5" transform="translate(220,79)"/>
<path d="M0 0 C2.29633824 3.44450737 2.54016485 5.93812283 3 10 C6.3 10 9.6 10 13 10 C12.195625 10.763125 11.39125 11.52625 10.5625 12.3125 C7.83200976 14.79430898 7.83200976 14.79430898 7 18 C7.30806453 20.07647876 7.30806453 20.07647876 7.9375 22.1875 C8.288125 23.445625 8.63875 24.70375 9 26 C6.50638429 24.79618552 4.31856917 23.54571278 2 22 C-1.97617113 22.31390825 -4.70155506 23.83245047 -8 26 C-7 18.57142857 -7 18.57142857 -6 15 C-6.598125 14.731875 -7.19625 14.46375 -7.8125 14.1875 C-10 13 -10 13 -13 10 C-9.7 10 -6.4 10 -3 10 C-2.690625 8.535625 -2.38125 7.07125 -2.0625 5.5625 C-1.125 1.125 -1.125 1.125 0 0 Z " fill="#F3F3F6" transform="translate(221,233)"/>
<path d="M0 0 C0.66 0.33 1.32 0.66 2 1 C2.90591398 3.95820059 3.40058396 6.96010437 4 10 C7.3 10 10.6 10 14 10 C12.37660195 11.70884005 10.70680947 13.37446717 9 15 C8.34 15 7.68 15 7 15 C7.350625 16.0725 7.70125 17.145 8.0625 18.25 C9.23076923 22.92307692 9.23076923 22.92307692 8 26 C7.278125 25.319375 6.55625 24.63875 5.8125 23.9375 C3.2172313 21.74376225 3.2172313 21.74376225 0.4375 22.0625 C-2.11625316 23.04471275 -3.86785406 24.3089877 -6 26 C-6.66 26 -7.32 26 -8 26 C-7.34 22.7 -6.68 19.4 -6 16 C-6.99 15.195625 -7.98 14.39125 -9 13.5625 C-9.99 12.716875 -10.98 11.87125 -12 11 C-12 10.67 -12 10.34 -12 10 C-8.7 10 -5.4 10 -2 10 C-1.855625 8.906875 -1.71125 7.81375 -1.5625 6.6875 C-1 3 -1 3 0 0 Z " fill="#F3F3F6" transform="translate(160,233)"/>
<path d="M0 0 C2.95183101 2.95183101 3.08663988 5.95511947 4 10 C7.3 10 10.6 10 14 10 C9.25 14.875 9.25 14.875 7 16 C7.66 19.3 8.32 22.6 9 26 C7.9275 25.319375 6.855 24.63875 5.75 23.9375 C2.96193688 22.32264006 2.96193688 22.32264006 -0.1875 22.0625 C-2.31453231 23.16268912 -4.10237199 24.54515186 -6 26 C-6.66 26 -7.32 26 -8 26 C-7.34 22.7 -6.68 19.4 -6 16 C-7.155 15.195625 -8.31 14.39125 -9.5 13.5625 C-10.68653894 12.73616038 -11.8588092 11.88791631 -13 11 C-13 10.67 -13 10.34 -13 10 C-9.37 10 -5.74 10 -2 10 C-1.855625 8.72125 -1.71125 7.4425 -1.5625 6.125 C-1.29357254 3.74307106 -1.07773654 2.15547309 0 0 Z " fill="#F5F5F7" transform="translate(130,207)"/>
<path d="M0 0 C0.66 0 1.32 0 2 0 C2.66 3.3 3.32 6.6 4 10 C7.3 10 10.6 10 14 10 C12.7934375 11.11375 12.7934375 11.11375 11.5625 12.25 C8.67094846 15.22150478 8.67094846 15.22150478 8 19 C8.27313343 21.34114367 8.59802999 23.67750658 9 26 C8.113125 25.319375 7.22625 24.63875 6.3125 23.9375 C3.2706339 21.76871359 3.2706339 21.76871359 0.4375 22.0625 C-2.26507997 23.10195384 -4.58272882 24.41150751 -7 26 C-6.85820312 25.33613281 -6.71640625 24.67226562 -6.5703125 23.98828125 C-6.1108952 21.22774745 -5.80761397 18.7960103 -6 16 C-7.74783613 13.60143103 -9.44069426 12.61915261 -12 11 C-12 10.67 -12 10.34 -12 10 C-8.7 10 -5.4 10 -2 10 C-1.34 6.7 -0.68 3.4 0 0 Z " fill="#F5F5F8" transform="translate(190,207)"/>
<path d="M0 0 C1.99097846 2.98646769 2.94124926 5.59687262 4 9 C6.97 9.33 9.94 9.66 13 10 C12.195625 10.763125 11.39125 11.52625 10.5625 12.3125 C7.83200976 14.79430898 7.83200976 14.79430898 7 18 C7.30806453 20.07647876 7.30806453 20.07647876 7.9375 22.1875 C8.288125 23.445625 8.63875 24.70375 9 26 C6.50638429 24.79618552 4.31856917 23.54571278 2 22 C-1.97617113 22.31390825 -4.70155506 23.83245047 -8 26 C-7.67 22.37 -7.34 18.74 -7 15 C-7.99 14.360625 -8.98 13.72125 -10 13.0625 C-10.99 12.381875 -11.98 11.70125 -13 11 C-13 10.67 -13 10.34 -13 10 C-9.7 10 -6.4 10 -3 10 C-2.690625 8.535625 -2.38125 7.07125 -2.0625 5.5625 C-1.125 1.125 -1.125 1.125 0 0 Z " fill="#F3F3F6" transform="translate(190,53)"/>
<path d="M0 0 C0.66 0 1.32 0 2 0 C2.66 3.3 3.32 6.6 4 10 C7.3 10 10.6 10 14 10 C12.37660195 11.70884005 10.70680947 13.37446717 9 15 C8.34 15 7.68 15 7 15 C7.99 18.63 8.98 22.26 10 26 C6 24 6 24 3 22 C-0.84927445 22.29609803 -3.08761258 23.51907739 -6 26 C-6.66 25.67 -7.32 25.34 -8 25 C-7.01 21.7 -6.02 18.4 -5 15 C-5.78375 14.731875 -6.5675 14.46375 -7.375 14.1875 C-10 13 -10 13 -12 10 C-8.7 10 -5.4 10 -2 10 C-1.855625 8.906875 -1.71125 7.81375 -1.5625 6.6875 C-1 3 -1 3 0 0 Z " fill="#F4F4F6" transform="translate(39,233)"/>
<path d="M0 0 C0.66 0.33 1.32 0.66 2 1 C2.90591398 3.95820059 3.40058396 6.96010437 4 10 C7.3 10 10.6 10 14 10 C12.37660195 11.70884005 10.70680947 13.37446717 9 15 C8.34 15 7.68 15 7 15 C7.99 18.63 8.98 22.26 10 26 C6.95048605 24.47524303 4.63600494 23.07114674 2 21 C-0.25162472 22.04539719 -2.14589161 23.11156417 -4.125 24.625 C-6 26 -6 26 -8 26 C-7.34 22.7 -6.68 19.4 -6 16 C-6.99 15.195625 -7.98 14.39125 -9 13.5625 C-9.99 12.716875 -10.98 11.87125 -12 11 C-12 10.67 -12 10.34 -12 10 C-8.7 10 -5.4 10 -2 10 C-1.855625 8.906875 -1.71125 7.81375 -1.5625 6.6875 C-1 3 -1 3 0 0 Z " fill="#F4F4F6" transform="translate(129,53)"/>
<path d="M0 0 C3.00617269 3.00617269 2.59585316 5.82381598 3 10 C6.63 10 10.26 10 14 10 C11.74259377 12.33524782 9.7194239 14.18705073 7 16 C7.66 19.3 8.32 22.6 9 26 C6.41210938 24.4375 6.41210938 24.4375 3.82421875 22.875 C1.88638074 21.78376001 1.88638074 21.78376001 -1 22 C-2.86263287 22.85759736 -2.86263287 22.85759736 -4.6875 24 C-6.3271875 24.99 -6.3271875 24.99 -8 26 C-7.34 22.7 -6.68 19.4 -6 16 C-7.155 15.195625 -8.31 14.39125 -9.5 13.5625 C-10.68653894 12.73616038 -11.8588092 11.88791631 -13 11 C-13 10.67 -13 10.34 -13 10 C-9.7 10 -6.4 10 -3 10 C-2.690625 8.535625 -2.38125 7.07125 -2.0625 5.5625 C-1.125 1.125 -1.125 1.125 0 0 Z " fill="#F5F4F7" transform="translate(100,233)"/>
<path d="M0 0 C3.00617269 3.00617269 2.59585316 5.82381598 3 10 C6.63 10 10.26 10 14 10 C11.74259377 12.33524782 9.7194239 14.18705073 7 16 C7.66 19.3 8.32 22.6 9 26 C6.41210938 24.4375 6.41210938 24.4375 3.82421875 22.875 C1.88638074 21.78376001 1.88638074 21.78376001 -1 22 C-2.86263287 22.85759736 -2.86263287 22.85759736 -4.6875 24 C-6.3271875 24.99 -6.3271875 24.99 -8 26 C-7.34 22.7 -6.68 19.4 -6 16 C-7.155 15.195625 -8.31 14.39125 -9.5 13.5625 C-10.68653894 12.73616038 -11.8588092 11.88791631 -13 11 C-13 10.67 -13 10.34 -13 10 C-9.7 10 -6.4 10 -3 10 C-2.01 6.7 -1.02 3.4 0 0 Z " fill="#F5F5F8" transform="translate(220,27)"/>
<path d="M0 0 C2.29633824 3.44450737 2.54016485 5.93812283 3 10 C6.3 10 9.6 10 13 10 C11.37660195 11.70884005 9.70680947 13.37446717 8 15 C7.34 15 6.68 15 6 15 C6.99 18.63 7.98 22.26 9 26 C7.30729167 24.95833333 5.61458333 23.91666667 3.921875 22.875 C1.74520615 21.72375977 1.74520615 21.72375977 -2 22 C-4.73219193 23.91859167 -4.73219193 23.91859167 -7 26 C-7.66 25.67 -8.32 25.34 -9 25 C-8.67 24.0925 -8.34 23.185 -8 22.25 C-6.80394277 18.92954193 -6.80394277 18.92954193 -7 15 C-9.41666771 12.24958334 -9.41666771 12.24958334 -12 10 C-9.03 10 -6.06 10 -3 10 C-2.86722656 9.36191406 -2.73445313 8.72382812 -2.59765625 8.06640625 C-2.42105469 7.24011719 -2.24445313 6.41382812 -2.0625 5.5625 C-1.88847656 4.73878906 -1.71445313 3.91507812 -1.53515625 3.06640625 C-1 1 -1 1 0 0 Z " fill="#F5F5F7" transform="translate(70,105)"/>
<path d="M0 0 C1.32 0.66 2.64 1.32 4 2 C4 3.32 4 4.64 4 6 C7.3 6 10.6 6 14 6 C12.7934375 7.11375 12.7934375 7.11375 11.5625 8.25 C8.63196797 11.21175858 8.63196797 11.21175858 8 15 C8.588562 17.354248 9.24592899 19.69342986 10 22 C7.50638429 20.79618552 5.31856917 19.54571278 3 18 C-0.84927445 18.29609803 -3.08761258 19.51907739 -6 22 C-6.66 21.67 -7.32 21.34 -8 21 C-7.01 17.7 -6.02 14.4 -5 11 C-5.78375 10.731875 -6.5675 10.46375 -7.375 10.1875 C-10 9 -10 9 -12 6 C-8.7 6 -5.4 6 -2 6 C-1.855625 5.195625 -1.71125 4.39125 -1.5625 3.5625 C-1 1 -1 1 0 0 Z " fill="#F6F6F8" transform="translate(159,31)"/>
<path d="M0 0 C0.66 0 1.32 0 2 0 C2 0.66 2 1.32 2 2 C5.63 2 9.26 2 13 2 C8.25 6.875 8.25 6.875 6 8 C6.66 11.63 7.32 15.26 8 19 C6.824375 18.13375 5.64875 17.2675 4.4375 16.375 C1.40337973 14.41751073 1.40337973 14.41751073 -2.08984375 14.11328125 C-4.21809178 14.71137104 -4.21809178 14.71137104 -7 16 C-5.35433477 10.31497465 -2.70967216 5.23318364 0 0 Z " fill="#F4F4F7" transform="translate(41,138)"/>
<path d="M0 0 C2.97 0 5.94 0 9 0 C7.7934375 1.0828125 7.7934375 1.0828125 6.5625 2.1875 C3.90100414 5.10865399 3.18786884 6.14868883 3 10 C3.38333662 13.22111592 3.38333662 13.22111592 4 16 C1.5 15 1.5 15 -1 13 C-1.4430814 8.42149218 -1.11800885 4.47203541 0 0 Z " fill="#F3F2F5" transform="translate(14,217)"/>
<path d="M0 0 C-0.33 1.65 -0.66 3.3 -1 5 C-3.97 5 -6.94 5 -10 5 C-8.28489314 1.56978628 -3.75681361 0 0 0 Z " fill="#5B5983" transform="translate(158,32)"/>
</svg>
