<?xml version="1.0" encoding="UTF-8"?>
<svg version="1.1" xmlns="http://www.w3.org/2000/svg" width="512" height="512">
<path d="M0 0 C32.54791398 11.0356788 62.63364338 28.24536032 87.68359375 51.83203125 C89.61761409 53.61791386 91.54064088 55.30381533 93.57421875 56.96484375 C95.90915075 58.930264 97.85733972 60.80262687 99.8125 63.125 C101.60526816 65.23482977 103.39502901 67.32900483 105.2734375 69.36328125 C139.62950848 106.59404389 159.90833083 158.80796746 158.68359375 209.5 C157.628813 234.73077545 152.15582356 258.52697058 141.4375 281.375 C141.11523438 282.07173828 140.79296875 282.76847656 140.4609375 283.48632812 C131.75531695 302.15386812 120.49345025 318.9807999 106.51171875 334.109375 C104.62504031 336.17015371 102.84477574 338.2869155 101.0625 340.4375 C96.74162709 345.39998745 91.61080463 349.34208807 86.4375 353.375 C85.79167969 353.89835937 85.14585937 354.42171875 84.48046875 354.9609375 C59.34360423 374.78565418 30.6851643 381.98386326 -0.9765625 379.15966797 C-20.92005086 376.69941086 -39.82191405 366.6861958 -54.5625 353.375 C-55.39265625 352.62734375 -56.2228125 351.8796875 -57.078125 351.109375 C-68.18714102 340.55930319 -76.39729354 327.81551576 -83.5625 314.375 C-84.13355469 313.34890625 -84.70460937 312.3228125 -85.29296875 311.265625 C-95.89642733 291.36897504 -101.87997465 269.07067782 -107.015625 247.23046875 C-112.55724272 223.82866366 -121.20273141 203.61523062 -138.5625 186.375 C-139.03969482 187.46514404 -139.51688965 188.55528809 -140.00854492 189.6784668 C-155.95430007 226.09673981 -155.95430007 226.09673981 -163.0625 241.875 C-167.80922536 252.41170365 -172.47109307 262.98317314 -177.10443115 273.57009888 C-183.81033657 288.89178329 -190.57839455 304.18373167 -197.4375 319.4375 C-197.82022064 320.2900235 -198.20294128 321.142547 -198.59725952 322.02090454 C-199.6852542 324.44321955 -200.77573602 326.86439715 -201.8671875 329.28515625 C-202.34106148 330.3403244 -202.34106148 330.3403244 -202.82450867 331.41680908 C-204.38032851 334.85815036 -205.97487169 338.27849769 -207.62939453 341.67358398 C-207.93684601 342.30465561 -208.24429749 342.93572723 -208.56106567 343.58592224 C-211.37758708 348.61768087 -214.88353414 351.42342411 -220.3125 353.3125 C-227.33462111 355.07330214 -233.61363497 354.82563213 -239.9375 351.125 C-244.78025663 347.72725946 -247.66397893 343.98042542 -249.5625 338.375 C-250.61966605 329.16497675 -248.82269406 321.41758949 -245.6796875 312.82421875 C-245.07136078 311.08514755 -245.07136078 311.08514755 -244.45074463 309.3109436 C-243.35832338 306.1995933 -242.24854554 303.09517135 -241.13034821 299.99301529 C-239.95579331 296.72029818 -238.80495534 293.43925966 -237.65185547 290.15893555 C-235.80992036 284.9270462 -233.956208 279.69950667 -232.09179688 274.47558594 C-230.00268335 268.61889098 -227.93512984 262.75521461 -225.890625 256.8828125 C-225.61947372 256.10431442 -225.34832245 255.32581635 -225.06895447 254.52372742 C-224.53693523 252.99605793 -224.00498704 251.46836371 -223.47311401 249.94064331 C-222.12957845 246.08737934 -220.77748743 242.23712251 -219.42578125 238.38671875 C-214.99187429 225.75153342 -210.56214787 213.11488875 -206.14085007 200.47528553 C-204.6482864 196.20859902 -203.15375889 191.9426076 -201.65769863 187.67714596 C-200.71805311 184.99655621 -199.78031492 182.31530202 -198.84307289 179.63387108 C-198.19661033 177.78609791 -197.54794944 175.93909431 -196.8992157 174.09211731 C-194.61982125 167.56368301 -192.47365887 161.02105658 -190.5625 154.375 C-191.21734375 153.99730469 -191.8721875 153.61960937 -192.546875 153.23046875 C-211.08951548 142.04726609 -225.09415572 125.84211678 -231.0546875 104.75390625 C-235.27241703 84.99546562 -231.93390016 66.54569166 -221.5625 49.375 C-219.13379273 45.78304415 -216.50192438 42.55892364 -213.5625 39.375 C-212.81355469 38.55773437 -212.06460938 37.74046875 -211.29296875 36.8984375 C-200.74634248 25.89178069 -188.67544211 17.93659044 -175.5625 10.375 C-174.6653125 9.80652344 -173.768125 9.23804688 -172.84375 8.65234375 C-169.53210612 6.79805 -167.29041539 6.84244066 -163.5625 7.375 C-160.18128009 9.82098887 -158.79313217 11.26796559 -157.9375 15.375 C-158.77689971 19.40411859 -160.50200553 20.66011239 -163.5625 23.375 C-165.7093188 24.69364525 -167.90111112 25.94094995 -170.125 27.125 C-181.02582177 33.12562368 -190.6163398 40.7405527 -199.5625 49.375 C-200.51769531 50.29152344 -200.51769531 50.29152344 -201.4921875 51.2265625 C-211.96395348 62.16374031 -216.09098897 76.0040709 -215.8046875 90.828125 C-214.65109117 107.72272932 -205.88342926 121.21138083 -193.4375 132.26171875 C-184.84661026 138.84295393 -174.33287404 142.86377019 -164.5625 147.375 C-139.70847412 158.90465752 -118.84475679 177.31132975 -105.5625 201.375 C-105.06024902 202.25913574 -105.06024902 202.25913574 -104.54785156 203.16113281 C-97.25955295 216.10214002 -93.63413476 229.73759176 -90.17578125 244.1015625 C-82.58185687 275.62029015 -72.75074937 306.24382452 -51.5625 331.375 C-50.89734375 332.19871094 -50.2321875 333.02242188 -49.546875 333.87109375 C-36.45292457 349.41409787 -16.78821777 360.15990092 3.4375 362.375 C31.13729168 364.11080667 55.89729711 357.37040603 77.12841797 338.90429688 C79.33653317 336.91100828 81.52009787 334.89822184 83.65722656 332.82885742 C87.24523238 329.375 87.24523238 329.375 89.4375 329.375 C89.66953125 328.81683594 89.9015625 328.25867188 90.140625 327.68359375 C91.77176246 324.77997254 93.83931613 322.80305209 96.1875 320.4375 C126.50730313 288.40100103 141.36768817 243.83286696 141.4375 200.375 C139.95692769 153.57427197 119.17438686 105.62936792 85.1796875 73.22265625 C83.4375 71.375 83.4375 71.375 83.4375 69.375 C82.84324219 69.11332031 82.24898438 68.85164063 81.63671875 68.58203125 C79.30361966 67.30152038 78.02479812 66.03121906 76.25 64.0625 C50.56197222 37.85312848 13.08816252 20.27804811 -22.1015625 11.45703125 C-25.30932269 10.0466351 -26.65446424 8.27662121 -28.5625 5.375 C-29.0625 2.3125 -29.0625 2.3125 -28.5625 -0.625 C-21.48062064 -9.35931787 -9.21611837 -3.01777512 0 0 Z M-174.5625 161.375 C-178.02265108 169.42541562 -181.11268483 177.5336756 -183.93359375 185.828125 C-184.3321608 186.98919266 -184.73072784 188.15026031 -185.14137268 189.34651184 C-186.20965142 192.45996736 -187.27463854 195.57452508 -188.33837891 198.68953323 C-189.45994514 201.970496 -190.58640374 205.24977679 -191.71289062 208.52905273 C-191.93790567 209.18410892 -192.16292072 209.8391651 -192.39475441 210.51407146 C-192.84827744 211.83428956 -193.30182264 213.15450003 -193.75539017 214.47470284 C-194.43251128 216.44606727 -195.10917239 218.4175891 -195.78573608 220.3891449 C-199.08055932 229.98819337 -202.40340914 239.57702027 -205.76193237 249.15396118 C-206.56347696 251.44028667 -207.36304312 253.72729688 -208.16235352 256.0144043 C-211.00941958 264.15106597 -213.88093657 272.27860714 -216.77927017 280.39716434 C-218.64376095 285.62042841 -220.50089815 290.8462759 -222.35406113 296.0735693 C-223.50239875 299.31104285 -224.65493465 302.54689093 -225.81738281 305.77932739 C-227.11481031 309.39238426 -228.39857959 313.01003642 -229.6796875 316.62890625 C-230.07268036 317.71248413 -230.46567322 318.79606201 -230.87057495 319.91247559 C-232.74155906 325.24035029 -234.24447572 329.71211465 -233.5625 335.375 C-232.00452118 337.52282671 -232.00452118 337.52282671 -229.5625 338.375 C-227.02535686 338.76991898 -227.02535686 338.76991898 -224.5625 337.375 C-220.59333445 332.24494392 -217.9742826 326.24282179 -215.40234375 320.33203125 C-215.02018204 319.46756882 -214.63802032 318.60310638 -214.24427795 317.71244812 C-212.99057093 314.87323666 -211.74536019 312.03038123 -210.5 309.1875 C-209.61197536 307.17289166 -208.72329141 305.15857383 -207.83398438 303.14453125 C-205.98816902 298.96287092 -204.14518825 294.77997866 -202.30419922 290.59619141 C-198.49042371 281.93487775 -194.64218122 273.28893297 -190.7940979 264.64282227 C-188.73089358 260.00609557 -186.67026992 255.36822226 -184.609375 250.73046875 C-183.7780071 248.85985781 -182.94662681 246.98925238 -182.11523438 245.11865234 C-181.48959595 243.71096588 -181.48959595 243.71096588 -180.85131836 242.27484131 C-166.359375 209.66796875 -166.359375 209.66796875 -165.17419434 207.00204468 C-164.41117875 205.28477726 -163.64887213 203.56719463 -162.8873291 201.84927368 C-161.01149267 197.61999257 -159.12242894 193.39747328 -157.20898438 189.18505859 C-156.83457214 188.35616623 -156.46015991 187.52727386 -156.07440186 186.67326355 C-155.36614257 185.1063306 -154.65353119 183.54135494 -153.93585205 181.97871399 C-152.06613082 177.84353161 -152.06613082 177.84353161 -151.5625 173.375 C-153.91347911 171.7239307 -156.19870873 170.28717931 -158.6875 168.875 C-159.35265625 168.48441406 -160.0178125 168.09382812 -160.703125 167.69140625 C-167.28396096 163.3338274 -167.28396096 163.3338274 -174.5625 161.375 Z " fill="#ffffff" transform="translate(301.5625,132.625)"/>
<path d="M0 0 C4.16483548 3.51799891 6.6102115 7.45978017 8.9375 12.3125 C9.27740967 13.00891602 9.61731934 13.70533203 9.9675293 14.42285156 C21.00181693 37.49101262 27.92551278 64.09906087 20.33203125 89.3359375 C15.25562576 103.2997743 6.42838843 112.03217207 -5 121 C-4.80921875 121.64324219 -4.6184375 122.28648438 -4.421875 122.94921875 C-2.19400305 132.02909222 -3.91478807 139.28328378 -8.328125 147.4609375 C-11.58191288 152.2701075 -15.45621088 155.20329223 -21 157 C-21.99 157 -22.98 157 -24 157 C-24.36480469 158.2065625 -24.72960937 159.413125 -25.10546875 160.65625 C-26.46361876 164.74269075 -28.14382629 168.57850273 -29.98828125 172.46875 C-30.52904297 173.61730469 -31.06980469 174.76585937 -31.62695312 175.94921875 C-32.7542682 178.32402618 -33.89765088 180.69127021 -35.05664062 183.05078125 C-37.93181468 189.23119159 -39.90508131 193.49573598 -37.6940918 200.14013672 C-37.4650415 200.7538916 -37.23599121 201.36764648 -37 202 C-34.64087541 215.94547037 -37.66405298 228.85735092 -45.5 240.5625 C-53.37181944 250.87326906 -63.73553346 257.53449257 -76.53125 259.55859375 C-91.13480042 261.02196605 -104.11315962 258.09640342 -115.65625 248.87890625 C-125.10054427 240.21689539 -131.30607914 228.47257052 -132.24609375 215.640625 C-132.68022254 202.74831561 -129.93501032 192.21996093 -122 182 C-120.8553125 180.4221875 -120.8553125 180.4221875 -119.6875 178.8125 C-116.19483699 175.15738755 -112.27302625 172.65663804 -108 170 C-104.07959962 167.38639975 -103.27623717 164.28235252 -101.72265625 160.02734375 C-101.42886581 159.23026505 -101.13507538 158.43318634 -100.8323822 157.61195374 C-100.21568699 155.92188154 -99.60496086 154.22962113 -98.99975586 152.53540039 C-98.07063344 149.96004441 -97.09787594 147.40404344 -96.12304688 144.84570312 C-95.52846593 143.19891921 -94.93658146 141.55115873 -94.34765625 139.90234375 C-93.90426659 138.76743752 -93.90426659 138.76743752 -93.45191956 137.60960388 C-91.90597536 133.08905516 -91.81804492 130.58353805 -93.81811523 126.17797852 C-94.20402328 125.46650162 -94.58993134 124.75502472 -94.98753357 124.02198792 C-97.29436552 119.41503386 -96.45448195 115.55684244 -95.08203125 110.85546875 C-92.25859297 102.86029563 -89.12829504 96.7521967 -82 92 C-81.01 92 -80.02 92 -79 92 C-79.32226562 90.86820312 -79.64453125 89.73640625 -79.9765625 88.5703125 C-83.65543874 73.75713826 -81.05609467 58.0074628 -73.8125 44.75 C-61.43493157 24.96165812 -25.5373681 -4.72914224 0 0 Z M-46 38 C-46.61488281 38.45761719 -47.22976562 38.91523437 -47.86328125 39.38671875 C-56.22211709 45.7855517 -63.57920016 56.4951501 -65 67 C-65.44011642 72.05005379 -65.6697953 76.97250679 -65 82 C-64.91564697 83.01707031 -64.83129395 84.03414063 -64.74438477 85.08203125 C-63.9572178 89.5991737 -63.10434777 93.43031602 -59.26101685 96.29714966 C-54.64627662 98.89922594 -49.73050992 100.70741357 -44.73754883 102.44433594 C-42.05499024 103.37761268 -39.40479447 104.37628167 -36.75195312 105.390625 C-35.05613843 106.02213914 -33.35891245 106.6498792 -31.66015625 107.2734375 C-30.86730728 107.56592377 -30.07445831 107.85841003 -29.25758362 108.15975952 C-25.15890519 109.57676047 -22.25833257 110.50340851 -18 109 C-6.56820882 103.15893881 1.39188855 93.89382139 5.7421875 81.96484375 C11.85310532 60.24178655 3.09238001 36.02025463 -7 17 C-19.86554191 17 -36.78846895 30.21538426 -46 38 Z M-75 107 C-77.48044232 109.67887771 -78.95364096 112.51213653 -80 116 C-79.89343799 118.05236453 -79.89343799 118.05236453 -79 120 C-71.75194262 125.29470185 -61.8759651 127.88386214 -53.5 131.0625 C-51.46405622 131.84046423 -49.42866696 132.61985726 -47.39355469 133.3999939 C-46.07996962 133.90245229 -44.76552749 134.40267636 -43.45019531 134.90054321 C-38.94828678 136.60951803 -34.52038405 138.45213928 -30.13085938 140.43139648 C-27.41222525 141.15684319 -25.66524493 140.8440644 -23 140 C-21.45475744 137.82727283 -21.45475744 137.82727283 -20.5625 135.125 C-20.03849609 133.79855469 -20.03849609 133.79855469 -19.50390625 132.4453125 C-19.33761719 131.63835937 -19.17132813 130.83140625 -19 130 C-21.17491498 126.73762753 -21.87065414 126.38608997 -25.37036133 125.03881836 C-26.72735893 124.50828102 -26.72735893 124.50828102 -28.11177063 123.96702576 C-29.09195663 123.59505569 -30.07214264 123.22308563 -31.08203125 122.83984375 C-32.08836105 122.44930313 -33.09469086 122.05876251 -34.1315155 121.65638733 C-37.35509468 120.4076989 -40.58362786 119.17242894 -43.8125 117.9375 C-45.97755631 117.10179894 -48.14227432 116.26522085 -50.30664062 115.42773438 C-55.08992061 113.57818032 -59.87639819 111.73718778 -64.66584778 109.90367126 C-66.32582035 109.26100987 -67.97288185 108.58455875 -69.60990906 107.88551331 C-72.04404618 106.82629203 -72.04404618 106.82629203 -75 107 Z M-77 139 C-80.56487939 147.27650974 -83.71189185 155.6276828 -86.6171875 164.15625 C-87.25987775 166.02654964 -87.90256831 167.89684917 -88.54527473 169.76714325 C-89.43476888 172.35887483 -90.32061611 174.95184709 -91.20654297 177.5447998 C-92.52606843 181.4043395 -93.85048032 185.26220463 -95.17497635 189.12004089 C-96.24737828 192.24395153 -97.31763479 195.36856453 -98.38446045 198.49438477 C-100.28883639 204.06620111 -102.2134688 209.62694157 -104.22753906 215.16015625 C-104.56254425 216.08727417 -104.89754944 217.01439209 -105.2427063 217.96960449 C-105.85738109 219.66284993 -106.48068902 221.35299803 -107.11447144 223.03918457 C-108.47189978 226.7899181 -109.34377209 229.20151217 -108 233 C-102.50557007 239.37134643 -96.07763707 242.19086321 -88 244 C-83.52724875 244.50960468 -83.52724875 244.50960468 -79.51000977 242.95947266 C-77.25724381 240.03615825 -75.88024916 236.75515406 -74.40234375 233.3984375 C-74.05555069 232.62531219 -73.70875763 231.85218689 -73.35145569 231.05563354 C-72.20667281 228.49839822 -71.07200405 225.93681008 -69.9375 223.375 C-69.14305692 221.59451285 -68.34812796 219.81424242 -67.55273438 218.03417969 C-60.85516666 203.02095443 -54.24416933 187.96873954 -47.66381836 172.90380859 C-47.29792099 172.06681427 -46.93202362 171.22981995 -46.55503845 170.36746216 C-45.87280968 168.80625813 -45.19148349 167.24465923 -44.51124573 165.68258667 C-43.33037513 162.98030602 -42.15809699 160.29959886 -40.78125 157.69042969 C-39.79023815 155.85649963 -39.79023815 155.85649963 -40 153 C-43.65957697 151.48217293 -47.32177173 149.97085449 -50.98632812 148.46508789 C-52.83339169 147.70463062 -54.67844015 146.93928474 -56.5234375 146.17382812 C-63.27146064 143.40493819 -69.96902198 140.94032962 -77 139 Z " fill="#ffffff" transform="translate(258,0)"/>
<path d="M0 0 C11.13480845 9.52252849 17.5927476 20.36369996 19.27734375 35.02734375 C19.99959597 48.52112905 16.21315843 60.79023531 7.40234375 71.02734375 C-1.75722604 81.15107878 -12.95342182 87.10175815 -26.5625 88.28515625 C-40.85176411 88.80476585 -53.49394801 84.42582422 -64.06640625 74.7734375 C-74.3535973 64.09190413 -78.99598719 51.88751404 -78.96875 37.23901367 C-78.66962526 26.50666727 -75.19590449 17.44465792 -68.59765625 9.02734375 C-68.13488281 8.40214844 -67.67210937 7.77695312 -67.1953125 7.1328125 C-51.14145008 -13.27916216 -20.09873793 -15.26295136 0 0 Z M-55.03515625 17.58984375 C-61.79813638 26.29599001 -63.48271157 34.10690311 -62.59765625 45.02734375 C-61.02274066 54.03299745 -55.60112269 61.17807992 -48.22265625 66.40234375 C-40.19568918 71.30015417 -32.32550279 73.4340753 -23.01953125 71.48828125 C-12.52212553 68.62820963 -5.22083785 62.23453121 0.40234375 53.02734375 C3.95132427 44.86468855 4.0691684 36.45238681 1.40234375 28.02734375 C-2.20283906 19.45626711 -7.94048036 12.6701777 -16.484375 8.8046875 C-30.45488314 3.66581297 -44.88317233 6.08091149 -55.03515625 17.58984375 Z " fill="#ffffff" transform="translate(359.59765625,382.97265625)"/>
<path d="M0 0 C10.79678955 7.28635798 16.43235603 16.58989479 18.984375 29.3046875 C20.23337272 39.32242181 18.00059645 48.87548889 13.109375 57.6796875 C12.408125 58.5459375 11.706875 59.4121875 10.984375 60.3046875 C10.57703125 60.86414063 10.1696875 61.42359375 9.75 62 C3.95705209 69.51781443 -5.68038407 75.27702091 -15.16601562 76.60595703 C-17.39610803 76.74122002 -19.59422473 76.77249888 -21.828125 76.7421875 C-22.61493652 76.73461426 -23.40174805 76.72704102 -24.21240234 76.71923828 C-36.90675865 76.36205471 -45.69870165 71.04819855 -54.265625 61.9921875 C-61.50128173 53.4654626 -64.48821569 43.32888363 -63.828125 32.12109375 C-62.12275301 20.1682633 -57.10999435 10.30046104 -47.765625 2.5546875 C-33.57459158 -7.96252509 -15.34141327 -8.62457689 0 0 Z M-42.609375 20.25 C-47.43998615 27.30805963 -47.90733132 33.94753291 -47.015625 42.3046875 C-45.23857513 49.38919297 -39.78488136 54.16016269 -34.015625 58.3046875 C-27.60271875 61.51114063 -19.95019988 61.50871042 -13.15625 59.4296875 C-6.10268235 56.18077149 -1.26312855 51.62933847 1.859375 44.4921875 C4.06181742 37.60623801 3.88635459 31.55124039 0.796875 24.9921875 C-3.4434695 17.45379727 -8.88750779 13.19995845 -17.015625 10.3046875 C-27.18057616 8.47657225 -36.33943352 12.17597158 -42.609375 20.25 Z " fill="#ffffff" transform="translate(404.015625,292.6953125)"/>
<path d="M0 0 C7.22074788 7.70310553 10.05221001 17.33104519 9.8984375 27.6953125 C9.12200553 37.5588742 4.59658363 46.05199916 -2.6875 52.6875 C-12.26391666 60.34863333 -22.43841903 61.33669308 -34.3125 60.375 C-42.56602551 58.78032405 -48.92000052 53.65851489 -54.3125 47.375 C-60.48693925 37.39319861 -62.82723802 28.33506047 -60.8515625 16.6484375 C-58.36577648 7.20245062 -52.26469343 -0.07957661 -44.3125 -5.625 C-29.37345672 -13.3642218 -12.52278628 -11.40134273 0 0 Z M-38.4296875 10.1875 C-43.23207967 15.44821176 -45.85569393 19.93391317 -45.62109375 27.26171875 C-44.66116718 33.83539308 -41.00147165 38.15483832 -35.99609375 42.24609375 C-31.35384501 45.35887771 -25.66079077 44.90683284 -20.3125 44.375 C-14.08734092 42.35008766 -10.08139981 37.57586633 -7 32 C-5.35814558 25.73110129 -5.84411684 20.85730296 -8.9921875 15.265625 C-12.27623858 10.56301931 -16.07791178 7.42958402 -21.625 5.8125 C-27.85127324 4.80484079 -33.59550464 6.04901135 -38.4296875 10.1875 Z " fill="#ffffff" transform="translate(374.3125,215.625)"/>
<path d="M0 0 C7.04464824 4.95284656 13.02692737 12.14959209 14.7265625 20.74609375 C15.77830395 31.60110432 14.45373206 40.27873467 7.7265625 48.99609375 C1.27435308 55.79297248 -7.37113407 59.51006927 -16.6875 59.84375 C-25.88306698 59.49648539 -33.82022143 56.26614984 -40.35546875 49.6328125 C-47.0300329 41.49687009 -48.88705522 34.73968501 -48.6171875 24.21484375 C-47.74725104 15.43639404 -43.85896714 8.56676857 -37.2734375 2.74609375 C-26.03093795 -5.20049316 -12.3021744 -6.7852199 0 0 Z M-29.7109375 18.30859375 C-32.47661749 22.62305454 -32.79611153 26.73792622 -32.2734375 31.74609375 C-30.20736332 37.40061257 -27.11065982 40.13577838 -21.9609375 43.05859375 C-16.66075544 44.41445428 -12.62098774 43.48343256 -7.9609375 40.93359375 C-3.99942782 37.70910913 -1.64088311 34.90853549 -1.03515625 29.6953125 C-0.85341957 24.15712617 -1.52830744 21.0985422 -5.2734375 16.74609375 C-8.79742849 13.02073185 -11.93597925 11.93159083 -16.9296875 11.58203125 C-22.29502366 11.95760478 -26.08175415 14.49329843 -29.7109375 18.30859375 Z " fill="#ffffff" transform="translate(298.2734375,165.25390625)"/>
</svg>
