<?xml version="1.0" encoding="UTF-8"?>
<svg version="1.1" xmlns="http://www.w3.org/2000/svg" width="512" height="512">
<path d="M0 0 C2.10437011 1.13836103 4.22220784 2.24928035 6.34033203 3.36181641 C34.87620547 18.5674437 61.12528436 40.45899522 80.96142578 66.06103516 C81.67685547 66.97111328 82.39228516 67.88119141 83.12939453 68.81884766 C117.3570404 113.28449733 134.17308713 166.2615192 134.21142578 222.12353516 C134.21210052 223.00886932 134.21277527 223.89420349 134.21347046 224.80636597 C134.16746932 262.94904959 126.81594403 299.6594471 109.96142578 334.06103516 C109.55021484 334.90263184 109.13900391 335.74422852 108.71533203 336.61132812 C102.69870616 348.78963947 96.03338534 360.1385718 87.96142578 371.06103516 C87.54538086 371.63257324 87.12933594 372.20411133 86.70068359 372.79296875 C81.14840581 380.39487802 75.09650933 387.36091668 68.62548828 394.18603516 C65.98132536 396.9671096 65.98132536 396.9671096 63.83642578 399.73291016 C62.11893067 401.86546658 60.42378225 403.5523263 58.33642578 405.31103516 C55.30791223 407.89026373 52.37284886 410.53806889 49.46142578 413.24853516 C1.26164707 456.58411601 -63.09120825 475.65720668 -127.03857422 473.06103516 C-191.91797262 468.95029378 -250.83855101 439.22750288 -295.03857422 392.06103516 C-298.14960874 388.4779816 -301.10547663 384.79040323 -304.03857422 381.06103516 C-304.83005859 380.08650391 -305.62154297 379.11197266 -306.43701172 378.10791016 C-347.92006392 326.02508752 -363.30868786 258.09288975 -356.69091797 192.62158203 C-349.73739915 132.97659291 -321.1408507 72.65624649 -274.03857422 34.06103516 C-273.19552734 33.33013672 -272.35248047 32.59923828 -271.48388672 31.84619141 C-198.6052675 -30.66351857 -87.68494145 -46.57409203 0 0 Z " fill="#FEFEFE" transform="translate(368.03857421875,34.93896484375)"/>
<path d="M0 0 C0 144.87 0 289.74 0 439 C-32.38246679 432.52350664 -62.66723924 408.11891771 -86 386 C-86.75265137 385.29037109 -86.75265137 385.29037109 -87.52050781 384.56640625 C-95.52034093 376.97299552 -102.41517358 368.83778825 -109 360 C-109.41991211 359.44618652 -109.83982422 358.89237305 -110.27246094 358.32177734 C-121.52162467 343.45022482 -130.67612652 327.13495971 -138 310 C-138.33628418 309.21463867 -138.67256836 308.42927734 -139.01904297 307.62011719 C-144.96206239 293.4897441 -149.06146583 279.03912637 -152 264 C-152.13170593 263.3417926 -152.26341187 262.68358521 -152.39910889 262.00543213 C-155.12487242 248.05091189 -155.5585167 234.315169 -155.5 220.125 C-155.49856995 219.00470398 -155.49713989 217.88440796 -155.4956665 216.73016357 C-155.43963668 198.97187335 -154.33596024 182.28301586 -150 165 C-149.78069824 164.06816895 -149.56139648 163.13633789 -149.33544922 162.17626953 C-142.58915138 133.87213903 -129.38353778 106.29122444 -112 83 C-111.54625 82.39075684 -111.0925 81.78151367 -110.625 81.15380859 C-104.23427767 72.65024448 -97.36624229 64.66969202 -90 57 C-89.5138623 56.49194824 -89.02772461 55.98389648 -88.52685547 55.46044922 C-81.75941964 48.42857435 -74.76928883 41.93326286 -67 36 C-66.06124023 35.27925293 -66.06124023 35.27925293 -65.10351562 34.54394531 C-47.40708159 21.05734672 -28.48454588 10.62126805 -8 2 C-7.05125 1.59007812 -6.1025 1.18015625 -5.125 0.7578125 C-3 0 -3 0 0 0 Z " fill="#33866C" transform="translate(179,35)"/>
<path d="M0 0 C19.87390459 7.01431927 19.87390459 7.01431927 26.875 10.625 C27.69887207 11.04467041 28.52274414 11.46434082 29.37158203 11.89672852 C47.44777053 21.29256275 63.65973376 32.88944627 78.5546875 46.7421875 C80.65882391 48.68498437 82.80582946 50.53616072 85 52.375 C119.4795951 82.58835716 141.58906482 128.43032067 151.1875 172.5625 C151.4201355 173.62259277 151.4201355 173.62259277 151.6574707 174.70410156 C154.67586626 189.35689044 155.3718434 203.77813717 155.3125 218.6875 C155.31100952 219.61442657 155.30951904 220.54135315 155.3079834 221.49636841 C155.27157621 234.08551323 155.01647839 246.43605823 152.453125 258.80810547 C151.97795382 261.10664364 151.56486617 263.41142102 151.15625 265.72265625 C143.72324891 305.99742862 123.78635752 344.71582102 96.0625 374.75 C94.24942906 376.72789558 92.52960986 378.75196817 90.8125 380.8125 C81.79380192 391.12255901 71.1068418 400.03918482 60 408 C59.37770508 408.45165527 58.75541016 408.90331055 58.11425781 409.36865234 C48.58327791 416.21977811 38.59135565 422.0226425 28.1875 427.4375 C26.52533447 428.30616699 26.52533447 428.30616699 24.82958984 429.19238281 C5.62799843 439 5.62799843 439 0 439 C0 294.13 0 149.26 0 0 Z " fill="#D74050" transform="translate(334,35)"/>
<path d="M0 0 C29.6313089 9.70680809 55.74857208 25.53183526 78.5546875 46.7421875 C80.65882391 48.68498437 82.80582946 50.53616072 85 52.375 C119.4795951 82.58835716 141.58906482 128.43032067 151.1875 172.5625 C151.4201355 173.62259277 151.4201355 173.62259277 151.6574707 174.70410156 C154.67586626 189.35689044 155.3718434 203.77813717 155.3125 218.6875 C155.31100952 219.61442657 155.30951904 220.54135315 155.3079834 221.49636841 C155.27157621 234.08551323 155.01647839 246.43605823 152.453125 258.80810547 C151.97795382 261.10664364 151.56486617 263.41142102 151.15625 265.72265625 C143.72324891 305.99742862 123.78635752 344.71582102 96.0625 374.75 C94.24942906 376.72789558 92.52960986 378.75196817 90.8125 380.8125 C81.79380192 391.12255901 71.1068418 400.03918482 60 408 C59.37770508 408.45165527 58.75541016 408.90331055 58.11425781 409.36865234 C48.58327791 416.21977811 38.59135565 422.0226425 28.1875 427.4375 C26.52533447 428.30616699 26.52533447 428.30616699 24.82958984 429.19238281 C5.62799843 439 5.62799843 439 0 439 C0 397.75 0 356.5 0 314 C6.6 312.02 13.2 310.04 20 308 C46.88343529 299.33387203 71.94625132 287.38456853 95 271 C95.59506348 270.57750977 96.19012695 270.15501953 96.80322266 269.71972656 C109.69384465 260.44863882 121.98677265 249.34424181 132 237 C132.66092651 236.30982788 132.66092651 236.30982788 133.33520508 235.60571289 C138.12439607 230.05886189 137.64880767 224.3521485 137.4375 217.3125 C137.41647217 216.11077148 137.39544434 214.90904297 137.3737793 213.67089844 C136.27345024 166.04282223 120.57227525 119.93166804 90 83 C89.5241748 82.42266113 89.04834961 81.84532227 88.55810547 81.25048828 C64.25873958 51.93458122 34.48925167 32.3285563 0 17 C0 11.39 0 5.78 0 0 Z " fill="#CE1226" transform="translate(334,35)"/>
<path d="M0 0 C0 5.28 0 10.56 0 16 C-2.083125 16.94875 -4.16625 17.8975 -6.3125 18.875 C-26.17399499 28.11114996 -44.38138533 38.6180064 -61 53 C-62.18916016 54.02287109 -62.18916016 54.02287109 -63.40234375 55.06640625 C-65.97902981 57.33405702 -68.49677349 59.65142686 -71 62 C-71.52464844 62.49064941 -72.04929687 62.98129883 -72.58984375 63.48681641 C-111.31856271 100.01300718 -135.01726015 153.3553163 -136.89013672 206.46875 C-136.96908301 208.28767256 -137.07555822 210.10547778 -137.19970703 211.921875 C-138.64795031 224.77435389 -138.64795031 224.77435389 -135.015625 236.6953125 C-132.50251871 239.42926753 -129.90594718 241.69572471 -127 244 C-125.75909035 245.38822085 -124.54710956 246.80321976 -123.375 248.25 C-119.8864758 252.23803575 -116.09746555 255.64752819 -112 259 C-110.9790625 259.8353125 -109.958125 260.670625 -108.90625 261.53125 C-78.91305927 285.73280088 -44.06973333 301.8678775 -7 312 C-4.69 312.66 -2.38 313.32 0 314 C0 354.59 0 395.18 0 437 C-7.88708087 435.87327416 -7.88708087 435.87327416 -11.42578125 434.28515625 C-12.60660278 433.7586145 -12.60660278 433.7586145 -13.8112793 433.22143555 C-15.04938354 432.64776245 -15.04938354 432.64776245 -16.3125 432.0625 C-17.18624268 431.66135986 -18.05998535 431.26021973 -18.96020508 430.84692383 C-43.7702765 419.27635779 -65.15554638 403.8120832 -85 385 C-85.75265137 384.29037109 -85.75265137 384.29037109 -86.52050781 383.56640625 C-94.52034093 375.97299552 -101.41517358 367.83778825 -108 359 C-108.41991211 358.44618652 -108.83982422 357.89237305 -109.27246094 357.32177734 C-120.52162467 342.45022482 -129.67612652 326.13495971 -137 309 C-137.33628418 308.21463867 -137.67256836 307.42927734 -138.01904297 306.62011719 C-143.96206239 292.4897441 -148.06146583 278.03912637 -151 263 C-151.13170593 262.3417926 -151.26341187 261.68358521 -151.39910889 261.00543213 C-154.12487242 247.05091189 -154.5585167 233.315169 -154.5 219.125 C-154.49856995 218.00470398 -154.49713989 216.88440796 -154.4956665 215.73016357 C-154.43963668 197.97187335 -153.33596024 181.28301586 -149 164 C-148.78069824 163.06816895 -148.56139648 162.13633789 -148.33544922 161.17626953 C-141.58915138 132.87213903 -128.38353778 105.29122444 -111 82 C-110.54625 81.39075684 -110.0925 80.78151367 -109.625 80.15380859 C-103.23427767 71.65024448 -96.36624229 63.66969202 -89 56 C-88.5138623 55.49194824 -88.02772461 54.98389648 -87.52685547 54.46044922 C-80.75941964 47.42857435 -73.76928883 40.93326286 -66 35 C-65.06124023 34.27925293 -65.06124023 34.27925293 -64.10351562 33.54394531 C-20.08884346 0 -20.08884346 0 0 0 Z " fill="#016847" transform="translate(178,36)"/>
<path d="M0 0 C1.08087891 0.39251953 1.08087891 0.39251953 2.18359375 0.79296875 C6.69417965 2.49029941 6.69417965 2.49029941 8.125 4.875 C8.41375 5.57625 8.7025 6.2775 9 7 C9.7425 7.721875 10.485 8.44375 11.25 9.1875 C16.60769732 14.66696317 22.46035912 22.3637305 23.36328125 30.12109375 C22.99760766 54.00239234 22.99760766 54.00239234 19 58 C18.67 52.72 18.34 47.44 18 42 C18 46.29 18 50.58 18 55 C17.01 55.495 17.01 55.495 16 56 C15.01 49.07 15.01 49.07 14 42 C14 45.63 14 49.26 14 53 C13.67 53 13.34 53 13 53 C12.71125 52.05125 12.4225 51.1025 12.125 50.125 C11.23174891 46.94788422 11.23174891 46.94788422 9 45 C8.29289322 43.35008418 7.62056011 41.68437744 7 40 C7.495 42.475 7.495 42.475 8 45 C5.27573689 42.64722731 4.1858237 40.37503669 3 37 C3 37.99 3 38.98 3 40 C2.505 40.99 2.505 40.99 2 42 C1.443125 41.236875 0.88625 40.47375 0.3125 39.6875 C-1.96679369 37.03859112 -3.93599872 35.61711178 -7 34 C-6.505 34.8353125 -6.505 34.8353125 -6 35.6875 C-4.8690399 38.30284522 -4.84337026 40.1806646 -5 43 C-4.42024414 43.27183105 -3.84048828 43.54366211 -3.24316406 43.82373047 C-1.00998053 44.99476641 0.88306937 46.29845581 2.890625 47.8203125 C3.59960938 48.35527344 4.30859375 48.89023438 5.0390625 49.44140625 C5.76867187 49.99699219 6.49828125 50.55257812 7.25 51.125 C7.99507813 51.68832031 8.74015625 52.25164062 9.5078125 52.83203125 C11.34074811 54.21848254 13.17137013 55.60787768 15 57 C14 59 14 59 11.5625 60.125 C7.1035631 61.22017748 2.54521824 61.92312522 -2 61 C-3.80078125 58.9765625 -3.80078125 58.9765625 -5 57 C-5.556875 57.680625 -6.11375 58.36125 -6.6875 59.0625 C-9 61 -9 61 -11.4375 61.1875 C-15.21455365 59.43715806 -16.86577332 56.4783354 -19 53 C-19.495 53.99 -19.495 53.99 -20 55 C-21.41623216 55.05447047 -22.83308191 55.09300508 -24.25 55.125 C-25.03890625 55.14820313 -25.8278125 55.17140625 -26.640625 55.1953125 C-29.24614317 54.97962391 -30.79986977 54.3921178 -33 53 C-33.33 52.34 -33.66 51.68 -34 51 C-36.30163882 54.45245824 -36.34490322 55.94738713 -36 60 C-35.34 60.66 -34.68 61.32 -34 62 C-32.515 61.505 -32.515 61.505 -31 61 C-31 60.34 -31 59.68 -31 59 C-30.40832031 59.2165625 -29.81664062 59.433125 -29.20703125 59.65625 C-23.26339098 61.77760794 -23.26339098 61.77760794 -17 62 C-17 62.99 -17 63.98 -17 65 C-15.35 65.66 -13.7 66.32 -12 67 C-11.505 65.515 -11.505 65.515 -11 64 C-7.33333333 64 -3.66666667 64 0 64 C0.66 64.66 1.32 65.32 2 66 C2.721875 65.484375 3.44375 64.96875 4.1875 64.4375 C7.4195366 62.78557018 8.61608307 62.93648325 12 64 C12 63.01 12 62.02 12 61 C12.99 61 13.98 61 15 61 C15.495 60.01 15.495 60.01 16 59 C16.66 59 17.32 59 18 59 C16.52307692 64.66153846 16.52307692 64.66153846 13.875 66.375 C13.25625 66.58125 12.6375 66.7875 12 67 C12.33 68.32 12.66 69.64 13 71 C11.13807717 72.99267584 9.61007042 73.92846769 6.88867188 74.24755859 C4.33688446 74.29513603 1.80115255 74.26098224 -0.75 74.1875 C-2.08224609 74.16719727 -2.08224609 74.16719727 -3.44140625 74.14648438 C-5.62822578 74.11121309 -7.81379966 74.06192752 -10 74 C-9.67475342 74.61657471 -9.34950684 75.23314941 -9.0144043 75.8684082 C-7.38073242 79.30128165 -7.81474342 82.2331162 -8 86 C-9 87 -9 87 -11.04125977 87.11352539 C-11.91580811 87.10828857 -12.79035645 87.10305176 -13.69140625 87.09765625 C-14.63564453 87.09443359 -15.57988281 87.09121094 -16.55273438 87.08789062 C-17.54595703 87.07951172 -18.53917969 87.07113281 -19.5625 87.0625 C-20.55958984 87.05798828 -21.55667969 87.05347656 -22.58398438 87.04882812 C-25.05604849 87.03700007 -27.52799518 87.02051849 -30 87 C-30.89445704 82.92212105 -31.08196118 79.18001995 -31 75 C-27.18243176 73.62567543 -23.92744671 74.32024961 -20 75 C-20.33 74.01 -20.66 73.02 -21 72 C-21.60328125 72.03480469 -22.2065625 72.06960938 -22.828125 72.10546875 C-23.62734375 72.13253906 -24.4265625 72.15960938 -25.25 72.1875 C-26.03890625 72.22230469 -26.8278125 72.25710938 -27.640625 72.29296875 C-30 72 -30 72 -31.94921875 70.52734375 C-34.56032399 68.58269204 -36.33998875 68.54160602 -39.5625 68.375 C-42.68363828 68.19713323 -45.01731176 67.99422941 -48 67 C-48.33 66.34 -48.66 65.68 -49 65 C-51.02463255 64.34786708 -51.02463255 64.34786708 -53 64 C-53 63.34 -53 62.68 -53 62 C-53.928125 61.62875 -53.928125 61.62875 -54.875 61.25 C-57.46047584 59.72913186 -57.98905579 58.79953781 -59 56 C-59.38290462 54.00889599 -59.72604615 52.00899487 -60 50 C-60.66 50 -61.32 50 -62 50 C-61.505 47.03 -61.505 47.03 -61 44 C-61.66 44 -62.32 44 -63 44 C-63 43.34 -63 42.68 -63 42 C-62.01 42 -61.02 42 -60 42 C-60 42.99 -60 43.98 -60 45 C-59.01 45 -58.02 45 -57 45 C-56.7525 45.969375 -56.505 46.93875 -56.25 47.9375 C-55.8375 48.948125 -55.425 49.95875 -55 51 C-53.10820797 51.6814823 -53.10820797 51.6814823 -51 52 C-48.75 53.875 -48.75 53.875 -47 56 C-47 56.99 -47 57.98 -47 59 C-45.02 58.34 -43.04 57.68 -41 57 C-41 56.34 -41 55.68 -41 55 C-40.01 55 -39.02 55 -38 55 C-38 54.01 -38 53.02 -38 52 C-38.99 52.495 -38.99 52.495 -40 53 C-41.875 53.16796875 -41.875 53.16796875 -44 53.1875 C-44.70125 53.20167969 -45.4025 53.21585937 -46.125 53.23046875 C-48 53 -48 53 -50 51 C-50.28875 50.05125 -50.5775 49.1025 -50.875 48.125 C-51.72589208 44.9065082 -51.72589208 44.9065082 -54.1875 43.25 C-56.49025837 40.3914034 -56.11617051 39.32141653 -55.75 35.75 C-55.52074143 34.16353067 -55.27719381 32.57879955 -55 31 C-56.65 31 -58.3 31 -60 31 C-60.33 29.68 -60.66 28.36 -61 27 C-58.3125 26.6875 -58.3125 26.6875 -55 27 C-52.125 29.5 -52.125 29.5 -50 32 C-49.60167969 31.51789063 -49.20335937 31.03578125 -48.79296875 30.5390625 C-48.26316406 29.90742188 -47.73335937 29.27578125 -47.1875 28.625 C-46.66542969 27.99851563 -46.14335937 27.37203125 -45.60546875 26.7265625 C-44 25 -44 25 -41 23 C-43.85356533 20.8514464 -43.85356533 20.8514464 -47.0625 20.25 C-50 19 -50 19 -51.4375 16.125 C-52.27596439 11.46686449 -52.27596439 11.46686449 -51 9 C-48.4375 7.25 -48.4375 7.25 -46 6 C-45.67 6.66 -45.34 7.32 -45 8 C-45.9375 10.125 -45.9375 10.125 -47 12 C-46.01 12.33 -45.02 12.66 -44 13 C-44.33 13.33 -44.66 13.66 -45 14 C-44.34 14.33 -43.68 14.66 -43 15 C-42.731875 14.46375 -42.46375 13.9275 -42.1875 13.375 C-41.795625 12.59125 -41.40375 11.8075 -41 11 C-40.54625 9.948125 -40.0925 8.89625 -39.625 7.8125 C-38 5 -38 5 -35.9375 4.25 C-35.298125 4.1675 -34.65875 4.085 -34 4 C-33.34 3.34 -32.68 2.68 -32 2 C-31.01 2 -30.02 2 -29 2 C-29 2.66 -29 3.32 -29 4 C-26.03 4.99 -23.06 5.98 -20 7 C-20.99 6.34 -21.98 5.68 -23 5 C-23.99 4.34 -24.98 3.68 -26 3 C-25.8125 0.625 -25.8125 0.625 -25 -2 C-17.20852191 -7.1131575 -7.70260555 -3.19489672 0 0 Z " fill="#A87B5B" transform="translate(276,204)"/>
<path d="M0 0 C0.33 0 0.66 0 1 0 C1.18417377 6.89943272 0.53954337 13.32875841 -0.625 20.125 C-0.80393799 21.16978516 -0.98287598 22.21457031 -1.16723633 23.29101562 C-10.41794273 75.19797386 -34.90978232 119.90978232 -72 157 C-72.72058594 157.75539063 -73.44117188 158.51078125 -74.18359375 159.2890625 C-80.9277242 166.27864657 -88.23677312 172.18968029 -96 178 C-96.56734863 178.42812988 -97.13469727 178.85625977 -97.71923828 179.29736328 C-149.25773407 217.9772797 -215.21640005 233.78447642 -278.84375 224.96484375 C-340.19355689 215.65281949 -397.45455438 184.00967313 -436 135 C-436.79148437 134.02546875 -437.58296875 133.0509375 -438.3984375 132.046875 C-465.48749741 98.03600483 -489.12682086 48.30659641 -488 4 C-487.67 4 -487.34 4 -487 4 C-486.91548584 4.56581787 -486.83097168 5.13163574 -486.74389648 5.71459961 C-483.2215608 28.74703038 -477.36354796 50.64470039 -468 72 C-467.68981934 72.72058594 -467.37963867 73.44117188 -467.06005859 74.18359375 C-456.753066 97.94799761 -441.96470394 118.58256778 -425 138 C-424.2059375 138.9178125 -423.411875 139.835625 -422.59375 140.78125 C-418.65151995 145.26351156 -414.62936105 149.40593643 -410.05859375 153.24609375 C-408.64368016 154.45158939 -407.26189086 155.69671984 -405.91015625 156.97265625 C-394.33940666 167.87091783 -380.84222874 177.23442695 -367 185 C-366.21625 185.44166504 -365.4325 185.88333008 -364.625 186.33837891 C-307.22543825 218.31599934 -240.87938298 226.42818705 -177.44140625 209.28125 C-136.06758228 197.46015744 -100.79745949 175.65962232 -70 146 C-69.2059375 145.2471875 -68.411875 144.494375 -67.59375 143.71875 C-62.24363918 138.53848397 -57.6163907 132.83406971 -53 127 C-51.82630859 125.55173828 -51.82630859 125.55173828 -50.62890625 124.07421875 C-22.04667166 88.08346896 -6.26042066 45.23460813 0 0 Z " fill="#020202" transform="translate(500,281)"/>
<path d="M0 0 C0.33 0.66 0.66 1.32 1 2 C0.0625 4.125 0.0625 4.125 -1 6 C-0.01 6.33 0.98 6.66 2 7 C1.67 7.33 1.34 7.66 1 8 C1.66 8.33 2.32 8.66 3 9 C3.33 8.01 3.66 7.02 4 6 C7.18208557 5.91160873 9.97380078 5.95648303 13 7 C15 9 15 9 15.3125 11.625 C15.03596696 14.61155687 14.58412417 16.2030501 13.4375 18.875 C11.62001149 23.27434134 12.0923953 26.37946696 13 31 C13.66 31 14.32 31 15 31 C15.268125 31.969375 15.53625 32.93875 15.8125 33.9375 C16.204375 34.948125 16.59625 35.95875 17 37 C17.99 37.33 18.98 37.66 20 38 C20.495 42.455 20.495 42.455 21 47 C18.36 47 15.72 47 13 47 C12.67 46.34 12.34 45.68 12 45 C9.69836118 48.45245824 9.65509678 49.94738713 10 54 C10.66 54.66 11.32 55.32 12 56 C13.485 55.505 13.485 55.505 15 55 C15 54.34 15 53.68 15 53 C15.59167969 53.2165625 16.18335938 53.433125 16.79296875 53.65625 C22.73660902 55.77760794 22.73660902 55.77760794 29 56 C29 56.99 29 57.98 29 59 C30.65 59.66 32.3 60.32 34 61 C34.33 60.01 34.66 59.02 35 58 C38.66666667 58 42.33333333 58 46 58 C46.66 58.66 47.32 59.32 48 60 C48.721875 59.484375 49.44375 58.96875 50.1875 58.4375 C53.4195366 56.78557018 54.61608307 56.93648325 58 58 C58 57.01 58 56.02 58 55 C58.99 55 59.98 55 61 55 C61.495 54.01 61.495 54.01 62 53 C62.66 53 63.32 53 64 53 C62.52307692 58.66153846 62.52307692 58.66153846 59.875 60.375 C59.25625 60.58125 58.6375 60.7875 58 61 C58.495 62.98 58.495 62.98 59 65 C57.13807717 66.99267584 55.61007042 67.92846769 52.88867188 68.24755859 C50.33688446 68.29513603 47.80115255 68.26098224 45.25 68.1875 C43.91775391 68.16719727 43.91775391 68.16719727 42.55859375 68.14648438 C40.37177422 68.11121309 38.18620034 68.06192752 36 68 C36.32524658 68.61657471 36.65049316 69.23314941 36.9855957 69.8684082 C38.61926758 73.30128165 38.18525658 76.2331162 38 80 C37 81 37 81 34.95874023 81.11352539 C34.08419189 81.10828857 33.20964355 81.10305176 32.30859375 81.09765625 C31.36435547 81.09443359 30.42011719 81.09121094 29.44726562 81.08789062 C28.45404297 81.07951172 27.46082031 81.07113281 26.4375 81.0625 C25.44041016 81.05798828 24.44332031 81.05347656 23.41601562 81.04882812 C20.94395151 81.03700007 18.47200482 81.02051849 16 81 C15.10554296 76.92212105 14.91803882 73.18001995 15 69 C18.81756824 67.62567543 22.07255329 68.32024961 26 69 C25.67 68.01 25.34 67.02 25 66 C24.39671875 66.03480469 23.7934375 66.06960938 23.171875 66.10546875 C22.37265625 66.13253906 21.5734375 66.15960938 20.75 66.1875 C19.96109375 66.22230469 19.1721875 66.25710938 18.359375 66.29296875 C16 66 16 66 14.05078125 64.52734375 C11.43967601 62.58269204 9.66001125 62.54160602 6.4375 62.375 C3.31636172 62.19713323 0.98268824 61.99422941 -2 61 C-2.33 60.34 -2.66 59.68 -3 59 C-5.02463255 58.34786708 -5.02463255 58.34786708 -7 58 C-7 57.34 -7 56.68 -7 56 C-7.61875 55.7525 -8.2375 55.505 -8.875 55.25 C-11.46047584 53.72913186 -11.98905579 52.79953781 -13 50 C-13.38290462 48.00889599 -13.72604615 46.00899487 -14 44 C-14.66 44 -15.32 44 -16 44 C-15.505 41.03 -15.505 41.03 -15 38 C-15.66 38 -16.32 38 -17 38 C-17 37.34 -17 36.68 -17 36 C-16.01 36 -15.02 36 -14 36 C-14 36.99 -14 37.98 -14 39 C-13.01 39 -12.02 39 -11 39 C-10.7525 39.969375 -10.505 40.93875 -10.25 41.9375 C-9.8375 42.948125 -9.425 43.95875 -9 45 C-7.10820797 45.6814823 -7.10820797 45.6814823 -5 46 C-2.75 47.875 -2.75 47.875 -1 50 C-1 50.99 -1 51.98 -1 53 C0.98 52.34 2.96 51.68 5 51 C5 50.34 5 49.68 5 49 C5.99 49 6.98 49 8 49 C8 48.01 8 47.02 8 46 C7.01 46.495 7.01 46.495 6 47 C4.125 47.16796875 4.125 47.16796875 2 47.1875 C1.29875 47.20167969 0.5975 47.21585937 -0.125 47.23046875 C-2 47 -2 47 -4 45 C-4.28875 44.05125 -4.5775 43.1025 -4.875 42.125 C-5.72589208 38.9065082 -5.72589208 38.9065082 -8.1875 37.25 C-10.49025837 34.3914034 -10.11617051 33.32141653 -9.75 29.75 C-9.52074143 28.16353067 -9.27719381 26.57879955 -9 25 C-10.65 25 -12.3 25 -14 25 C-14.33 23.68 -14.66 22.36 -15 21 C-12.3125 20.6875 -12.3125 20.6875 -9 21 C-6.125 23.5 -6.125 23.5 -4 26 C-3.60167969 25.51789063 -3.20335937 25.03578125 -2.79296875 24.5390625 C-1.99826172 23.59160156 -1.99826172 23.59160156 -1.1875 22.625 C-0.66542969 21.99851563 -0.14335937 21.37203125 0.39453125 20.7265625 C2 19 2 19 5 17 C2.14643467 14.8514464 2.14643467 14.8514464 -1.0625 14.25 C-4 13 -4 13 -5.4375 10.125 C-6.27596439 5.46686449 -6.27596439 5.46686449 -5 3 C-2.4375 1.25 -2.4375 1.25 0 0 Z " fill="#499697" transform="translate(230,210)"/>
<path d="M0 0 C1.67334039 0.98879205 3.34151823 1.98648336 5 3 C5.66 2.67 6.32 2.34 7 2 C7 2.66 7 3.32 7 4 C7.721875 3.731875 8.44375 3.46375 9.1875 3.1875 C12 3 12 3 14.4375 4.875 C23.28663705 14.89657793 26.78858821 23.6741958 26 37 C24.78688946 51.21311054 24.78688946 51.21311054 22 54 C21.67 48.72 21.34 43.44 21 38 C21 42.29 21 46.58 21 51 C20.01 51.495 20.01 51.495 19 52 C18.34 47.38 17.68 42.76 17 38 C17 41.63 17 45.26 17 49 C16.67 49 16.34 49 16 49 C15.71125 48.05125 15.4225 47.1025 15.125 46.125 C14.23174891 42.94788422 14.23174891 42.94788422 12 41 C11.32497297 39.28974245 10.70715455 37.55655804 10.125 35.8125 C8.49899632 31.16677521 6.59594401 27.17205288 4 23 C2.63106761 22.94729537 2.63106761 22.94729537 0 24 C-0.66 23.34 -1.32 22.68 -2 22 C-1.625 19.375 -1.625 19.375 -1 17 C-1.66 17.33 -2.32 17.66 -3 18 C-3 18.99 -3 19.98 -3 21 C-3.99 21 -4.98 21 -6 21 C-6 21.99 -6 22.98 -6 24 C-6.33 24.33 -6.66 24.66 -7 25 C-6.34 25.33 -5.68 25.66 -5 26 C-5.99 28.31 -6.98 30.62 -8 33 C-8.99 32.67 -9.98 32.34 -11 32 C-11.33 32.66 -11.66 33.32 -12 34 C-14.0625 35.125 -14.0625 35.125 -16 36 C-18.75431135 31.86853297 -18.52707218 28.30236028 -18.75 23.4375 C-18.80542969 22.56158203 -18.86085937 21.68566406 -18.91796875 20.78320312 C-18.96050781 19.94595703 -19.00304687 19.10871094 -19.046875 18.24609375 C-19.08651367 17.47966553 -19.12615234 16.7132373 -19.16699219 15.92358398 C-19 14 -19 14 -17 12 C-16 13 -16 13 -15.9375 16.0625 C-15.958125 17.031875 -15.97875 18.00125 -16 19 C-14.35 19.33 -12.7 19.66 -11 20 C-11 20.66 -11 21.32 -11 22 C-10.34 22 -9.68 22 -9 22 C-9 21.34 -9 20.68 -9 20 C-7 18 -7 18 -5 17 C-5.33 15.68 -5.66 14.36 -6 13 C-5.01 13 -4.02 13 -3 13 C-3 12.01 -3 11.02 -3 10 C-3.66 9.67 -4.32 9.34 -5 9 C-4.67 7.68 -4.34 6.36 -4 5 C-4.99 4.67 -5.98 4.34 -7 4 C-6.34 4 -5.68 4 -5 4 C-5 3.01 -5 2.02 -5 1 C-5.99 0.67 -6.98 0.34 -8 0 C-5.05401654 -1.47299173 -3.16265296 -0.74415364 0 0 Z " fill="#81624F" transform="translate(273,208)"/>
<path d="M0 0 C0.33 0.66 0.66 1.32 1 2 C0.0625 4.125 0.0625 4.125 -1 6 C-0.01 6.33 0.98 6.66 2 7 C1.67 7.33 1.34 7.66 1 8 C1.66 8.33 2.32 8.66 3 9 C3.33 8.01 3.66 7.02 4 6 C7.18208557 5.91160873 9.97380078 5.95648303 13 7 C15 9 15 9 15.3125 11.625 C15.03596696 14.61155687 14.58412417 16.2030501 13.4375 18.875 C11.62001149 23.27434134 12.0923953 26.37946696 13 31 C13.66 31 14.32 31 15 31 C15.268125 31.969375 15.53625 32.93875 15.8125 33.9375 C16.204375 34.948125 16.59625 35.95875 17 37 C17.99 37.33 18.98 37.66 20 38 C20.495 42.455 20.495 42.455 21 47 C18.36 47 15.72 47 13 47 C12.67 46.34 12.34 45.68 12 45 C9.5705484 48.6441774 9.83820425 50.71241272 10 55 C7.525 55.495 7.525 55.495 5 56 C5 53.69 5 51.38 5 49 C5.99 49 6.98 49 8 49 C8 48.01 8 47.02 8 46 C7.01 46.495 7.01 46.495 6 47 C4.125 47.16796875 4.125 47.16796875 2 47.1875 C1.29875 47.20167969 0.5975 47.21585937 -0.125 47.23046875 C-2 47 -2 47 -4 45 C-4.28875 44.05125 -4.5775 43.1025 -4.875 42.125 C-5.72589208 38.9065082 -5.72589208 38.9065082 -8.1875 37.25 C-10.49025837 34.3914034 -10.11617051 33.32141653 -9.75 29.75 C-9.52074143 28.16353067 -9.27719381 26.57879955 -9 25 C-10.65 25 -12.3 25 -14 25 C-14.33 23.68 -14.66 22.36 -15 21 C-12.3125 20.6875 -12.3125 20.6875 -9 21 C-6.125 23.5 -6.125 23.5 -4 26 C-3.60167969 25.51789063 -3.20335937 25.03578125 -2.79296875 24.5390625 C-1.99826172 23.59160156 -1.99826172 23.59160156 -1.1875 22.625 C-0.66542969 21.99851563 -0.14335937 21.37203125 0.39453125 20.7265625 C2 19 2 19 5 17 C2.14643467 14.8514464 2.14643467 14.8514464 -1.0625 14.25 C-4 13 -4 13 -5.4375 10.125 C-6.27596439 5.46686449 -6.27596439 5.46686449 -5 3 C-2.4375 1.25 -2.4375 1.25 0 0 Z " fill="#C2C19D" transform="translate(230,210)"/>
<path d="M0 0 C0.7321875 0.26167969 1.464375 0.52335938 2.21875 0.79296875 C4.125 1.5 4.125 1.5 7 3 C7.9375 5.1875 7.9375 5.1875 8 7 C3.47976617 8.4529323 1.11692317 7.56985876 -3.0625 5.4375 C-5.90404688 3.78022357 -5.90404688 3.78022357 -9 4 C-8.690625 4.66 -8.38125 5.32 -8.0625 6 C-6.75039745 9.70476015 -6.39735865 13.09263991 -6 17 C-6.99 17.495 -6.99 17.495 -8 18 C-8.65555119 20.52733235 -8.65555119 20.52733235 -9 23 C-9.99 23.33 -10.98 23.66 -12 24 C-12 24.66 -12 25.32 -12 26 C-12.66 26 -13.32 26 -14 26 C-14.66 25.34 -15.32 24.68 -16 24 C-16.99 23.67 -17.98 23.34 -19 23 C-19.33 21.02 -19.66 19.04 -20 17 C-20.99 17.66 -21.98 18.32 -23 19 C-23.33 19 -23.66 19 -24 19 C-23.814375 19.886875 -23.62875 20.77375 -23.4375 21.6875 C-23.01006578 24.92378767 -23.37152239 26.85761193 -24 30 C-23.61666338 33.22111592 -23.61666338 33.22111592 -23 36 C-23.66 35.67 -24.32 35.34 -25 35 C-25.33 35.99 -25.66 36.98 -26 38 C-29.875 36.125 -29.875 36.125 -31 35 C-31.04092937 32.66702567 -31.04241723 30.33294775 -31 28 C-30.34 28.33 -29.68 28.66 -29 29 C-29 29.99 -29 30.98 -29 32 C-28.34 32 -27.68 32 -27 32 C-27.33 30.02 -27.66 28.04 -28 26 C-28.99 26 -29.98 26 -31 26 C-31.66 26.66 -32.32 27.32 -33 28 C-32.67 23.71 -32.34 19.42 -32 15 C-35.00419641 13.9986012 -37.87709365 13.48578543 -41 13 C-40.690625 12.236875 -40.38125 11.47375 -40.0625 10.6875 C-39.32106407 8.81210323 -38.63771783 6.91315348 -38 5 C-36.0625 4.4375 -36.0625 4.4375 -34 4 C-33.34 3.34 -32.68 2.68 -32 2 C-31.01 2 -30.02 2 -29 2 C-29 2.66 -29 3.32 -29 4 C-26.03 4.99 -23.06 5.98 -20 7 C-20.99 6.34 -21.98 5.68 -23 5 C-23.99 4.34 -24.98 3.68 -26 3 C-25.8125 0.625 -25.8125 0.625 -25 -2 C-17.20591211 -7.11487017 -7.70560467 -3.19132724 0 0 Z " fill="#9E6B4E" transform="translate(276,204)"/>
<path d="M0 0 C3.93673644 1.31224548 6.22719294 2.91910327 9 6 C8.505 3.525 8.505 3.525 8 1 C11.875 3.75 11.875 3.75 13 6 C13.33 5.01 13.66 4.02 14 3 C14.99 5.64 15.98 8.28 17 11 C17.66 11 18.32 11 19 11 C19.495 12.485 19.495 12.485 20 14 C20 10.04 20 6.08 20 2 C22.44019371 5.66029057 22.67122213 8.93428668 23.125 13.1875 C23.41375 15.765625 23.7025 18.34375 24 21 C24 14.73 24 8.46 24 2 C24.66 2.33 25.32 2.66 26 3 C26.22523024 6.62415933 26.42731308 10.24924219 26.625 13.875 C26.68945312 14.90753906 26.75390625 15.94007813 26.8203125 17.00390625 C26.871875 17.99003906 26.9234375 18.97617187 26.9765625 19.9921875 C27.02893066 20.90339355 27.08129883 21.81459961 27.13525391 22.75341797 C27 25 27 25 25 27 C25 26.34 25 25.68 25 25 C24.34 25 23.68 25 23 25 C22.505 26.485 22.505 26.485 22 28 C21.01 27.67 20.02 27.34 19 27 C19 27.99 19 28.98 19 30 C16 31 16 31 13 30 C10.30566683 31.87197454 10.30566683 31.87197454 8 34 C7.34 32.68 6.68 31.36 6 30 C5.46375 30.165 4.9275 30.33 4.375 30.5 C1.54113991 31.09660212 -1.1119806 31.0656368 -4 31 C-4.33 31.66 -4.66 32.32 -5 33 C-6.65 32.34 -8.3 31.68 -10 31 C-10 30.01 -10 29.02 -10 28 C-10.639375 28.2475 -11.27875 28.495 -11.9375 28.75 C-16.54844669 29.12640381 -19.95242713 27.05465028 -24 25 C-24 25.66 -24 26.32 -24 27 C-24.66 27 -25.32 27 -26 27 C-26.33 27.66 -26.66 28.32 -27 29 C-28.5 28 -28.5 28 -30 26 C-30.27345479 23.28153765 -30.13491285 20.74322801 -30 18 C-28.68 17.34 -27.36 16.68 -26 16 C-26 16.99 -26 17.98 -26 19 C-25.09507812 19.09087891 -25.09507812 19.09087891 -24.171875 19.18359375 C-23.37265625 19.26738281 -22.5734375 19.35117187 -21.75 19.4375 C-20.56664062 19.55931641 -20.56664062 19.55931641 -19.359375 19.68359375 C-17.17635361 19.97634993 -15.1226818 20.42064419 -13 21 C-12.67 20.01 -12.34 19.02 -12 18 C-7 23.75 -7 23.75 -7 26 C-6.01 25.67 -5.02 25.34 -4 25 C-3.01 25 -2.02 25 -1 25 C0.68798827 23.56249809 0.68798827 23.56249809 2 22 C2.39574219 22.65226562 2.79148437 23.30453125 3.19921875 23.9765625 C4.814183 26.19847518 4.814183 26.19847518 7.26953125 26.4609375 C12.20069493 26.29429295 16.38130771 25.94471254 21 24 C17.80233485 20.564794 14.62315542 17.99179684 10.68212891 15.46044922 C2.6424981 10.25537093 2.6424981 10.25537093 0.64453125 6.3515625 C0.125 3.875 0.125 3.875 0 0 Z " fill="#F4F2F1" transform="translate(269,238)"/>
<path d="M0 0 C0.99 0 1.98 0 3 0 C3 0.99 3 1.98 3 3 C3.99 3 4.98 3 6 3 C6.2475 3.969375 6.495 4.93875 6.75 5.9375 C7.1625 6.948125 7.575 7.95875 8 9 C9.89179203 9.6814823 9.89179203 9.6814823 12 10 C14.25 11.875 14.25 11.875 16 14 C16 14.99 16 15.98 16 17 C17.98 16.67 19.96 16.34 22 16 C22 17.32 22 18.64 22 20 C23.36125 19.7525 23.36125 19.7525 24.75 19.5 C28 19 28 19 32 19 C32 18.34 32 17.68 32 17 C32.59167969 17.2165625 33.18335938 17.433125 33.79296875 17.65625 C39.73660902 19.77760794 39.73660902 19.77760794 46 20 C46 20.99 46 21.98 46 23 C48.475 23.99 48.475 23.99 51 25 C48 27 48 27 46 27 C45.34 28.32 44.68 29.64 44 31 C44 30.34 44 29.68 44 29 C43.01 29.495 43.01 29.495 42 30 C39.9765625 30.203125 39.9765625 30.203125 37.625 30.25 C36.85414063 30.27578125 36.08328125 30.3015625 35.2890625 30.328125 C33 30 33 30 31.05859375 28.5234375 C28.4422109 26.5872149 26.65968738 26.54158928 23.4375 26.375 C20.31636172 26.19713323 17.98268824 25.99422941 15 25 C14.67 24.34 14.34 23.68 14 23 C11.97536745 22.34786708 11.97536745 22.34786708 10 22 C10 21.34 10 20.68 10 20 C9.38125 19.7525 8.7625 19.505 8.125 19.25 C5.53952416 17.72913186 5.01094421 16.79953781 4 14 C3.61709538 12.00889599 3.27395385 10.00899487 3 8 C2.34 8 1.68 8 1 8 C1.33 6.02 1.66 4.04 2 2 C1.34 2 0.68 2 0 2 C0 1.34 0 0.68 0 0 Z " fill="#7AADAE" transform="translate(213,246)"/>
<path d="M0 0 C0.99 0 1.98 0 3 0 C3.12375 1.670625 3.12375 1.670625 3.25 3.375 C3.4975 4.57125 3.745 5.7675 4 7 C5.82904858 8.1129036 5.82904858 8.1129036 8 9 C9.31779693 9.91054481 10.61416371 10.85267249 11.890625 11.8203125 C12.59960938 12.35527344 13.30859375 12.89023438 14.0390625 13.44140625 C14.76867187 13.99699219 15.49828125 14.55257812 16.25 15.125 C17.36761719 15.96998047 17.36761719 15.96998047 18.5078125 16.83203125 C20.34074811 18.21848254 22.17137013 19.60787768 24 21 C23 23 23 23 20.5625 24.125 C16.1035631 25.22017748 11.54521824 25.92312522 7 25 C5.19921875 22.9765625 5.19921875 22.9765625 4 21 C3.1646875 22.0209375 3.1646875 22.0209375 2.3125 23.0625 C0 25 0 25 -2.375 25.25 C-6.49098078 23.29000915 -8.52658552 19.73137099 -11 16 C-10.67 15.34 -10.34 14.68 -10 14 C-8.35 14.99 -6.7 15.98 -5 17 C-4.67 16.67 -4.34 16.34 -4 16 C-4 15.34 -4 14.68 -4 14 C-4.8971875 14.3403125 -4.8971875 14.3403125 -5.8125 14.6875 C-6.534375 14.790625 -7.25625 14.89375 -8 15 C-9.75 13.6875 -9.75 13.6875 -11 12 C-11 11.34 -11 10.68 -11 10 C-10.34 10 -9.68 10 -9 10 C-8.67 9.01 -8.34 8.02 -8 7 C-7.01 7.33 -6.02 7.66 -5 8 C-4.67 7.01 -4.34 6.02 -4 5 C-3.34 5.33 -2.68 5.66 -2 6 C-1.855625 5.38125 -1.71125 4.7625 -1.5625 4.125 C-1 2 -1 2 0 0 Z " fill="#745B4D" transform="translate(267,240)"/>
<path d="M0 0 C0.33 0.66 0.66 1.32 1 2 C0.67 2.66 0.34 3.32 0 4 C0.66 4.33 1.32 4.66 2 5 C1.34 5.66 0.68 6.32 0 7 C0 7.99 0 8.98 0 10 C0 10.66 0 11.32 0 12 C0.99 11.67 1.98 11.34 3 11 C3 12.32 3 13.64 3 15 C2.34 15 1.68 15 1 15 C0.67 16.65 0.34 18.3 0 20 C0.94875 20.0825 1.8975 20.165 2.875 20.25 C6 21 6 21 7.375 22.75 C8.07302263 25.26288146 8.14423717 27.40373089 8 30 C8.33 29.34 8.66 28.68 9 28 C9.66 28 10.32 28 11 28 C11 29.65 11 31.3 11 33 C12.65 33.33 14.3 33.66 16 34 C16 34.66 16 35.32 16 36 C17.485 36.495 17.485 36.495 19 37 C19.94921875 39.06640625 19.94921875 39.06640625 20.6875 41.5625 C20.93886719 42.38878906 21.19023437 43.21507812 21.44921875 44.06640625 C21.63097656 44.70449219 21.81273437 45.34257812 22 46 C20.54176788 46.0270043 19.08339325 46.04639787 17.625 46.0625 C16.40683594 46.07990234 16.40683594 46.07990234 15.1640625 46.09765625 C13 46 13 46 11 45 C9.55487596 41.3871899 9 38.93312158 9 35 C6.525 35.495 6.525 35.495 4 36 C4 33 4 33 5 32 C3.68 31.67 2.36 31.34 1 31 C1 30.34 1 29.68 1 29 C0.01 28.34 -0.98 27.68 -2 27 C-3.1875 24.375 -3.1875 24.375 -4 22 C-3.34 22 -2.68 22 -2 22 C-2.33 20.35 -2.66 18.7 -3 17 C-3.99 16.67 -4.98 16.34 -6 16 C-6 15.34 -6 14.68 -6 14 C-5.34 13.67 -4.68 13.34 -4 13 C-4.66 12.38125 -5.32 11.7625 -6 11.125 C-8 9 -8 9 -8 7 C-7.34 7 -6.68 7 -6 7 C-6 5.68 -6 4.36 -6 3 C-4.02 2.01 -2.04 1.02 0 0 Z " fill="#AAAE80" transform="translate(206,245)"/>
<path d="M0 0 C0.66 0.66 1.32 1.32 2 2 C4.10820797 1.6814823 4.10820797 1.6814823 6 1 C6.36783439 7.49840764 6.36783439 7.49840764 4.625 9.875 C0.72480082 12.57513789 -2.34579588 12.07506781 -7 12 C-7 12.66 -7 13.32 -7 14 C-6.01 14 -5.02 14 -4 14 C-4 14.99 -4 15.98 -4 17 C-4.763125 16.62875 -5.52625 16.2575 -6.3125 15.875 C-7.199375 15.58625 -8.08625 15.2975 -9 15 C-9.99 15.66 -10.98 16.32 -12 17 C-11.34 17.66 -10.68 18.32 -10 19 C-14.51767413 21.16848358 -17.88254225 22.6823277 -23 22 C-25.25 20.5 -25.25 20.5 -27 19 C-27.66 19 -28.32 19 -29 19 C-28.34 19.33 -27.68 19.66 -27 20 C-27.33 21.32 -27.66 22.64 -28 24 C-28.99 24 -29.98 24 -31 24 C-31 24.66 -31 25.32 -31 26 C-31.928125 25.814375 -32.85625 25.62875 -33.8125 25.4375 C-37.01343771 24.75876119 -37.01343771 24.75876119 -40 26 C-39 23 -39 23 -36 21 C-35.26656572 17.93443402 -35.26656572 17.93443402 -35 15 C-34.33613281 15.11859375 -33.67226563 15.2371875 -32.98828125 15.359375 C-27.29234552 16.36684859 -27.29234552 16.36684859 -22.25 14.0625 C-21.5075 13.381875 -20.765 12.70125 -20 12 C-16.6875 11.75 -16.6875 11.75 -14 12 C-14 12.66 -14 13.32 -14 14 C-12.68 14 -11.36 14 -10 14 C-10.33 12.02 -10.66 10.04 -11 8 C-10.34 8 -9.68 8 -9 8 C-9 8.99 -9 9.98 -9 11 C-6.76996879 10.17221913 -6.76996879 10.17221913 -6.1875 7.75 C-4.73169188 4.37865489 -2.67938535 2.46785493 0 0 Z " fill="#ADB184" transform="translate(292,279)"/>
<path d="M0 0 C1.32 0 2.64 0 4 0 C4 0.66 4 1.32 4 2 C6.64 2.66 9.28 3.32 12 4 C12 4.66 12 5.32 12 6 C10.68 6.33 9.36 6.66 8 7 C8.66 8.65 9.32 10.3 10 12 C10.66 12 11.32 12 12 12 C11.67 13.65 11.34 15.3 11 17 C10.01 16.67 9.02 16.34 8 16 C8.350625 17.051875 8.70125 18.10375 9.0625 19.1875 C9.99031592 22.96061808 9.83820438 24.36778103 9 28 C9.38333662 31.22111592 9.38333662 31.22111592 10 34 C9.34 33.67 8.68 33.34 8 33 C7.67 33.99 7.34 34.98 7 36 C3.125 34.125 3.125 34.125 2 33 C1.95907063 30.66702567 1.95758277 28.33294775 2 26 C2.66 26.33 3.32 26.66 4 27 C4 27.99 4 28.98 4 30 C4.66 30 5.32 30 6 30 C5.67 28.02 5.34 26.04 5 24 C4.01 24 3.02 24 2 24 C1.34 24.66 0.68 25.32 0 26 C0.33 21.71 0.66 17.42 1 13 C-2.00419641 11.9986012 -4.87709365 11.48578543 -8 11 C-7.690625 10.236875 -7.38125 9.47375 -7.0625 8.6875 C-6.32106407 6.81210323 -5.63771783 4.91315348 -5 3 C-3.67696283 2.6278958 -2.34262065 2.29369827 -1 2 C-0.67 1.34 -0.34 0.68 0 0 Z " fill="#CDA375" transform="translate(243,206)"/>
<path d="M0 0 C3.3125 -0.25 3.3125 -0.25 7 0 C10.20646383 2.77893532 10.53450501 5.90364407 11 10 C11.66 9.67 12.32 9.34 13 9 C13 8.01 13 7.02 13 6 C13.99 6 14.98 6 16 6 C16.33 8.97 16.66 11.94 17 15 C14.36 15 11.72 15 9 15 C8.67 14.34 8.34 13.68 8 13 C5.5705484 16.6441774 5.83820425 18.71241272 6 23 C4.35 23.33 2.7 23.66 1 24 C1 21.69 1 19.38 1 17 C1.99 17 2.98 17 4 17 C4 16.01 4 15.02 4 14 C3.01 14.495 3.01 14.495 2 15 C0.125 15.16796875 0.125 15.16796875 -2 15.1875 C-3.051875 15.20876953 -3.051875 15.20876953 -4.125 15.23046875 C-6 15 -6 15 -8 13 C-9.21894397 9.81720186 -10 7.42085146 -10 4 C-9.01 3.67 -8.02 3.34 -7 3 C-4 7.75 -4 7.75 -4 10 C-2.35 8.68 -0.7 7.36 1 6 C-0.32 5.34 -1.64 4.68 -3 4 C-1.68 3.67 -0.36 3.34 1 3 C0.67 2.01 0.34 1.02 0 0 Z " fill="#E7BD7C" transform="translate(234,242)"/>
<path d="M0 0 C2.375 2.0625 2.375 2.0625 4 4 C3.01 4.33 2.02 4.66 1 5 C0.34 4.67 -0.32 4.34 -1 4 C-0.83242188 4.60328125 -0.66484375 5.2065625 -0.4921875 5.828125 C-0.28851563 6.62734375 -0.08484375 7.4265625 0.125 8.25 C0.33382813 9.03890625 0.54265625 9.8278125 0.7578125 10.640625 C1.04691114 13.45700532 0.55775944 14.66851898 -1 17 C-1.66 17.33 -2.32 17.66 -3 18 C-3 18.99 -3 19.98 -3 21 C-3.99 21 -4.98 21 -6 21 C-6 21.99 -6 22.98 -6 24 C-6.33 24.33 -6.66 24.66 -7 25 C-6.34 25.33 -5.68 25.66 -5 26 C-5.99 28.31 -6.98 30.62 -8 33 C-8.99 32.67 -9.98 32.34 -11 32 C-11.33 32.66 -11.66 33.32 -12 34 C-14.0625 35.125 -14.0625 35.125 -16 36 C-18.75431135 31.86853297 -18.52707218 28.30236028 -18.75 23.4375 C-18.80542969 22.56158203 -18.86085937 21.68566406 -18.91796875 20.78320312 C-18.96050781 19.94595703 -19.00304687 19.10871094 -19.046875 18.24609375 C-19.08651367 17.47966553 -19.12615234 16.7132373 -19.16699219 15.92358398 C-19 14 -19 14 -17 12 C-16 13 -16 13 -15.9375 16.0625 C-15.958125 17.031875 -15.97875 18.00125 -16 19 C-14.35 19.33 -12.7 19.66 -11 20 C-11 20.66 -11 21.32 -11 22 C-10.34 22 -9.68 22 -9 22 C-9 21.34 -9 20.68 -9 20 C-7 18 -7 18 -5 17 C-5.33 15.68 -5.66 14.36 -6 13 C-5.01 13 -4.02 13 -3 13 C-3 12.01 -3 11.02 -3 10 C-3.66 9.67 -4.32 9.34 -5 9 C-4.67 7.68 -4.34 6.36 -4 5 C-4.99 4.67 -5.98 4.34 -7 4 C-6.34 4 -5.68 4 -5 4 C-5 3.01 -5 2.02 -5 1 C-5.99 0.67 -6.98 0.34 -8 0 C-5.02898609 -1.48550695 -3.16565278 -0.82306972 0 0 Z " fill="#6A564A" transform="translate(273,208)"/>
<path d="M0 0 C4.30676065 0.47852896 6.23165117 2.82652696 9 6 C10.80765265 8.59150203 12.45516527 11.24421418 14 14 C14.53753906 14.94101563 15.07507813 15.88203125 15.62890625 16.8515625 C19.5871978 25.94097273 17.03008639 39.42601234 15 49 C14.34 49.66 13.68 50.32 13 51 C12.67 45.72 12.34 40.44 12 35 C12 39.29 12 43.58 12 48 C11.01 48.495 11.01 48.495 10 49 C9.98018066 48.44127197 9.96036133 47.88254395 9.93994141 47.30688477 C9.8434781 44.72502582 9.73430188 42.14384608 9.625 39.5625 C9.5940625 38.68400391 9.563125 37.80550781 9.53125 36.90039062 C9.42042059 26.6610783 9.42042059 26.6610783 5 18 C5.66 18 6.32 18 7 18 C7.33 17.01 7.66 16.02 8 15 C8.33 16.32 8.66 17.64 9 19 C9.66 19 10.32 19 11 19 C8.69530073 13.23825183 6.20429352 8.20429352 1.75 3.75 C1.1725 3.1725 0.595 2.595 0 2 C0 1.34 0 0.68 0 0 Z " fill="#8F7667" transform="translate(282,211)"/>
<path d="M0 0 C1.69141656 0.08963062 3.37959602 0.24577676 5.0625 0.4375 C6.44115234 0.59025391 6.44115234 0.59025391 7.84765625 0.74609375 C8.55792969 0.82988281 9.26820313 0.91367187 10 1 C10.33 1.99 10.66 2.98 11 4 C13.97 4.495 13.97 4.495 17 5 C17 3.68 17 2.36 17 1 C19.475 1.495 19.475 1.495 22 2 C22.02688151 3.64574566 22.04634123 5.29161413 22.0625 6.9375 C22.07410156 7.85402344 22.08570313 8.77054687 22.09765625 9.71484375 C22 12 22 12 21 13 C19.43827255 13.08685603 17.87270656 13.10702219 16.30859375 13.09765625 C15.36435547 13.09443359 14.42011719 13.09121094 13.44726562 13.08789062 C12.45404297 13.07951172 11.46082031 13.07113281 10.4375 13.0625 C9.44041016 13.05798828 8.44332031 13.05347656 7.41601562 13.04882812 C4.94395151 13.03700007 2.47200482 13.02051849 0 13 C-0.88684593 8.91769334 -1.16106858 5.18778313 -1 1 C-0.67 0.67 -0.34 0.34 0 0 Z " fill="#EFB171" transform="translate(246,278)"/>
<path d="M0 0 C0.33 0.66 0.66 1.32 1 2 C1.61746094 2.30292969 2.23492187 2.60585937 2.87109375 2.91796875 C7.77074975 5.40825262 11.64291742 11.15488581 14 16 C14 17.32 14 18.64 14 20 C13.34 20 12.68 20 12 20 C11.67 19.34 11.34 18.68 11 18 C11 20.68255839 11.32491581 22.44968195 12 25 C13.25071369 30.34636064 13.18377429 35.53781974 13 41 C12.67 41 12.34 41 12 41 C11.67 39.35 11.34 37.7 11 36 C11 39.63 11 43.26 11 47 C10.67 47 10.34 47 10 47 C9.91363281 45.865625 9.82726562 44.73125 9.73828125 43.5625 C8.72280516 31.96931095 8.72280516 31.96931095 3 22 C3.99 21.67 4.98 21.34 6 21 C6.66 22.65 7.32 24.3 8 26 C8.33 24.35 8.66 22.7 9 21 C8.01 20.67 7.02 20.34 6 20 C5.7525 19.175 5.505 18.35 5.25 17.5 C3.4860121 12.56083389 0.32539785 9.00114715 -3 5 C-2.01 3.35 -1.02 1.7 0 0 Z " fill="#97684F" transform="translate(279,210)"/>
<path d="M0 0 C0.78375 0.04125 1.5675 0.0825 2.375 0.125 C2.375 2.435 2.375 4.745 2.375 7.125 C1.715 7.125 1.055 7.125 0.375 7.125 C-0.285 5.805 -0.945 4.485 -1.625 3.125 C-1.39086026 8.15978441 -1.39086026 8.15978441 1.4375 12.0625 C2.076875 12.413125 2.71625 12.76375 3.375 13.125 C3.705 11.805 4.035 10.485 4.375 9.125 C6.025 11.105 7.675 13.085 9.375 15.125 C8.055 15.455 6.735 15.785 5.375 16.125 C5.973125 16.681875 6.57125 17.23875 7.1875 17.8125 C9.3613446 20.11056429 10.84398083 22.36916549 12.375 25.125 C13.035 24.795 13.695 24.465 14.375 24.125 C15.695 25.445 17.015 26.765 18.375 28.125 C16.625 28.8125 16.625 28.8125 14.375 29.125 C12.125 27.6875 12.125 27.6875 10.375 26.125 C10.045 27.445 9.715 28.765 9.375 30.125 C7.93844146 30.20631463 6.5005517 30.26433559 5.0625 30.3125 C3.86173828 30.36470703 3.86173828 30.36470703 2.63671875 30.41796875 C-0.10351584 30.06301608 -0.91671079 29.23133718 -2.625 27.125 C-0.315 27.455 1.995 27.785 4.375 28.125 C4.14639942 26.66315942 3.89129608 25.20544581 3.625 23.75 C3.41617188 22.53183594 3.41617188 22.53183594 3.203125 21.2890625 C2.55750739 18.94790908 2.55750739 18.94790908 0.296875 17.8359375 C-0.33734375 17.60132813 -0.9715625 17.36671875 -1.625 17.125 C-1.625 15.475 -1.625 13.825 -1.625 12.125 C-2.285 12.125 -2.945 12.125 -3.625 12.125 C-5.44938348 8.36891637 -5.92570333 6.13550192 -4.625 2.125 C-2.625 0.125 -2.625 0.125 0 0 Z " fill="#876853" transform="translate(246.625,228.875)"/>
<path d="M0 0 C0.99 0.33 1.98 0.66 3 1 C2.67 2.65 2.34 4.3 2 6 C2.94875 5.814375 3.8975 5.62875 4.875 5.4375 C8 5 8 5 10 6 C10.99 5.67 11.98 5.34 13 5 C14.33772623 5.65780753 15.67062882 6.32546721 17 7 C19.36222232 7.23979762 19.36222232 7.23979762 21.75 7.125 C22.94882813 7.09792969 22.94882813 7.09792969 24.171875 7.0703125 C25.07679688 7.03550781 25.07679688 7.03550781 26 7 C26.3125 9.75 26.3125 9.75 26 13 C23.5 15.375 23.5 15.375 21 17 C20.34 16.67 19.68 16.34 19 16 C19.33 15.34 19.66 14.68 20 14 C19.34 14 18.68 14 18 14 C18 12 18 12 19 11 C18.4225 11.495 17.845 11.99 17.25 12.5 C14.17483541 14.55010973 11.60028216 14 8 14 C7.67 13.34 7.34 12.68 7 12 C4.17318015 10.99193408 4.17318015 10.99193408 1.875 10.5625 C1.25625 10.376875 0.6375 10.19125 0 10 C-0.33 9.34 -0.66 8.68 -1 8 C-2.32 8 -3.64 8 -5 8 C-4.67 7.01 -4.34 6.02 -4 5 C-3.01 4.67 -2.02 4.34 -1 4 C-0.26676204 1.98491642 -0.26676204 1.98491642 0 0 Z " fill="#B5B88E" transform="translate(229,287)"/>
<path d="M0 0 C0.99 0 1.98 0 3 0 C3 0.99 3 1.98 3 3 C3.99 3 4.98 3 6 3 C6.2475 3.969375 6.495 4.93875 6.75 5.9375 C7.1625 6.948125 7.575 7.95875 8 9 C9.89179203 9.6814823 9.89179203 9.6814823 12 10 C14.25 11.875 14.25 11.875 16 14 C16 14.99 16 15.98 16 17 C17.98 16.67 19.96 16.34 22 16 C22 16.99 22 17.98 22 19 C21.236875 19.103125 20.47375 19.20625 19.6875 19.3125 C16.95645104 19.7598463 16.95645104 19.7598463 15.4375 21.625 C14.7259375 22.305625 14.7259375 22.305625 14 23 C11.8125 22.6875 11.8125 22.6875 10 22 C10 21.34 10 20.68 10 20 C9.38125 19.7525 8.7625 19.505 8.125 19.25 C5.53952416 17.72913186 5.01094421 16.79953781 4 14 C3.61709538 12.00889599 3.27395385 10.00899487 3 8 C2.34 8 1.68 8 1 8 C1.33 6.02 1.66 4.04 2 2 C1.34 2 0.68 2 0 2 C0 1.34 0 0.68 0 0 Z " fill="#5A9C9D" transform="translate(213,246)"/>
<path d="M0 0 C0.33 0.99 0.66 1.98 1 3 C1.90492188 3.09087891 1.90492188 3.09087891 2.828125 3.18359375 C4.02695313 3.30927734 4.02695313 3.30927734 5.25 3.4375 C6.43335938 3.55931641 6.43335938 3.55931641 7.640625 3.68359375 C9.82364639 3.97634993 11.8773182 4.42064419 14 5 C14.33 4.01 14.66 3.02 15 2 C16.98 4.64 18.96 7.28 21 10 C15.29268293 12.85365854 15.29268293 12.85365854 12 13 C8.8871875 11.88378946 5.94678345 10.49586175 3 9 C3 9.66 3 10.32 3 11 C2.34 11 1.68 11 1 11 C0.67 11.66 0.34 12.32 0 13 C-1.5 12 -1.5 12 -3 10 C-3.45432663 7.15172149 -3.27929785 4.93262743 -3 2 C-2.01 1.34 -1.02 0.68 0 0 Z " fill="#FAF8F8" transform="translate(242,254)"/>
<path d="M0 0 C-0.50520373 3.95742924 -1.16473828 7.75151186 -2.125 11.625 C-2.92394545 15.06164036 -3.10698099 17.56835894 -2 21 C-1.34 21 -0.68 21 0 21 C0.13277344 21.62648437 0.26554688 22.25296875 0.40234375 22.8984375 C0.66724609 24.12433594 0.66724609 24.12433594 0.9375 25.375 C1.11152344 26.18710938 1.28554687 26.99921875 1.46484375 27.8359375 C1.92330693 30.029463 1.92330693 30.029463 3 32 C2.01 32 1.02 32 0 32 C-0.18433594 31.36191406 -0.36867187 30.72382813 -0.55859375 30.06640625 C-1.48794568 27.41878586 -2.35836619 25.28363758 -4 23 C-7.02883338 21.90524095 -9.80282667 21.82921083 -13 22 C-13.3125 19.3125 -13.3125 19.3125 -13 16 C-10.625 13.125 -10.625 13.125 -8 11 C-7.34 11 -6.68 11 -6 11 C-5.97421875 10.37351563 -5.9484375 9.74703125 -5.921875 9.1015625 C-5.86515625 8.28429687 -5.8084375 7.46703125 -5.75 6.625 C-5.70359375 5.81289062 -5.6571875 5.00078125 -5.609375 4.1640625 C-5 2 -5 2 -3.015625 0.7109375 C-1 0 -1 0 0 0 Z " fill="#FAF8F5" transform="translate(245,220)"/>
<path d="M0 0 C0.66 0 1.32 0 2 0 C0.52307692 5.66153846 0.52307692 5.66153846 -2.125 7.375 C-2.74375 7.58125 -3.3625 7.7875 -4 8 C-3.67 9.32 -3.34 10.64 -3 12 C-6.17462117 14.8318217 -8.15127026 15.36831176 -12.375 15.25 C-13.33792969 15.22421875 -14.30085938 15.1984375 -15.29296875 15.171875 C-18.24781869 14.98426548 -21.10496301 14.62595394 -24 14 C-23.67 13.34 -23.34 12.68 -23 12 C-21.02 12.495 -21.02 12.495 -19 13 C-18.67 11.02 -18.34 9.04 -18 7 C-17.67 7.66 -17.34 8.32 -17 9 C-16.01 9 -15.02 9 -14 9 C-13.67 8.01 -13.34 7.02 -13 6 C-10.47772264 4.19837331 -9.35487 3.95160864 -6.25 4.375 C-5.5075 4.58125 -4.765 4.7875 -4 5 C-4 4.01 -4 3.02 -4 2 C-3.01 2 -2.02 2 -1 2 C-0.67 1.34 -0.34 0.68 0 0 Z " fill="#4D9A9C" transform="translate(292,263)"/>
<path d="M0 0 C1.32 0 2.64 0 4 0 C4 0.66 4 1.32 4 2 C6.64 2.66 9.28 3.32 12 4 C12 4.66 12 5.32 12 6 C10.68 6.33 9.36 6.66 8 7 C8 7.66 8 8.32 8 9 C7.34 9 6.68 9 6 9 C5.67 10.32 5.34 11.64 5 13 C1 13 1 13 -2 12 C-3.99673484 11.64763503 -5.99650739 11.31165441 -8 11 C-7.690625 10.236875 -7.38125 9.47375 -7.0625 8.6875 C-6.32106407 6.81210323 -5.63771783 4.91315348 -5 3 C-3.67696283 2.6278958 -2.34262065 2.29369827 -1 2 C-0.67 1.34 -0.34 0.68 0 0 Z " fill="#CEA881" transform="translate(243,206)"/>
<path d="M0 0 C0.268125 0.61875 0.53625 1.2375 0.8125 1.875 C1.95556848 4.2995233 1.95556848 4.2995233 5 6 C5.40063477 7.84765625 5.40063477 7.84765625 5.44140625 10.0625 C5.46783203 10.85914063 5.49425781 11.65578125 5.52148438 12.4765625 C5.53501953 13.30929688 5.54855469 14.14203125 5.5625 15 C5.59689856 16.64603475 5.63948276 18.29192483 5.69140625 19.9375 C5.70373291 20.66839844 5.71605957 21.39929688 5.72875977 22.15234375 C5.84838721 24.24632337 5.84838721 24.24632337 8 26 C8.66 26 9.32 26 10 26 C10.33 25.34 10.66 24.68 11 24 C11.99 23.67 12.98 23.34 14 23 C14.66 22.34 15.32 21.68 16 21 C16.99 21 17.98 21 19 21 C19 21.66 19 22.32 19 23 C18.34 23 17.68 23 17 23 C16.34 24.98 15.68 26.96 15 29 C14.34 29 13.68 29 13 29 C12.67 29.66 12.34 30.32 12 31 C11.01 31 10.02 31 9 31 C8.67 31.66 8.34 32.32 8 33 C4.63279613 31.60667426 3.0140476 30.0210714 1 27 C2.32 27 3.64 27 5 27 C4.525625 25.989375 4.05125 24.97875 3.5625 23.9375 C2.01389288 20.32652985 1.30866719 16.93550666 1 13 C1.33 12.34 1.66 11.68 2 11 C1.690625 10.071875 1.38125 9.14375 1.0625 8.1875 C0.06421596 5.19264787 -0.18320723 3.11452296 0 0 Z " fill="#B28861" transform="translate(250,217)"/>
<path d="M0 0 C3.83562564 -0.44600298 5.50759275 -0.35499127 8.6875 1.9375 C10.86839828 4.82571664 11.47745568 6.31490922 12.375 9.6875 C13.23424765 12.96867004 13.23424765 12.96867004 15.73828125 15.0234375 C17.89006861 15.66679995 17.89006861 15.66679995 21 16 C19.71937515 17.7074998 18.38232443 19.37373596 17 21 C16.34 21 15.68 21 15 21 C14.01 19.02 13.02 17.04 12 15 C10.35 15.66 8.7 16.32 7 17 C4.69856764 13.54785147 4.86166146 12.76520676 5.375 8.8125 C5.54128906 7.46091797 5.54128906 7.46091797 5.7109375 6.08203125 C5.85402344 5.05142578 5.85402344 5.05142578 6 4 C4.35 4 2.7 4 1 4 C0.67 2.68 0.34 1.36 0 0 Z " fill="#D2D2B5" transform="translate(215,231)"/>
<path d="M0 0 C0.268125 0.61875 0.53625 1.2375 0.8125 1.875 C1.95556848 4.2995233 1.95556848 4.2995233 5 6 C6.35 12.3 6.35 12.3 5 15 C3.35 15 1.7 15 0 15 C0 13.68 0 12.36 0 11 C-1.2375 10.855625 -2.475 10.71125 -3.75 10.5625 C-6.56504499 10.21311498 -9.2701497 9.79620634 -12 9 C-11.01 7.68 -10.02 6.36 -9 5 C-9.99 4.01 -10.98 3.02 -12 2 C-10.375 1.3125 -10.375 1.3125 -8 1 C-4.75 2.4375 -4.75 2.4375 -2 4 C-2 3.34 -2 2.68 -2 2 C-1.34 2 -0.68 2 0 2 C0 1.34 0 0.68 0 0 Z " fill="#6AC8DD" transform="translate(240,274)"/>
<path d="M0 0 C5.8784593 0.05616362 10.75752044 2.08952277 16.125 4.3125 C16.8571875 4.57417969 17.589375 4.83585938 18.34375 5.10546875 C20.25 5.8125 20.25 5.8125 23.125 7.3125 C24.0625 9.5 24.0625 9.5 24.125 11.3125 C19.45987971 12.81200295 16.33282332 11.56031968 12.0625 9.4375 C11.05509766 8.94636719 11.05509766 8.94636719 10.02734375 8.4453125 C8.06271271 7.27540901 6.66513857 5.99177882 5.125 4.3125 C4.795 4.6425 4.465 4.9725 4.125 5.3125 C1.25 5.625 1.25 5.625 -1.875 5.3125 C-3.75 3.3125 -3.75 3.3125 -4.875 1.3125 C-3.875 0.3125 -3.875 0.3125 0 0 Z " fill="#AB7B5D" transform="translate(259.875,199.6875)"/>
<path d="M0 0 C0.66 0.66 1.32 1.32 2 2 C4.10820797 1.6814823 4.10820797 1.6814823 6 1 C6.36783439 7.49840764 6.36783439 7.49840764 4.625 9.875 C0.72480082 12.57513789 -2.34579588 12.07506781 -7 12 C-7 12.66 -7 13.32 -7 14 C-6.01 14 -5.02 14 -4 14 C-4 14.99 -4 15.98 -4 17 C-5.98 16.34 -7.96 15.68 -10 15 C-10.33 12.69 -10.66 10.38 -11 8 C-10.34 8 -9.68 8 -9 8 C-9 8.99 -9 9.98 -9 11 C-6.76996879 10.17221913 -6.76996879 10.17221913 -6.1875 7.75 C-4.73169188 4.37865489 -2.67938535 2.46785493 0 0 Z " fill="#ADB184" transform="translate(292,279)"/>
<path d="M0 0 C2.73710205 0.8993953 3.79019743 0.61314675 6.47265625 -0.1875 C8.22265625 1.25 8.22265625 1.25 9.47265625 2.8125 C8.29703125 2.93625 8.29703125 2.93625 7.09765625 3.0625 C4.32516521 3.54056339 4.32516521 3.54056339 3.16015625 5.875 C2.81984375 6.8340625 2.81984375 6.8340625 2.47265625 7.8125 C2.47265625 7.1525 2.47265625 6.4925 2.47265625 5.8125 C1.48265625 6.3075 1.48265625 6.3075 0.47265625 6.8125 C-4.04083895 7.34401198 -7.41872878 7.67776046 -11.08984375 4.8125 C-11.80140625 3.8225 -11.80140625 3.8225 -12.52734375 2.8125 C-11.71484375 0.375 -11.71484375 0.375 -10.52734375 -2.1875 C-6.2349374 -3.61830212 -3.97701973 -1.82355052 0 0 Z " fill="#4E9292" transform="translate(254.52734375,269.1875)"/>
<path d="M0 0 C1.65 0.33 3.3 0.66 5 1 C5.02688151 2.64574566 5.04634123 4.29161413 5.0625 5.9375 C5.07410156 6.85402344 5.08570313 7.77054687 5.09765625 8.71484375 C5 11 5 11 4 12 C2.65732587 12.08631874 1.31025678 12.10706473 -0.03515625 12.09765625 C-0.84404297 12.09443359 -1.65292969 12.09121094 -2.48632812 12.08789062 C-3.33646484 12.07951172 -4.18660156 12.07113281 -5.0625 12.0625 C-5.91650391 12.05798828 -6.77050781 12.05347656 -7.65039062 12.04882812 C-9.76695663 12.03700373 -11.88348685 12.01906769 -14 12 C-14 11.67 -14 11.34 -14 11 C-12.35 11 -10.7 11 -9 11 C-9.33 9.35 -9.66 7.7 -10 6 C-9.01 5.34 -8.02 4.68 -7 4 C-6.34 5.32 -5.68 6.64 -5 8 C-5 6.68 -5 5.36 -5 4 C-3.35 4 -1.7 4 0 4 C0 2.68 0 1.36 0 0 Z " fill="#EAAE73" transform="translate(263,279)"/>
<path d="M0 0 C0.66 1.32 1.32 2.64 2 4 C2.99 4 3.98 4 5 4 C0.18223235 12.6309795 0.18223235 12.6309795 -5 15 C-4.01 15.99 -3.02 16.98 -2 18 C-5.10551666 18 -6.35261084 17.4606285 -9 16 C-8.67 15.34 -8.34 14.68 -8 14 C-7.89843376 12.35519116 -7.81769958 10.70905051 -7.75 9.0625 C-7.32953389 4.27883637 -7.32953389 4.27883637 -4.5625 1.9375 C-3.716875 1.628125 -2.87125 1.31875 -2 1 C-1.34 0.67 -0.68 0.34 0 0 Z " fill="#ABAF81" transform="translate(306,263)"/>
<path d="M0 0 C2.7479865 2.23273903 3.89632752 3.39092417 4.5 6.9375 C3.89649521 10.63396685 2.53641621 12.30505778 0 15 C0.99 15 1.98 15 3 15 C3 15.66 3 16.32 3 17 C-2.37704918 18.3442623 -2.37704918 18.3442623 -5.375 16.6875 C-7 15 -7 15 -7 13 C-6.01 13.33 -5.02 13.66 -4 14 C-4.165 13.484375 -4.33 12.96875 -4.5 12.4375 C-5.15049 9.26636124 -5.0620734 6.22781666 -5 3 C-4.01 3 -3.02 3 -2 3 C-1.34 2.01 -0.68 1.02 0 0 Z " fill="#A2A776" transform="translate(310,245)"/>
<path d="M0 0 C0.33 0.66 0.66 1.32 1 2 C0.0625 4.125 0.0625 4.125 -1 6 C-0.01 6.33 0.98 6.66 2 7 C1.67 7.33 1.34 7.66 1 8 C1.66 8.33 2.32 8.66 3 9 C3.33 8.01 3.66 7.02 4 6 C7.16738721 5.91201702 10.01331342 5.86711888 13 7 C13.99 8.485 13.99 8.485 15 10 C14.01 10.33 13.02 10.66 12 11 C12 10.34 12 9.68 12 9 C8.56206661 9.18129815 8.56206661 9.18129815 5 10 C3.48705712 11.93597032 3.48705712 11.93597032 3 14 C2.34 13.67 1.68 13.34 1 13 C0.34 13.185625 -0.32 13.37125 -1 13.5625 C-1.66 13.706875 -2.32 13.85125 -3 14 C-5.6151291 11.3848709 -5.66546089 9.48645769 -6.03515625 5.90625 C-6 4 -6 4 -4.75 2.0625 C-3 1 -3 1 0 0 Z " fill="#C4C49E" transform="translate(230,210)"/>
<path d="M0 0 C1.98 0 3.96 0 6 0 C9.62017992 7.24035984 6.57335898 20.31773485 5 28 C4.34 28.66 3.68 29.32 3 30 C2.98018066 29.410979 2.96036133 28.82195801 2.93994141 28.21508789 C2.84356723 25.49717649 2.73435288 22.77991897 2.625 20.0625 C2.57859375 18.67321289 2.57859375 18.67321289 2.53125 17.25585938 C2.27928905 11.27178678 1.46575193 5.80938265 0 0 Z " fill="#746156" transform="translate(292,232)"/>
<path d="M0 0 C1.32 0 2.64 0 4 0 C3.67 0.99 3.34 1.98 3 3 C3.9075 3.45375 4.815 3.9075 5.75 4.375 C6.8225 4.91125 7.895 5.4475 9 6 C9.763125 6.350625 10.52625 6.70125 11.3125 7.0625 C13 8 13 8 14 10 C14.0955931 11.66444461 14.12984645 13.33281963 14.125 15 C14.12757813 15.886875 14.13015625 16.77375 14.1328125 17.6875 C14 20 14 20 13 22 C12.34 21.67 11.68 21.34 11 21 C11 20.01 11 19.02 11 18 C10.67 17.01 10.34 16.02 10 15 C9.34 15 8.68 15 8 15 C6.79371992 12.66785852 5.8345262 10.50357861 5 8 C1.99992729 6.29144978 1.99992729 6.29144978 -1 5 C-0.67 3.35 -0.34 1.7 0 0 Z " fill="#BE976C" transform="translate(251,202)"/>
<path d="M0 0 C1.32 0 2.64 0 4 0 C4 0.66 4 1.32 4 2 C4.7425 1.979375 5.485 1.95875 6.25 1.9375 C9 2 9 2 10.91503906 2.48413086 C13.0213803 3.00529 14.94528622 3.20164397 17.109375 3.31640625 C18.24052734 3.37924805 18.24052734 3.37924805 19.39453125 3.44335938 C20.56048828 3.50233398 20.56048828 3.50233398 21.75 3.5625 C22.93916016 3.62727539 22.93916016 3.62727539 24.15234375 3.69335938 C26.10137815 3.79902991 28.05066748 3.89997966 30 4 C27.50494038 6.49505962 26.32671112 6.35948376 22.875 6.625 C21.96492188 6.69976562 21.05484375 6.77453125 20.1171875 6.8515625 C19.41851562 6.90054687 18.71984375 6.94953125 18 7 C18 7.33 18 7.66 18 8 C12.78020872 8.1799928 8.92737019 7.97094808 4 6 C3.67 6.66 3.34 7.32 3 8 C0.9375 5.6875 0.9375 5.6875 -1 3 C-0.67 2.01 -0.34 1.02 0 0 Z " fill="#CEE2DE" transform="translate(236,287)"/>
<path d="M0 0 C1.65 0.33 3.3 0.66 5 1 C5 1.66 5 2.32 5 3 C5.99 3.33 6.98 3.66 8 4 C8.94921875 6.06640625 8.94921875 6.06640625 9.6875 8.5625 C9.93886719 9.38878906 10.19023437 10.21507812 10.44921875 11.06640625 C10.63097656 11.70449219 10.81273437 12.34257812 11 13 C9.54176788 13.0270043 8.08339325 13.04639787 6.625 13.0625 C5.81289062 13.07410156 5.00078125 13.08570313 4.1640625 13.09765625 C2 13 2 13 0 12 C-0.72693904 10.02111039 -1.39816251 8.02045442 -2 6 C-1.34 5.67 -0.68 5.34 0 5 C-0.33 4.01 -0.66 3.02 -1 2 C-0.67 1.34 -0.34 0.68 0 0 Z " fill="#AEB187" transform="translate(217,278)"/>
<path d="M0 0 C3 2 3 2 3.6875 4.625 C3.790625 5.40875 3.89375 6.1925 4 7 C6.43717258 6.72965366 6.43717258 6.72965366 9 6 C9.66 5.01 10.32 4.02 11 3 C11.66 3 12.32 3 13 3 C12.34 4.65 11.68 6.3 11 8 C11.66 8 12.32 8 13 8 C12 11 12 11 10 12 C8.125 12.16796875 8.125 12.16796875 6 12.1875 C4.948125 12.20876953 4.948125 12.20876953 3.875 12.23046875 C2 12 2 12 0 10 C-1.21894397 6.81720186 -2 4.42085146 -2 1 C-1.34 0.67 -0.68 0.34 0 0 Z " fill="#C2C2A0" transform="translate(226,245)"/>
<path d="M0 0 C0.66 0.33 1.32 0.66 2 1 C1.98839844 1.62648437 1.97679687 2.25296875 1.96484375 2.8984375 C1.95582031 3.71570313 1.94679688 4.53296875 1.9375 5.375 C1.92589844 6.18710938 1.91429687 6.99921875 1.90234375 7.8359375 C1.85533666 10.04937142 1.85533666 10.04937142 3 12 C3.99 12.33 4.98 12.66 6 13 C7.6875 16.5625 7.6875 16.5625 9 20 C8.34 20 7.68 20 7 20 C6.67 20.66 6.34 21.32 6 22 C3.9375 23.125 3.9375 23.125 2 24 C-0.03112681 20.95330979 -0.27830065 20.09302718 -0.44921875 16.62109375 C-0.49240234 15.78255859 -0.53558594 14.94402344 -0.58007812 14.08007812 C-0.61552734 13.20802734 -0.65097656 12.33597656 -0.6875 11.4375 C-0.73455078 10.56158203 -0.78160156 9.68566406 -0.83007812 8.78320312 C-1.13585283 2.27170567 -1.13585283 2.27170567 0 0 Z " fill="#7D5E4C" transform="translate(255,220)"/>
<path d="M0 0 C4.40785758 0.87570555 7.30710183 3.31196487 10.75 6.0625 C11.35199219 6.53494141 11.95398438 7.00738281 12.57421875 7.49414062 C14.05409943 8.65690401 15.52768096 9.8276766 17 11 C16.67 11.66 16.34 12.32 16 13 C13.93359375 13.6328125 13.93359375 13.6328125 11.4375 14.125 C10.61121094 14.29257812 9.78492188 14.46015625 8.93359375 14.6328125 C8.29550781 14.75398438 7.65742188 14.87515625 7 15 C7 14.34 7 13.68 7 13 C7.66 13 8.32 13 9 13 C6.91084674 9.67282999 5.04570833 7.04570833 2.25 4.25 C1.5075 3.5075 0.765 2.765 0 2 C0 1.34 0 0.68 0 0 Z " fill="#7F624D" transform="translate(274,250)"/>
<path d="M0 0 C0.598125 0.185625 1.19625 0.37125 1.8125 0.5625 C4.16408762 1.22093687 4.16408762 1.22093687 7 0 C8.33772623 0.65780753 9.67062882 1.32546721 11 2 C13.36222232 2.23979762 13.36222232 2.23979762 15.75 2.125 C16.94882813 2.09792969 16.94882813 2.09792969 18.171875 2.0703125 C19.07679688 2.03550781 19.07679688 2.03550781 20 2 C20.3125 4.75 20.3125 4.75 20 8 C17.5 10.375 17.5 10.375 15 12 C14.34 11.67 13.68 11.34 13 11 C13.33 10.34 13.66 9.68 14 9 C13.34 9 12.68 9 12 9 C12 8.34 12 7.68 12 7 C12.99 6.34 13.98 5.68 15 5 C13.6078125 5.2475 13.6078125 5.2475 12.1875 5.5 C9 6 9 6 6 6 C5.67 5.34 5.34 4.68 5 4 C3.68 4 2.36 4 1 4 C0.67 2.68 0.34 1.36 0 0 Z " fill="#9AB292" transform="translate(235,292)"/>
<path d="M0 0 C1.98 0 3.96 0 6 0 C6.33 0.99 6.66 1.98 7 3 C7.66 3.33 8.32 3.66 9 4 C9 5.98 9 7.96 9 10 C8.01 9.34 7.02 8.68 6 8 C6 6.68 6 5.36 6 4 C5.34 4.66 4.68 5.32 4 6 C4.825 6.969375 5.65 7.93875 6.5 8.9375 C9.19769411 12.68217454 9.50376601 15.54776179 9.37109375 20.08203125 C9 22 9 22 7 24 C6.87625 22.96875 6.7525 21.9375 6.625 20.875 C5.83949459 16.00486646 4.3865943 11.89689878 2.4375 7.375 C1.36696546 4.86157108 0.53145508 2.6572754 0 0 Z " fill="#B18760" transform="translate(279,227)"/>
<path d="M0 0 C1.41569064 -0.08167446 2.83276805 -0.13949698 4.25 -0.1875 C5.43335938 -0.23970703 5.43335938 -0.23970703 6.640625 -0.29296875 C9 0 9 0 10.9375 1.5 C13.66584296 3.48424943 15.41943953 3.30644859 18.75 3.1875 C19.73484375 3.16042969 20.7196875 3.13335937 21.734375 3.10546875 C22.48203125 3.07066406 23.2296875 3.03585937 24 3 C23.67 4.32 23.34 5.64 23 7 C18.33333333 7 13.66666667 7 9 7 C8.34 6.01 7.68 5.02 7 4 C6.01 4.33 5.02 4.66 4 5 C4 4.01 4 3.02 4 2 C2.68 1.34 1.36 0.68 0 0 Z " fill="#F2EFED" transform="translate(233,272)"/>
<path d="M0 0 C0.33 0.66 0.66 1.32 1 2 C0.67 2.66 0.34 3.32 0 4 C0.66 4.33 1.32 4.66 2 5 C1.34 5.66 0.68 6.32 0 7 C0 7.99 0 8.98 0 10 C-0.31088368 11.67099977 -0.64080332 13.33871537 -1 15 C-2.1725131 14.04882866 -3.33787015 13.08882991 -4.5 12.125 C-5.1496875 11.59132813 -5.799375 11.05765625 -6.46875 10.5078125 C-7.22671875 9.76144531 -7.22671875 9.76144531 -8 9 C-8 8.34 -8 7.68 -8 7 C-7.34 7 -6.68 7 -6 7 C-6 5.68 -6 4.36 -6 3 C-4.02 2.01 -2.04 1.02 0 0 Z " fill="#A8AC7F" transform="translate(206,245)"/>
<path d="M0 0 C3.6875 1.375 3.6875 1.375 7 3 C7 3.99 7 4.98 7 6 C7.66 6.33 8.32 6.66 9 7 C8 8 8 8 6.0390625 8.1328125 C5.24242187 8.13023437 4.44578125 8.12765625 3.625 8.125 C2.83351562 8.12757813 2.04203125 8.13015625 1.2265625 8.1328125 C-1 8 -1 8 -4 7 C-3.6875 4.625 -3.6875 4.625 -3 2 C-2.01 1.34 -1.02 0.68 0 0 Z " fill="#499598" transform="translate(232,264)"/>
<path d="M0 0 C0 0.66 0 1.32 0 2 C-1.32 2.33 -2.64 2.66 -4 3 C-1.525 3.99 -1.525 3.99 1 5 C0.67 5.99 0.34 6.98 0 8 C-4.455 8.495 -4.455 8.495 -9 9 C-10.35439668 6.29120665 -10.06501451 3.99066732 -10 1 C-6.59437148 0.22157062 -3.49234244 -0.09978121 0 0 Z " fill="#72C6DA" transform="translate(277,281)"/>
<path d="M0 0 C0.33 1.32 0.66 2.64 1 4 C-0.65 4.33 -2.3 4.66 -4 5 C-4 4.34 -4 3.68 -4 3 C-8.455 3.495 -8.455 3.495 -13 4 C-13.33 3.34 -13.66 2.68 -14 2 C-14.99 1.34 -15.98 0.68 -17 0 C-12.09873048 -2.45063476 -5.24757977 -0.87459663 0 0 Z " fill="#F7F9F9" transform="translate(281,278)"/>
<path d="M0 0 C0.66 0.33 1.32 0.66 2 1 C2.4140625 3.06640625 2.4140625 3.06640625 2.625 5.5625 C2.69976562 6.38878906 2.77453125 7.21507812 2.8515625 8.06640625 C2.90054688 8.70449219 2.94953125 9.34257812 3 10 C0.36 10 -2.28 10 -5 10 C-4.67 8.35 -4.34 6.7 -4 5 C-5.32 5 -6.64 5 -8 5 C-8 3.68 -8 2.36 -8 1 C-5.525 1.495 -5.525 1.495 -3 2 C-3 2.99 -3 3.98 -3 5 C-2.34 4.67 -1.68 4.34 -1 4 C-1 3.01 -1 2.02 -1 1 C-0.67 0.67 -0.34 0.34 0 0 Z " fill="#CBA665" transform="translate(248,247)"/>
<path d="M0 0 C0.71542969 0.2784375 1.43085938 0.556875 2.16796875 0.84375 C2.71066406 1.0603125 3.25335938 1.276875 3.8125 1.5 C1.26181155 3.85448165 0.10232642 4.48327924 -3.4375 4.6875 C-4.345 4.625625 -5.2525 4.56375 -6.1875 4.5 C-6.5175 5.16 -6.8475 5.82 -7.1875 6.5 C-9.6625 5.51 -9.6625 5.51 -12.1875 4.5 C-12.1875 3.18 -12.1875 1.86 -12.1875 0.5 C-7.4751632 -1.53776727 -4.78389815 -1.88218944 0 0 Z " fill="#EACB73" transform="translate(271.1875,264.5)"/>
<path d="M0 0 C3.86107457 2.57404971 3.94319692 4.61020259 5 9 C2.25 9.75 2.25 9.75 -1 10 C-3.375 8.0625 -3.375 8.0625 -5 6 C-4.1875 3.5625 -4.1875 3.5625 -3 1 C-2.01 0.67 -1.02 0.34 0 0 Z " fill="#459395" transform="translate(247,266)"/>
<path d="M0 0 C1.98 0 3.96 0 6 0 C5.67 0.99 5.34 1.98 5 3 C6.66438938 5.52244098 6.66438938 5.52244098 8.9375 8.0625 C13 12.80789022 13 12.80789022 13 15 C10.39619281 13.88408263 8.93900464 12.93328633 7 10.8125 C6.34 10.214375 5.68 9.61625 5 9 C3.68 9.33 2.36 9.66 1 10 C0.67 6.7 0.34 3.4 0 0 Z " fill="#9B694E" transform="translate(272,212)"/>
<path d="M0 0 C4.30676065 0.47852896 6.23165117 2.82652696 9 6 C10.84428164 8.56724004 12.66825094 11.12722703 14 14 C13.67 14.66 13.34 15.32 13 16 C9.38967732 14.79655911 9.01140782 13.84607474 7.0625 10.6875 C4.95855829 7.38205542 2.83170812 4.72279627 0 2 C0 1.34 0 0.68 0 0 Z " fill="#A77B61" transform="translate(282,211)"/>
<path d="M0 0 C2 1 2 1 2.6328125 2.84765625 C2.79523438 3.57855469 2.95765625 4.30945313 3.125 5.0625 C3.29257813 5.79597656 3.46015625 6.52945313 3.6328125 7.28515625 C3.75398437 7.85105469 3.87515625 8.41695312 4 9 C4.66 9 5.32 9 6 9 C6.66 10.32 7.32 11.64 8 13 C4.625 13.1875 4.625 13.1875 1 13 C-1.11295256 9.83057116 -1.25250929 9.00370047 -1.1875 5.375 C-1.17783203 4.18003906 -1.17783203 4.18003906 -1.16796875 2.9609375 C-1 1 -1 1 0 0 Z " fill="#C0BD98" transform="translate(228,233)"/>
<path d="M0 0 C0.99 0.33 1.98 0.66 3 1 C3.33 3.97 3.66 6.94 4 10 C3.34 9.67 2.68 9.34 2 9 C1.67 9.99 1.34 10.98 1 12 C-2.875 10.125 -2.875 10.125 -4 9 C-4.04092937 6.66702567 -4.04241723 4.33294775 -4 2 C-3.01 2.495 -3.01 2.495 -2 3 C-2 3.99 -2 4.98 -2 6 C-1.34 6 -0.68 6 0 6 C0 4.02 0 2.04 0 0 Z " fill="#C79E6F" transform="translate(249,230)"/>
<path d="M0 0 C0.66 0.66 1.32 1.32 2 2 C1.484375 2.70125 0.96875 3.4025 0.4375 4.125 C-1.30443767 7.60887535 -0.94693195 9.2983569 0 13 C-0.99 13.495 -0.99 13.495 -2 14 C-1.01 14.99 -0.02 15.98 1 17 C-2.10551666 17 -3.35261084 16.4606285 -6 15 C-5.67 14.34 -5.34 13.68 -5 13 C-4.80478829 10.47092384 -4.68245563 7.94439208 -4.57421875 5.41015625 C-4 3 -4 3 -1.95703125 1.18359375 C-1.31121094 0.79300781 -0.66539062 0.40242188 0 0 Z " fill="#A6AA7C" transform="translate(303,264)"/>
<path d="M0 0 C0.33 0.66 0.66 1.32 1 2 C1.61746094 2.30292969 2.23492187 2.60585937 2.87109375 2.91796875 C7.77074975 5.40825262 11.64291742 11.15488581 14 16 C14 17.32 14 18.64 14 20 C13.34 20 12.68 20 12 20 C11.525625 18.88625 11.05125 17.7725 10.5625 16.625 C7.74733056 10.91276529 3.37152025 6.55833735 -1 2 C-0.67 1.34 -0.34 0.68 0 0 Z " fill="#735847" transform="translate(279,210)"/>
<path d="M0 0 C2 2 2 2 3 4 C3 2.68 3 1.36 3 0 C4.32 0.33 5.64 0.66 7 1 C6.01 1 5.02 1 4 1 C4.66 2.98 5.32 4.96 6 7 C6.99 6.67 7.98 6.34 9 6 C9 6.66 9 7.32 9 8 C4.05 8 -0.9 8 -6 8 C-6 7.67 -6 7.34 -6 7 C-4.35 7 -2.7 7 -1 7 C-1.309375 5.824375 -1.309375 5.824375 -1.625 4.625 C-1.74875 3.75875 -1.8725 2.8925 -2 2 C-1.34 1.34 -0.68 0.68 0 0 Z " fill="#D28E62" transform="translate(255,283)"/>
<path d="M0 0 C0.78375 0.04125 1.5675 0.0825 2.375 0.125 C2.375 2.435 2.375 4.745 2.375 7.125 C1.715 7.125 1.055 7.125 0.375 7.125 C-0.285 5.805 -0.945 4.485 -1.625 3.125 C-1.295 5.765 -0.965 8.405 -0.625 11.125 C-1.615 11.455 -2.605 11.785 -3.625 12.125 C-5.44938348 8.36891637 -5.92570333 6.13550192 -4.625 2.125 C-2.625 0.125 -2.625 0.125 0 0 Z " fill="#AE8563" transform="translate(246.625,228.875)"/>
<path d="M0 0 C6.02388935 5.44263687 8.56079205 13.09425682 9 21 C5.90361254 18.46659208 5.05088886 15.79936742 4 12 C4 11.34 4 10.68 4 10 C3.36525925 8.65117592 2.70151152 7.3153341 2 6 C0.35 6.66 -1.3 7.32 -3 8 C-3 6.35 -3 4.7 -3 3 C-2.01 3 -1.02 3 0 3 C0 2.01 0 1.02 0 0 Z " fill="#A1806A" transform="translate(275,228)"/>
<path d="M0 0 C0.94875 0.04125 1.8975 0.0825 2.875 0.125 C3.205 1.115 3.535 2.105 3.875 3.125 C-3.41071429 7.69642857 -3.41071429 7.69642857 -8.125 7.125 C-4.09482759 0.1637931 -4.09482759 0.1637931 0 0 Z " fill="#A1A574" transform="translate(275.125,290.875)"/>
<path d="M0 0 C4.22797927 3.08290155 4.22797927 3.08290155 6 5 C6.375 7.8125 6.375 7.8125 6 10 C4.56344146 10.08131463 3.1255517 10.13933559 1.6875 10.1875 C0.48673828 10.23970703 0.48673828 10.23970703 -0.73828125 10.29296875 C-3.47851584 9.93801608 -4.29171079 9.10633718 -6 7 C-3.69 7.33 -1.38 7.66 1 8 C0.67 5.36 0.34 2.72 0 0 Z " fill="#AB8062" transform="translate(250,249)"/>
<path d="M0 0 C0.99 0 1.98 0 3 0 C3 0.99 3 1.98 3 3 C3.99 3 4.98 3 6 3 C7.61949011 5.57213134 8.04408751 6.67669159 7.625 9.75 C7.41875 10.4925 7.2125 11.235 7 12 C5.68 11.34 4.36 10.68 3 10 C3 9.34 3 8.68 3 8 C2.34 8 1.68 8 1 8 C1.33 6.02 1.66 4.04 2 2 C1.34 2 0.68 2 0 2 C0 1.34 0 0.68 0 0 Z " fill="#F3A4B0" transform="translate(213,246)"/>
<path d="M0 0 C0.66 0.33 1.32 0.66 2 1 C1.67 1.66 1.34 2.32 1 3 C1.66 3 2.32 3 3 3 C3 3.66 3 4.32 3 5 C2.01 5.495 2.01 5.495 1 6 C0.34786708 8.02463255 0.34786708 8.02463255 0 10 C-1.98 10 -3.96 10 -6 10 C-6.33 8.35 -6.66 6.7 -7 5 C-6.67 5.99 -6.34 6.98 -6 8 C-5.34 8 -4.68 8 -4 8 C-3.67 6.35 -3.34 4.7 -3 3 C-2.01 2.67 -1.02 2.34 0 2 C0 1.34 0 0.68 0 0 Z " fill="#448F8F" transform="translate(263,273)"/>
<path d="M0 0 C3 2 3 2 3.51171875 4.3828125 C3.56972656 5.28773438 3.62773437 6.19265625 3.6875 7.125 C3.75324219 8.03507812 3.81898438 8.94515625 3.88671875 9.8828125 C3.92410156 10.58148438 3.96148437 11.28015625 4 12 C5.32 12 6.64 12 8 12 C8 12.66 8 13.32 8 14 C2.62295082 15.3442623 2.62295082 15.3442623 -0.375 13.6875 C-2 12 -2 12 -2 10 C-1.01 10.33 -0.02 10.66 1 11 C0.835 10.484375 0.67 9.96875 0.5 9.4375 C-0.15049 6.26636124 -0.0620734 3.22781666 0 0 Z " fill="#C0BA84" transform="translate(305,248)"/>
<path d="M0 0 C4.53496279 3.59230198 8.1732752 6.91189536 11 12 C11 12.99 11 13.98 11 15 C7.59559511 13.86519837 7.04030343 13.07667038 5 10.25 C4.48179687 9.53328125 3.96359375 8.8165625 3.4296875 8.078125 C1.84566295 5.77566309 0.37026983 3.43603526 -1 1 C-0.67 0.67 -0.34 0.34 0 0 Z " fill="#6C5446" transform="translate(277,213)"/>
<path d="M0 0 C-0.66 1.65 -1.32 3.3 -2 5 C-5.94607548 5 -8.31437803 4.22854066 -12 3 C-7.9856031 -1.41583659 -5.5634509 -2.78172545 0 0 Z " fill="#AB7E5A" transform="translate(250,214)"/>
<path d="M0 0 C0.66 0.33 1.32 0.66 2 1 C2 1.66 2 2.32 2 3 C1.01 3 0.02 3 -1 3 C-1 2.34 -1 1.68 -1 1 C-3.31 1.66 -5.62 2.32 -8 3 C-8 3.66 -8 4.32 -8 5 C-8.99 5.66 -9.98 6.32 -11 7 C-11.72382467 9.05925139 -11.72382467 9.05925139 -12 11 C-12.66 11 -13.32 11 -14 11 C-14.33 9.35 -14.66 7.7 -15 6 C-5.57602143 -1.80843938 -5.57602143 -1.80843938 0 0 Z " fill="#89B5B6" transform="translate(271,270)"/>
<path d="M0 0 C0.33 0.66 0.66 1.32 1 2 C1.66 2 2.32 2 3 2 C3 3.65 3 5.3 3 7 C3.99 6.67 4.98 6.34 6 6 C6.33 7.32 6.66 8.64 7 10 C4.66666667 10 2.33333333 10 0 10 C-0.66 10.66 -1.32 11.32 -2 12 C-1.44687265 7.97007218 -0.8441938 3.97977076 0 0 Z " fill="#DDBA8C" transform="translate(245,220)"/>
<path d="M0 0 C7.48291572 6.15034169 7.48291572 6.15034169 10 10 C8.02 10.33 6.04 10.66 4 11 C0 5 0 5 0 0 Z " fill="#8F6A55" transform="translate(270,254)"/>
<path d="M0 0 C1.98 0 3.96 0 6 0 C6.33 1.65 6.66 3.3 7 5 C4.525 6.485 4.525 6.485 2 8 C0 6.625 0 6.625 -2 5 C-2 4.34 -2 3.68 -2 3 C-1.34 3 -0.68 3 0 3 C0 2.01 0 1.02 0 0 Z " fill="#66564C" transform="translate(258,247)"/>
<path d="M0 0 C1.32 0 2.64 0 4 0 C4 0.66 4 1.32 4 2 C3.34 2 2.68 2 2 2 C1.34 3.98 0.68 5.96 0 8 C-0.66 8 -1.32 8 -2 8 C-2.33 8.66 -2.66 9.32 -3 10 C-4.32 9.67 -5.64 9.34 -7 9 C-6.25 6.0625 -6.25 6.0625 -5 3 C-2.9375 2.25 -2.9375 2.25 -1 2 C-0.67 1.34 -0.34 0.68 0 0 Z " fill="#B48E6B" transform="translate(265,238)"/>
<path d="M0 0 C3.99996286 1.33332095 4.83782337 3.4957827 7 7 C6.01 7.33 5.02 7.66 4 8 C4.33 9.65 4.66 11.3 5 13 C1.67548479 9.93794652 -0.93731652 7.48688582 -2 3 C-1.34 2.01 -0.68 1.02 0 0 Z " fill="#785F4E" transform="translate(274,233)"/>
<path d="M0 0 C0.268125 0.61875 0.53625 1.2375 0.8125 1.875 C1.95556848 4.2995233 1.95556848 4.2995233 5 6 C5.29296875 8.6015625 5.29296875 8.6015625 5.1875 11.625 C5.16042969 12.62789062 5.13335937 13.63078125 5.10546875 14.6640625 C5.07066406 15.43492187 5.03585938 16.20578125 5 17 C4.34 17 3.68 17 3 17 C2.67 17.66 2.34 18.32 2 19 C0.875 13.25 0.875 13.25 2 11 C1.690625 10.071875 1.38125 9.14375 1.0625 8.1875 C0.06421596 5.19264787 -0.18320723 3.11452296 0 0 Z " fill="#A27657" transform="translate(250,217)"/>
<path d="M0 0 C2 2 2 2 2.6875 4.5 C3.85619103 7.40870037 3.85619103 7.40870037 7.625 8.3125 C8.73875 8.539375 9.8525 8.76625 11 9 C9.71937515 10.7074998 8.38232443 12.37373596 7 14 C6.34 14 5.68 14 5 14 C4.566875 13.071875 4.13375 12.14375 3.6875 11.1875 C2.26544016 8.05477886 2.26544016 8.05477886 0.25 6.4375 C-0.1625 5.963125 -0.575 5.48875 -1 5 C-0.6875 2.3125 -0.6875 2.3125 0 0 Z " fill="#FCFBF9" transform="translate(225,238)"/>
<path d="M0 0 C0.66 0 1.32 0 2 0 C2.474375 1.134375 2.94875 2.26875 3.4375 3.4375 C4.63622083 6.75740166 4.63622083 6.75740166 6 8 C7.17328971 13.99681407 7.0991667 19.90675749 7 26 C6.67 26 6.34 26 6 26 C5.91363281 24.865625 5.82726562 23.73125 5.73828125 22.5625 C4.72280516 10.96931095 4.72280516 10.96931095 -1 1 C-0.67 0.67 -0.34 0.34 0 0 Z " fill="#776356" transform="translate(283,231)"/>
<path d="M0 0 C0.66 0 1.32 0 2 0 C2 1.98 2 3.96 2 6 C4.475 6.99 4.475 6.99 7 8 C5 9 5 9 4 9 C4 9.66 4 10.32 4 11 C2.6078125 10.7215625 2.6078125 10.7215625 1.1875 10.4375 C-2.01343771 9.75876119 -2.01343771 9.75876119 -5 11 C-4 8 -4 8 -1 6 C-0.26656572 2.93443402 -0.26656572 2.93443402 0 0 Z " fill="#C17576" transform="translate(257,294)"/>
<path d="M0 0 C3.3125 -0.25 3.3125 -0.25 7 0 C8.9375 1.875 8.9375 1.875 10 4 C10 4.66 10 5.32 10 6 C6.05879291 5.43697042 3.2491277 4.3208055 0 2 C0 1.34 0 0.68 0 0 Z " fill="#E4C66E" transform="translate(234,242)"/>
<path d="M0 0 C0.33 0.99 0.66 1.98 1 3 C1.99 3.33 2.98 3.66 4 4 C4.33 5.98 4.66 7.96 5 10 C3.02 10.99 3.02 10.99 1 12 C-1.23551759 8.64672361 -1.17283528 8.09256343 -0.625 4.3125 C-0.51414063 3.50425781 -0.40328125 2.69601563 -0.2890625 1.86328125 C-0.19367188 1.24839844 -0.09828125 0.63351563 0 0 Z " fill="#D6D7BD" transform="translate(221,236)"/>
<path d="M0 0 C0.66 0 1.32 0 2 0 C2 3.3 2 6.6 2 10 C1.34 9.67 0.68 9.34 0 9 C0 8.34 0 7.68 0 7 C-1.65 7.33 -3.3 7.66 -5 8 C-5 5 -5 5 -4 4 C-5.32 3.34 -6.64 2.68 -8 2 C-3.25 1.875 -3.25 1.875 -1 3 C-0.67 2.01 -0.34 1.02 0 0 Z " fill="#D7C98F" transform="translate(215,273)"/>
<path d="M0 0 C2.31 0 4.62 0 7 0 C6.67 2.97 6.34 5.94 6 9 C3.69 7.02 1.38 5.04 -1 3 C-0.67 2.01 -0.34 1.02 0 0 Z " fill="#E4C16A" transform="translate(235,219)"/>
<path d="M0 0 C0.99 0.33 1.98 0.66 3 1 C3.33 3.64 3.66 6.28 4 9 C2.68 9.33 1.36 9.66 0 10 C-0.33 9.34 -0.66 8.68 -1 8 C-2.32 8 -3.64 8 -5 8 C-4.67 7.01 -4.34 6.02 -4 5 C-3.01 4.67 -2.02 4.34 -1 4 C-0.26676204 1.98491642 -0.26676204 1.98491642 0 0 Z " fill="#D6C788" transform="translate(229,287)"/>
<path d="M0 0 C3.16738721 -0.08798298 6.01331342 -0.13288112 9 1 C9.66 1.99 10.32 2.98 11 4 C10.01 4.33 9.02 4.66 8 5 C8 4.34 8 3.68 8 3 C4.56206661 3.18129815 4.56206661 3.18129815 1 4 C-0.51294288 5.93597032 -0.51294288 5.93597032 -1 8 C-1.93065133 5.39417629 -2.14917407 4.35801776 -1.0625 1.75 C-0.711875 1.1725 -0.36125 0.595 0 0 Z " fill="#EED4A0" transform="translate(234,216)"/>
<path d="M0 0 C0.66 0 1.32 0 2 0 C1.34 1.65 0.68 3.3 0 5 C0.66 5 1.32 5 2 5 C1.67 5.99 1.34 6.98 1 8 C-0.65 8 -2.3 8 -4 8 C-4 7.34 -4 6.68 -4 6 C-4.66 5.67 -5.32 5.34 -6 5 C-5.34 4.34 -4.68 3.68 -4 3 C-3.34 3 -2.68 3 -2 3 C-1.34 2.01 -0.68 1.02 0 0 Z " fill="#B29E60" transform="translate(237,248)"/>
<path d="M0 0 C0.33 0.66 0.66 1.32 1 2 C4.465 1.505 4.465 1.505 8 1 C8 1.99 8 2.98 8 4 C6.8553125 4.1546875 6.8553125 4.1546875 5.6875 4.3125 C2.82940576 5.04364039 1.84257115 5.76951913 0 8 C-1.32 7.34 -2.64 6.68 -4 6 C-2.68 5.67 -1.36 5.34 0 5 C-0.33 4.34 -0.66 3.68 -1 3 C-0.67 2.01 -0.34 1.02 0 0 Z " fill="#94BEBE" transform="translate(227,261)"/>
<path d="M0 0 C2.4375 0.375 2.4375 0.375 5 1 C5.33 1.66 5.66 2.32 6 3 C6.99 3.33 7.98 3.66 9 4 C9 6.31 9 8.62 9 11 C7.5 9.625 7.5 9.625 6 8 C6 7.34 6 6.68 6 6 C5.34 6 4.68 6 4 6 C3.71125 5.195625 3.4225 4.39125 3.125 3.5625 C2.26737432 0.8673532 2.26737432 0.8673532 0 0 Z " fill="#B08057" transform="translate(249,212)"/>
<path d="M0 0 C4.04089967 3.09802308 4.83997786 6.22139305 5.8984375 10.9765625 C5.93195313 11.64429688 5.96546875 12.31203125 6 13 C5.34 13.66 4.68 14.32 4 15 C3.67 11.7 3.34 8.4 3 5 C1.68 4.67 0.36 4.34 -1 4 C-1.33 3.01 -1.66 2.02 -2 1 C-1.34 0.67 -0.68 0.34 0 0 Z " fill="#6E5E52" transform="translate(255,211)"/>
<path d="M0 0 C1.32 0 2.64 0 4 0 C3.67 0.99 3.34 1.98 3 3 C3.99 3.33 4.98 3.66 6 4 C5.67 4.99 5.34 5.98 5 7 C3.35 6.67 1.7 6.34 0 6 C-0.38218767 4.34385343 -0.71395102 2.67542976 -1 1 C-0.67 0.67 -0.34 0.34 0 0 Z " fill="#C19E77" transform="translate(251,202)"/>
<path d="M0 0 C3.3 0.33 6.6 0.66 10 1 C10.33 2.32 10.66 3.64 11 5 C8 6 8 6 4.375 4.75 C1 3 1 3 0 0 Z " fill="#7A9C9B" transform="translate(249,265)"/>
<path d="M0 0 C2 1.4375 2 1.4375 4 4 C4.46437239 7.04001922 4.50407331 9.96383751 4 13 C3.34 13.66 2.68 14.32 2 15 C1.2717552 10.00632136 0.61512818 5.00890086 0 0 Z " fill="#AC9183" transform="translate(284,236)"/>
<path d="M0 0 C0.33 0.66 0.66 1.32 1 2 C0.0625 4.125 0.0625 4.125 -1 6 C-0.01 6.33 0.98 6.66 2 7 C0.35 7.33 -1.3 7.66 -3 8 C-3.33 7.34 -3.66 6.68 -4 6 C-4.99 6.495 -4.99 6.495 -6 7 C-5.8125 5.1875 -5.8125 5.1875 -5 3 C-2.4375 1.25 -2.4375 1.25 0 0 Z " fill="#CDCDAF" transform="translate(230,210)"/>
<path d="M0 0 C5.54621849 -0.3697479 5.54621849 -0.3697479 7.6875 1.375 C8.120625 1.91125 8.55375 2.4475 9 3 C9.99 3.66 10.98 4.32 12 5 C10.54176788 5.0270043 9.08339325 5.04639787 7.625 5.0625 C6.81289062 5.07410156 6.00078125 5.08570313 5.1640625 5.09765625 C3 5 3 5 1 4 C0.375 1.9375 0.375 1.9375 0 0 Z " fill="#B0B488" transform="translate(216,286)"/>
<path d="M0 0 C1.32 0.99 2.64 1.98 4 3 C-0.39453125 7.00390625 -0.39453125 7.00390625 -2 8 C-2.99 7.67 -3.98 7.34 -5 7 C-3.70700306 4.11562221 -2.34058637 2.12780579 0 0 Z " fill="#9DA16F" transform="translate(292,279)"/>
<path d="M0 0 C0.66 0 1.32 0 2 0 C0.52810903 5.64224872 0.52810903 5.64224872 -1.9375 7.3125 C-3.625 7.875 -5.3125 8.4375 -7 9 C-6.67 7.68 -6.34 6.36 -6 5 C-5.34 5 -4.68 5 -4 5 C-4 4.01 -4 3.02 -4 2 C-3.01 2 -2.02 2 -1 2 C-0.67 1.34 -0.34 0.68 0 0 Z " fill="#E69E8C" transform="translate(292,263)"/>
<path d="M0 0 C0.66 0.99 1.32 1.98 2 3 C3.32 3 4.64 3 6 3 C7.75 4.3125 7.75 4.3125 9 6 C9 6.99 9 7.98 9 9 C8.34 9 7.68 9 7 9 C7 8.34 7 7.68 7 7 C6.05125 6.731875 5.1025 6.46375 4.125 6.1875 C1 5 1 5 -1 2 C-0.67 1.34 -0.34 0.68 0 0 Z " fill="#C5B078" transform="translate(231,220)"/>
<path d="M0 0 C1.98 0 3.96 0 6 0 C5.34 2.97 4.68 5.94 4 9 C3.01 9 2.02 9 1 9 C0.67 6.03 0.34 3.06 0 0 Z " fill="#A47B5C" transform="translate(272,212)"/>
<path d="M0 0 C2.64 0.66 5.28 1.32 8 2 C8 2.66 8 3.32 8 4 C7.360625 4.12375 6.72125 4.2475 6.0625 4.375 C5.0415625 4.684375 5.0415625 4.684375 4 5 C3.67 5.66 3.34 6.32 3 7 C1.68 6.01 0.36 5.02 -1 4 C-0.67 2.68 -0.34 1.36 0 0 Z " fill="#D1AD82" transform="translate(247,208)"/>
<path d="M0 0 C1.32 0.33 2.64 0.66 4 1 C4.33 4.3 4.66 7.6 5 11 C4.01 11.33 3.02 11.66 2 12 C1.34 8.04 0.68 4.08 0 0 Z " fill="#90664E" transform="translate(294,234)"/>
<path d="M0 0 C0 2.31 0 4.62 0 7 C-0.66 7 -1.32 7 -2 7 C-3.98 3.535 -3.98 3.535 -6 0 C-3.50907189 -1.24546405 -2.58919267 -0.7767578 0 0 Z " fill="#969B67" transform="translate(212,266)"/>
<path d="M0 0 C0.598125 0.185625 1.19625 0.37125 1.8125 0.5625 C4.16408762 1.22093687 4.16408762 1.22093687 7 0 C7.33 1.32 7.66 2.64 8 4 C7.01 4.66 6.02 5.32 5 6 C5 5.34 5 4.68 5 4 C3.68 4 2.36 4 1 4 C0.67 2.68 0.34 1.36 0 0 Z " fill="#939863" transform="translate(235,292)"/>
<path d="M0 0 C0.66 0 1.32 0 2 0 C3.76462683 3.08809695 4 4.23312136 4 8 C1.37812506 6.95125002 0.20628639 6.35068687 -1.25 3.875 C-1.4975 3.25625 -1.745 2.6375 -2 2 C-1.34 1.34 -0.68 0.68 0 0 Z " fill="#949965" transform="translate(223,282)"/>
<path d="M0 0 C0.99 0.66 1.98 1.32 3 2 C-0.78756477 5.61139896 -0.78756477 5.61139896 -3 7 C-5.875 6.8125 -5.875 6.8125 -8 6 C-7.67 5.01 -7.34 4.02 -7 3 C-7 3.66 -7 4.32 -7 5 C-6.01 5 -5.02 5 -4 5 C-3.67 4.01 -3.34 3.02 -3 2 C-2.01 1.34 -1.02 0.68 0 0 Z " fill="#A2C0C0" transform="translate(282,267)"/>
<path d="M0 0 C1.32 0.66 2.64 1.32 4 2 C4 2.99 4 3.98 4 5 C3.34 5 2.68 5 2 5 C2 4.34 2 3.68 2 3 C0.54176788 2.9729957 -0.91660675 2.95360213 -2.375 2.9375 C-3.59316406 2.92009766 -3.59316406 2.92009766 -4.8359375 2.90234375 C-7.04937142 2.85533666 -7.04937142 2.85533666 -9 4 C-8.67 3.01 -8.34 2.02 -8 1 C-6.865625 1.020625 -5.73125 1.04125 -4.5625 1.0625 C-1.18424326 1.41577477 -1.18424326 1.41577477 0 0 Z " fill="#93976D" transform="translate(273,267)"/>
<path d="M0 0 C2.475 0.495 2.475 0.495 5 1 C5.33 1.99 5.66 2.98 6 4 C5.67 4.66 5.34 5.32 5 6 C2.525 5.01 2.525 5.01 0 4 C0 2.68 0 1.36 0 0 Z " fill="#E3C667" transform="translate(259,265)"/>
<path d="M0 0 C2.1755306 2.1755306 2.71879553 3.55973892 3.6875 6.4375 C3.95949219 7.21996094 4.23148437 8.00242188 4.51171875 8.80859375 C5 11 5 11 4 14 C2.07334359 10.98436388 0.83457545 8.45752687 0 5 C-0.66 4.34 -1.32 3.68 -2 3 C-1.34 3 -0.68 3 0 3 C0 2.01 0 1.02 0 0 Z " fill="#B38960" transform="translate(289,226)"/>
<path d="M0 0 C1.32 0 2.64 0 4 0 C4 0.99 4 1.98 4 3 C4.66 3.33 5.32 3.66 6 4 C6 4.66 6 5.32 6 6 C3.03 5.505 3.03 5.505 0 5 C0 3.35 0 1.7 0 0 Z " fill="#CFCCB3" transform="translate(259,295)"/>
<path d="M0 0 C0.33 1.32 0.66 2.64 1 4 C0.34 4 -0.32 4 -1 4 C-1.33 4.66 -1.66 5.32 -2 6 C-5 6 -5 6 -8 5 C-8 4.34 -8 3.68 -8 3 C-5.03 3.495 -5.03 3.495 -2 4 C-2 3.01 -2 2.02 -2 1 C-1.34 0.67 -0.68 0.34 0 0 Z " fill="#E7D291" transform="translate(208,256)"/>
<path d="M0 0 C0.99 0 1.98 0 3 0 C4.25664978 2.90600261 5 4.79604584 5 8 C3.68 7.67 2.36 7.34 1 7 C1 6.01 1 5.02 1 4 C0.34 3.67 -0.32 3.34 -1 3 C-0.67 2.01 -0.34 1.02 0 0 Z " fill="#61534A" transform="translate(267,254)"/>
<path d="M0 0 C0.66 0 1.32 0 2 0 C2 0.99 2 1.98 2 3 C2.66 3 3.32 3 4 3 C4 3.99 4 4.98 4 6 C4.99 6 5.98 6 7 6 C7 6.99 7 7.98 7 9 C5.02 8.34 3.04 7.68 1 7 C0.67 4.69 0.34 2.38 0 0 Z " fill="#E1CF91" transform="translate(281,287)"/>
<path d="M0 0 C1.32 0.33 2.64 0.66 4 1 C3.01 1.495 3.01 1.495 2 2 C2 2.66 2 3.32 2 4 C2.66 4.33 3.32 4.66 4 5 C0.7 4.67 -2.6 4.34 -6 4 C-5.67 3.34 -5.34 2.68 -5 2 C-3.02 2.495 -3.02 2.495 -1 3 C-0.67 2.01 -0.34 1.02 0 0 Z " fill="#6AA1A1" transform="translate(274,273)"/>
<path d="M0 0 C1.875 0.25 1.875 0.25 4 1 C5.125 3 5.125 3 6 5 C6.66 5.33 7.32 5.66 8 6 C8 6.66 8 7.32 8 8 C4.11137013 6.73882275 2.10624401 5.54735833 0 2 C0 1.34 0 0.68 0 0 Z " fill="#8B6A4D" transform="translate(274,250)"/>
<path d="M0 0 C0.99 0.495 0.99 0.495 2 1 C2.625 4.0625 2.625 4.0625 3 7 C3.66 7 4.32 7 5 7 C5 7.99 5 8.98 5 10 C1.125 8.125 1.125 8.125 0 7 C-0.04092937 4.66702567 -0.04241723 2.33294775 0 0 Z " fill="#D1AB7B" transform="translate(245,232)"/>
<path d="M0 0 C1.5 1.1875 1.5 1.1875 3 3 C3.1875 5.6875 3.1875 5.6875 3 8 C2.67 7.34 2.34 6.68 2 6 C0.35 6.66 -1.3 7.32 -3 8 C-3 6.35 -3 4.7 -3 3 C-2.01 3 -1.02 3 0 3 C0 2.01 0 1.02 0 0 Z " fill="#C29A71" transform="translate(275,228)"/>
<path d="M0 0 C2.0625 0.4375 2.0625 0.4375 4 1 C4.33 2.32 4.66 3.64 5 5 C3.02 5.33 1.04 5.66 -1 6 C-1.042721 4.33388095 -1.04063832 2.66617115 -1 1 C-0.67 0.67 -0.34 0.34 0 0 Z " fill="#489C9F" transform="translate(247,270)"/>
<path d="M0 0 C0.66 0.99 1.32 1.98 2 3 C1.67 3.99 1.34 4.98 1 6 C-2 6 -2 6 -5 5 C-4.67 4.34 -4.34 3.68 -4 3 C-3.34 3 -2.68 3 -2 3 C-1.67 2.34 -1.34 1.68 -1 1 C-0.67 0.67 -0.34 0.34 0 0 Z " fill="#7A6959" transform="translate(267,258)"/>
<path d="M0 0 C0.99 0 1.98 0 3 0 C3 0.99 3 1.98 3 3 C3.99 3 4.98 3 6 3 C5.67 4.32 5.34 5.64 5 7 C3.68 7 2.36 7 1 7 C1.33 5.35 1.66 3.7 2 2 C1.34 2 0.68 2 0 2 C0 1.34 0 0.68 0 0 Z " fill="#EEA67C" transform="translate(213,246)"/>
<path d="M0 0 C1.32 0 2.64 0 4 0 C4.33 1.98 4.66 3.96 5 6 C3.35 6 1.7 6 0 6 C0 4.02 0 2.04 0 0 Z " fill="#C29F7E" transform="translate(243,206)"/>
<path d="M0 0 C0.99 0.33 1.98 0.66 3 1 C2.6875 2.9375 2.6875 2.9375 2 5 C1.01 5.33 0.02 5.66 -1 6 C-1.66 5.67 -2.32 5.34 -3 5 C-2.625 3.0625 -2.625 3.0625 -2 1 C-1.34 0.67 -0.68 0.34 0 0 Z " fill="#EFEDED" transform="translate(286,263)"/>
<path d="M0 0 C0 0.66 0 1.32 0 2 C-1.98 2.33 -3.96 2.66 -6 3 C-6.33 2.01 -6.66 1.02 -7 0 C-4.3333581 -1.33332095 -2.83319697 -0.67102033 0 0 Z " fill="#469799" transform="translate(225,258)"/>
<path d="M0 0 C0.66 0.33 1.32 0.66 2 1 C2.40729228 3.32156597 2.74438677 5.6568787 3 8 C0.525 7.01 0.525 7.01 -2 6 C-2 3 -2 3 0 0 Z " fill="#CDA77E" transform="translate(248,247)"/>
<path d="M0 0 C0.66 1.32 1.32 2.64 2 4 C2.66 4 3.32 4 4 4 C4.66 5.32 5.32 6.64 6 8 C4.35 8 2.7 8 1 8 C0.67 5.36 0.34 2.72 0 0 Z " fill="#BA935E" transform="translate(230,238)"/>
<path d="M0 0 C3.35620271 1.38877354 5.07298728 2.91677965 7 6 C7 6.66 7 7.32 7 8 C3.51866169 6.60746468 2.52113967 5.36823784 1 2 C0.34 1.67 -0.32 1.34 -1 1 C-0.67 0.67 -0.34 0.34 0 0 Z " fill="#66544A" transform="translate(276,220)"/>
<path d="M0 0 C2.475 0.99 2.475 0.99 5 2 C4.67 3.98 4.34 5.96 4 8 C3.34 7.67 2.68 7.34 2 7 C2 6.34 2 5.68 2 5 C1.34 5 0.68 5 0 5 C0 3.35 0 1.7 0 0 Z " fill="#B68855" transform="translate(259,212)"/>
<path d="M0 0 C1.32 0.33 2.64 0.66 4 1 C4 1.66 4 2.32 4 3 C4.66 3.33 5.32 3.66 6 4 C5.34 4.66 4.68 5.32 4 6 C3.01 5.67 2.02 5.34 1 5 C0.67 3.35 0.34 1.7 0 0 Z " fill="#A8AC7D" transform="translate(232,293)"/>
<path d="M0 0 C1.32 0 2.64 0 4 0 C4.33 1.32 4.66 2.64 5 4 C3.35 4.33 1.7 4.66 0 5 C-0.33 4.01 -0.66 3.02 -1 2 C-0.67 1.34 -0.34 0.68 0 0 Z " fill="#DCD8A6" transform="translate(277,278)"/>
<path d="M0 0 C0.99 0.33 1.98 0.66 3 1 C3.33 2.65 3.66 4.3 4 6 C2.35 5.67 0.7 5.34 -1 5 C-0.67 3.35 -0.34 1.7 0 0 Z " fill="#5C9A9B" transform="translate(229,266)"/>
<path d="M0 0 C1.32 0.66 2.64 1.32 4 2 C3.67 2.66 3.34 3.32 3 4 C0.93359375 4.6328125 0.93359375 4.6328125 -1.5625 5.125 C-2.38878906 5.29257812 -3.21507812 5.46015625 -4.06640625 5.6328125 C-4.70449219 5.75398438 -5.34257812 5.87515625 -6 6 C-6 5.34 -6 4.68 -6 4 C-4.02 3.34 -2.04 2.68 0 2 C0 1.34 0 0.68 0 0 Z " fill="#756962" transform="translate(287,259)"/>
<path d="M0 0 C1.1725131 0.95117134 2.33787015 1.91117009 3.5 2.875 C4.47453125 3.67550781 4.47453125 3.67550781 5.46875 4.4921875 C5.9740625 4.98976563 6.479375 5.48734375 7 6 C7 6.66 7 7.32 7 8 C5.35 7.67 3.7 7.34 2 7 C1.855625 6.401875 1.71125 5.80375 1.5625 5.1875 C1.1127561 3.43849596 0.57107659 1.71322977 0 0 Z " fill="#73635A" transform="translate(270,256)"/>
<path d="M0 0 C1.485 0.99 1.485 0.99 3 2 C3.66 1.67 4.32 1.34 5 1 C6.32 2.32 7.64 3.64 9 5 C7.3125 5.75 7.3125 5.75 5 6 C2.25 4.1875 2.25 4.1875 0 2 C0 1.34 0 0.68 0 0 Z " fill="#966850" transform="translate(256,252)"/>
<path d="M0 0 C1.98 0 3.96 0 6 0 C5.67 1.32 5.34 2.64 5 4 C3.35 3.67 1.7 3.34 0 3 C0 2.01 0 1.02 0 0 Z " fill="#EACD77" transform="translate(215,231)"/>
<path d="M0 0 C1.65 0.33 3.3 0.66 5 1 C5 1.99 5 2.98 5 4 C2.36 4 -0.28 4 -3 4 C-2.01 2.68 -1.02 1.36 0 0 Z " fill="#9C6D52" transform="translate(241,214)"/>
<path d="M0 0 C0.33 0.66 0.66 1.32 1 2 C1.61875 2.28875 2.2375 2.5775 2.875 2.875 C5.36796335 4.19480413 6.45147781 5.67721672 8 8 C5.62051228 7.82374165 4.29774151 7.30280227 2.62109375 5.59765625 C1.37884514 4.09350908 0.18623944 2.54870149 -1 1 C-0.67 0.67 -0.34 0.34 0 0 Z " fill="#57504C" transform="translate(279,210)"/>
<path d="M0 0 C0.99 0.33 1.98 0.66 3 1 C3.33 1.99 3.66 2.98 4 4 C1.50935112 4.68707555 -0.37886292 5 -3 5 C-3 4.01 -3 3.02 -3 2 C-2.01 1.34 -1.02 0.68 0 0 Z " fill="#B59473" transform="translate(280,207)"/>
<path d="M0 0 C0.33 0.99 0.66 1.98 1 3 C-1.70879335 4.35439668 -4.00933268 4.06501451 -7 4 C-7.33 3.34 -7.66 2.68 -8 2 C-5.36 1.34 -2.72 0.68 0 0 Z " fill="#A8AC7D" transform="translate(276,297)"/>
<path d="M0 0 C0.99 0 1.98 0 3 0 C4 3 4 3 3 6 C1.68 6 0.36 6 -1 6 C-0.67 4.02 -0.34 2.04 0 0 Z " fill="#A8AC7D" transform="translate(286,285)"/>
<path d="M0 0 C0.185625 0.9590625 0.185625 0.9590625 0.375 1.9375 C0.684375 2.9584375 0.684375 2.9584375 1 4 C1.66 4.33 2.32 4.66 3 5 C2.34 5 1.68 5 1 5 C1.33 6.65 1.66 8.3 2 10 C-1.875 8.25 -1.875 8.25 -3 6 C-2.34 6 -1.68 6 -1 6 C-0.67 4.02 -0.34 2.04 0 0 Z " fill="#B9BC95" transform="translate(205,261)"/>
<path d="M0 0 C0.33 0 0.66 0 1 0 C1 1.98 1 3.96 1 6 C-0.32 6.33 -1.64 6.66 -3 7 C-3.66 5.35 -4.32 3.7 -5 2 C-4.01 2 -3.02 2 -2 2 C-2 2.66 -2 3.32 -2 4 C-1.34 4 -0.68 4 0 4 C0 2.68 0 1.36 0 0 Z " fill="#92664F" transform="translate(268,249)"/>
<path d="M0 0 C0.99 0.33 1.98 0.66 3 1 C4.1875 3.5625 4.1875 3.5625 5 6 C4.01 6.33 3.02 6.66 2 7 C0 4 0 4 0 0 Z " fill="#6B5548" transform="translate(255,237)"/>
<path d="M0 0 C1.9375 0.5 1.9375 0.5 4 2 C4.68790422 4.69658452 4.81946464 7.2017019 5 10 C3.35 8.35 1.7 6.7 0 5 C0.33 4.34 0.66 3.68 1 3 C0.67 2.01 0.34 1.02 0 0 Z " fill="#A17E66" transform="translate(274,236)"/>
<path d="M0 0 C0.33 0 0.66 0 1 0 C0.25 6.75 0.25 6.75 -2 9 C-3.35439668 6.29120665 -3.06501451 3.99066732 -3 1 C-2.34 1.66 -1.68 2.32 -1 3 C-0.67 2.01 -0.34 1.02 0 0 Z " fill="#A47B52" transform="translate(263,216)"/>
<path d="M0 0 C2.64 0 5.28 0 8 0 C7.67 0.99 7.34 1.98 7 3 C5.02 3 3.04 3 1 3 C0.67 2.01 0.34 1.02 0 0 Z " fill="#D7B181" transform="translate(257,202)"/>
<path d="M0 0 C0.99 0.33 1.98 0.66 3 1 C3 2.32 3 3.64 3 5 C1.02 5 -0.96 5 -3 5 C-2.67 3.68 -2.34 2.36 -2 1 C-2 1.99 -2 2.98 -2 4 C-1.34 4 -0.68 4 0 4 C0 2.68 0 1.36 0 0 Z " fill="#5B9D99" transform="translate(259,277)"/>
<path d="M0 0 C2.97 0 5.94 0 9 0 C8.34 1.32 7.68 2.64 7 4 C6.01 4.33 5.02 4.66 4 5 C4 4.01 4 3.02 4 2 C2.68 1.34 1.36 0.68 0 0 Z " fill="#C8DAE1" transform="translate(233,272)"/>
<path d="M0 0 C1 3 1 3 0.22265625 5.04296875 C-0.16019531 5.75066406 -0.54304688 6.45835937 -0.9375 7.1875 C-1.31777344 7.90292969 -1.69804687 8.61835938 -2.08984375 9.35546875 C-2.54037109 10.16951172 -2.54037109 10.16951172 -3 11 C-3.83583327 8.62392051 -4.1842383 7.45550373 -3.22265625 5.078125 C-1.61132812 2.5390625 -1.61132812 2.5390625 0 0 Z " fill="#929761" transform="translate(305,264)"/>
<path d="M0 0 C1.5625 1.75 1.5625 1.75 3 4 C2.875 6.1875 2.875 6.1875 2 8 C1.01 8.33 0.02 8.66 -1 9 C-1.09765625 2.84765625 -1.09765625 2.84765625 -1 1 C-0.67 0.67 -0.34 0.34 0 0 Z " fill="#B1B58A" transform="translate(310,245)"/>
<path d="M0 0 C0.99 0.33 1.98 0.66 3 1 C3 1.99 3 2.98 3 4 C3.66 4.33 4.32 4.66 5 5 C3 6 3 6 0 6 C-1.125 2.25 -1.125 2.25 0 0 Z " fill="#5F524A" transform="translate(257,227)"/>
<path d="M0 0 C0.66 0.33 1.32 0.66 2 1 C1.34 3.31 0.68 5.62 0 8 C-0.66 8 -1.32 8 -2 8 C-2.6875 5.6875 -2.6875 5.6875 -3 3 C-1.5625 1.1875 -1.5625 1.1875 0 0 Z " fill="#96C3C4" transform="translate(259,273)"/>
<path d="M0 0 C4.875 3.625 4.875 3.625 6 7 C4.125 6.6875 4.125 6.6875 2 6 C0 3 0 3 0 0 Z " fill="#6F5849" transform="translate(250,238)"/>
<path d="M0 0 C3.26954202 0.56371414 4.82575883 1.49962266 7 4 C5.1875 4.6875 5.1875 4.6875 3 5 C1.25 3.6875 1.25 3.6875 0 2 C0 1.34 0 0.68 0 0 Z " fill="#AD8468" transform="translate(282,211)"/>
<path d="M0 0 C2.97 0 5.94 0 9 0 C6.23776722 2.76223278 3.79293383 2.57856291 0 3 C0 2.01 0 1.02 0 0 Z " fill="#B2937B" transform="translate(256,200)"/>
<path d="M0 0 C0.556875 0.226875 1.11375 0.45375 1.6875 0.6875 C-2.74326923 3.76442308 -2.74326923 3.76442308 -5.625 3.375 C-6.4603125 3.0346875 -6.4603125 3.0346875 -7.3125 2.6875 C-2.88173077 -0.38942308 -2.88173077 -0.38942308 0 0 Z " fill="#929761" transform="translate(277.3125,293.3125)"/>
<path d="M0 0 C0.99 0 1.98 0 3 0 C3 0.99 3 1.98 3 3 C2.01 3.495 2.01 3.495 1 4 C-0.13350534 6.01669827 -0.13350534 6.01669827 -1 8 C-1.04241723 5.66705225 -1.04092937 3.33297433 -1 1 C-0.67 0.67 -0.34 0.34 0 0 Z " fill="#D4A177" transform="translate(246,278)"/>
<path d="M0 0 C1.65 1.65 3.3 3.3 5 5 C4.34 5.66 3.68 6.32 3 7 C1.35 6.01 -0.3 5.02 -2 4 C-1.34 2.68 -0.68 1.36 0 0 Z " fill="#DCCC94" transform="translate(299,275)"/>
<path d="M0 0 C2.475 0.99 2.475 0.99 5 2 C4.67 2.99 4.34 3.98 4 5 C2.68 4.34 1.36 3.68 0 3 C0 2.01 0 1.02 0 0 Z " fill="#F7E29E" transform="translate(224,272)"/>
<path d="M0 0 C1.65 1.65 3.3 3.3 5 5 C4.01 5.33 3.02 5.66 2 6 C1.01 5.34 0.02 4.68 -1 4 C-0.67 2.68 -0.34 1.36 0 0 Z " fill="#EDECEB" transform="translate(270,260)"/>
<path d="M0 0 C1.32 0 2.64 0 4 0 C4.33 0.99 4.66 1.98 5 3 C3.35 3.33 1.7 3.66 0 4 C0 2.68 0 1.36 0 0 Z " fill="#EBB8C2" transform="translate(235,262)"/>
<path d="M0 0 C0.99 0 1.98 0 3 0 C3.33 1.65 3.66 3.3 4 5 C3.01 5.33 2.02 5.66 1 6 C0 5 0 5 -0.0625 2.4375 C-0.041875 1.633125 -0.02125 0.82875 0 0 Z " fill="#625248" transform="translate(265,243)"/>
<path d="M0 0 C-1 3 -1 3 -2 5 C-3.32 4.67 -4.64 4.34 -6 4 C-5.67 3.01 -5.34 2.02 -5 1 C-3 0 -3 0 0 0 Z " fill="#CCA87C" transform="translate(264,243)"/>
<path d="M0 0 C0.66 0 1.32 0 2 0 C1.6875 2.875 1.6875 2.875 1 6 C0.01 6.66 -0.98 7.32 -2 8 C-1.125 1.125 -1.125 1.125 0 0 Z " fill="#CDA882" transform="translate(245,224)"/>
</svg>
