<svg id="svg" xmlns="http://www.w3.org/2000/svg" xmlns:xlink="http://www.w3.org/1999/xlink" width="400" height="400" viewBox="0, 0, 400,400"><g id="svgg"><path id="path0" d="M101.563 9.542 C 95.538 11.852,88.339 19.136,86.064 25.225 L 84.375 29.746 84.375 200.000 L 84.375 370.254 86.064 374.775 C 88.397 381.019,95.543 388.165,101.787 390.498 L 106.309 392.187 200.391 392.187 L 294.473 392.187 298.994 390.498 C 305.238 388.165,312.384 381.019,314.717 374.775 L 316.406 370.254 316.406 200.000 L 316.406 29.746 314.717 25.225 C 312.384 18.981,305.238 11.835,298.994 9.502 L 294.473 7.813 200.166 7.853 C 106.163 7.894,105.846 7.899,101.563 9.542 M295.713 19.257 C 299.990 21.548,303.040 24.718,304.998 28.906 L 306.641 32.422 306.641 199.609 C 306.641 384.521,307.068 370.108,301.398 376.260 C 295.299 382.877,302.787 382.422,200.000 382.422 C 109.133 382.422,108.979 382.419,105.469 380.779 C 101.005 378.693,97.870 375.558,95.784 371.094 L 94.141 367.578 94.141 200.000 L 94.141 32.422 95.784 28.906 C 98.592 22.897,103.552 18.996,109.766 17.908 C 111.484 17.607,153.320 17.410,202.734 17.470 L 292.578 17.578 295.713 19.257 M113.469 32.808 C 107.250 36.600,107.818 21.368,107.818 184.375 C 107.818 347.382,107.250 332.150,113.469 335.942 C 117.468 338.380,283.313 338.380,287.312 335.942 C 293.531 332.150,292.963 347.382,292.963 184.375 C 292.963 21.368,293.531 36.600,287.312 32.808 C 283.313 30.370,117.468 30.370,113.469 32.808 M282.031 42.188 C 284.497 44.654,284.497 324.096,282.031 326.563 C 280.489 328.105,279.427 328.125,200.391 328.125 C 121.354 328.125,120.292 328.105,118.750 326.563 C 116.284 324.096,116.284 44.654,118.750 42.188 C 121.210 39.727,279.571 39.727,282.031 42.188 M127.814 49.912 C 123.552 54.622,128.262 64.557,133.398 61.693 C 138.095 59.074,136.371 48.438,131.250 48.438 C 130.094 48.438,128.548 49.101,127.814 49.912 M128.299 69.185 L 126.563 70.401 126.563 102.658 C 126.563 138.179,126.468 137.500,131.386 137.500 C 135.959 137.500,135.938 137.666,135.938 102.522 L 135.938 70.401 134.201 69.185 C 133.246 68.516,131.918 67.969,131.250 67.969 C 130.582 67.969,129.254 68.516,128.299 69.185 M237.344 277.969 C 228.279 287.033,227.313 289.032,230.469 292.188 C 233.625 295.343,235.623 294.377,244.688 285.313 C 253.752 276.248,254.718 274.250,251.563 271.094 C 248.407 267.938,246.408 268.904,237.344 277.969 M248.119 289.790 C 230.701 307.280,230.017 308.346,234.176 311.523 C 237.499 314.062,238.897 313.070,255.671 296.282 C 272.719 279.219,273.748 277.719,270.446 274.730 C 266.830 271.458,265.445 272.393,248.119 289.790 M194.531 345.509 C 183.692 351.296,182.775 367.477,192.883 374.597 C 200.201 379.751,211.608 377.747,216.784 370.399 C 226.918 356.011,210.098 337.198,194.531 345.509 M208.215 356.505 C 211.333 360.955,208.136 367.188,202.734 367.188 C 195.409 367.188,193.437 357.168,200.202 354.323 C 203.116 353.098,206.469 354.011,208.215 356.505 " stroke="none" fill="#ffffff" fill-rule="evenodd"></path></g></svg>