<svg id="svg" xmlns="http://www.w3.org/2000/svg" xmlns:xlink="http://www.w3.org/1999/xlink" width="400" height="400" viewBox="0, 0, 400,400"><g id="svgg"><path id="path0" d="M33.203 28.450 C 18.221 32.182,6.484 43.001,1.941 57.267 L 0.000 63.362 0.000 170.970 C 0.000 265.075,0.150 279.154,1.196 283.171 C 4.899 297.388,15.913 308.602,31.250 313.773 C 35.326 315.147,40.445 315.233,130.946 315.444 L 226.346 315.667 228.491 320.713 C 245.386 360.467,294.454 382.275,337.109 368.989 C 400.511 349.242,421.086 269.029,375.098 220.889 C 363.073 208.300,349.010 200.179,331.445 195.681 L 325.781 194.230 325.768 130.513 C 325.757 78.942,325.546 65.814,324.661 61.641 C 321.217 45.395,308.442 32.395,292.146 28.554 C 285.321 26.945,39.639 26.846,33.203 28.450 M285.835 41.376 C 295.736 42.807,304.667 49.326,309.103 58.359 L 311.328 62.891 311.572 82.617 L 311.816 102.344 162.488 102.344 L 13.159 102.344 13.444 83.398 C 13.886 54.048,20.148 44.313,40.625 41.140 C 44.950 40.470,281.140 40.697,285.835 41.376 M35.231 54.030 C 19.514 58.547,17.486 80.496,32.113 87.785 C 47.919 95.662,64.198 79.647,56.717 63.580 C 53.057 55.719,43.750 51.582,35.231 54.030 M88.348 53.975 C 72.163 57.142,68.950 80.013,83.606 87.736 C 94.537 93.496,107.841 87.369,110.047 75.560 C 112.556 62.132,101.725 51.358,88.348 53.975 M136.285 55.380 C 118.766 63.337,124.819 90.039,144.141 90.039 C 160.690 90.039,168.641 69.782,156.544 58.440 C 151.656 53.857,142.636 52.495,136.285 55.380 M43.308 68.225 C 45.039 69.491,45.161 73.142,43.527 74.777 C 41.892 76.411,38.241 76.289,36.975 74.558 C 33.777 70.185,38.935 65.027,43.308 68.225 M95.313 68.750 C 99.620 73.057,93.749 79.036,89.308 74.864 C 86.312 72.049,88.136 67.188,92.188 67.188 C 93.047 67.188,94.453 67.891,95.313 68.750 M146.701 68.404 C 149.889 70.637,148.128 76.563,144.276 76.563 C 140.182 76.563,138.255 70.733,141.580 68.404 C 142.535 67.735,143.687 67.188,144.141 67.188 C 144.594 67.188,145.746 67.735,146.701 68.404 M311.719 154.297 C 311.719 188.702,311.585 192.969,310.508 192.969 C 305.738 192.969,302.360 198.220,304.239 202.716 C 305.557 205.871,307.929 206.713,317.285 207.349 C 356.675 210.025,389.274 247.769,386.458 287.439 C 381.952 350.913,308.915 381.581,260.091 340.501 C 249.633 331.702,235.938 308.691,235.938 299.918 C 235.938 299.533,239.014 299.208,242.773 299.194 C 257.106 299.142,257.202 296.204,243.578 274.609 C 228.281 250.363,228.286 250.363,212.972 274.516 C 199.316 296.055,199.473 299.219,214.199 299.219 C 220.501 299.219,221.875 299.428,221.875 300.391 C 221.875 302.271,40.314 302.152,34.709 300.268 C 25.939 297.319,19.913 291.838,15.808 283.075 L 13.672 278.516 13.459 197.070 L 13.246 115.625 162.482 115.625 L 311.719 115.625 311.719 154.297 M304.117 237.278 C 299.397 238.163,299.219 239.235,299.219 266.797 C 299.219 291.088,299.276 292.049,300.838 294.035 L 302.457 296.094 323.139 296.094 L 343.821 296.094 345.739 294.176 C 348.806 291.109,347.876 285.438,344.018 283.680 C 342.836 283.142,336.495 282.813,327.307 282.813 L 312.500 282.813 312.500 261.855 C 312.500 237.676,311.868 235.823,304.117 237.278 M228.668 285.778 C 221.898 286.067,221.997 286.217,225.430 280.851 L 228.293 276.375 231.190 280.961 L 234.087 285.547 228.668 285.778 " stroke="none" fill="#ffffff" fill-rule="evenodd"></path></g></svg>