<?xml version="1.0" encoding="UTF-8"?>
<svg version="1.1" xmlns="http://www.w3.org/2000/svg" width="512" height="512">
<path d="M0 0 C20.95550857 13.84604777 37.17156457 34.85243985 48.66796875 57.05078125 C48.66796875 57.71078125 48.66796875 58.37078125 48.66796875 59.05078125 C49.3228125 59.004375 49.97765625 58.95796875 50.65234375 58.91015625 C62.91601735 58.42515221 72.21279573 62.45538606 81.66796875 70.05078125 C82.41691406 70.63601562 83.16585938 71.22125 83.9375 71.82421875 C106.87819412 90.86780722 121.14341682 124.73917239 127.5625 153.06640625 C127.72330048 153.75721283 127.88410095 154.44801941 128.04977417 155.15975952 C128.84414891 158.57886899 129.59325334 161.99631173 130.26367188 165.44189453 C131.83355474 172.40402245 133.22535905 176.42758073 139.140625 180.67578125 C140.07011963 181.23265625 140.99961426 181.78953125 141.95727539 182.36328125 C164.46065242 196.37240869 174.48027838 232.70637209 180.31640625 256.51953125 C182.42172836 265.68950765 183.98358375 274.65849764 184.66796875 284.05078125 C185.45115479 284.35169678 186.23434082 284.6526123 187.04125977 284.96264648 C196.28659214 288.79259782 202.06964072 298.03476402 205.91796875 306.86328125 C215.44380015 332.70209893 207.60109257 362.06613217 196.54296875 386.109375 C183.23057526 414.34251078 163.03497891 438.7638464 137.66796875 457.05078125 C137.00877441 457.52725098 136.34958008 458.0037207 135.67041016 458.49462891 C88.34232261 492.26861097 31.54608917 505.56637253 -25.89453125 505.36328125 C-26.99453461 505.3611261 -28.09453796 505.35897095 -29.22787476 505.35675049 C-45.76737527 505.30481547 -62.00165688 504.91728313 -78.33203125 502.05078125 C-80.08966797 501.74479004 -80.08966797 501.74479004 -81.8828125 501.43261719 C-125.11903495 493.65688818 -168.06496332 477.52863542 -201.33203125 448.05078125 C-202.15316406 447.33792969 -202.97429687 446.62507813 -203.8203125 445.890625 C-206.36248836 443.64892405 -208.85424289 441.36338372 -211.33203125 439.05078125 C-212.62560547 437.85582031 -212.62560547 437.85582031 -213.9453125 436.63671875 C-240.87595311 410.83630763 -261.45496689 372.20890354 -262.54980469 334.55761719 C-262.79829119 318.60177148 -259.68867842 302.35577372 -248.33203125 290.42578125 C-240.1973746 283.05078125 -240.1973746 283.05078125 -235.33203125 283.05078125 C-235.28304687 282.37853516 -235.2340625 281.70628906 -235.18359375 281.01367188 C-232.22785413 244.39817328 -218.46943703 204.02775086 -190.30688477 179.27050781 C-188.03630544 176.71838676 -187.56187952 175.14054595 -186.91015625 171.81640625 C-186.69383545 170.7795166 -186.47751465 169.74262695 -186.25463867 168.67431641 C-186.03267822 167.5610498 -185.81071777 166.4477832 -185.58203125 165.30078125 C-177.8215986 129.37591299 -162.82795454 87.13438033 -130.85546875 65.58984375 C-123.20121218 60.92145816 -116.50333278 58.89753578 -107.51953125 58.98828125 C-106.35808594 58.99730469 -105.19664062 59.00632812 -104 59.015625 C-103.11957031 59.02722656 -102.23914063 59.03882812 -101.33203125 59.05078125 C-101.08195313 58.36628906 -100.831875 57.68179688 -100.57421875 56.9765625 C-90.01165809 32.09807842 -69.07362401 7.84275483 -44.7109375 -4.01171875 C-29.69120978 -9.93082327 -13.82886701 -8.08980614 0 0 Z " fill="#111016" transform="translate(282.33203125,6.94921875)"/>
<path d="M0 0 C0.73621582 0.13921875 1.47243164 0.2784375 2.23095703 0.421875 C47.74491092 9.23300118 95.4299142 25.8815686 132.3671875 54.578125 C133.31851563 55.31546875 134.26984375 56.0528125 135.25 56.8125 C136.43335938 57.78123047 136.43335938 57.78123047 137.640625 58.76953125 C139.99064043 60.23052881 139.99064043 60.23052881 142.9375 59.97265625 C146.63811859 58.79733223 148.77610655 57.11897943 151.75 54.625 C159.66721562 48.24306193 168.19553934 43.06196512 177 38 C178.08547119 37.37375732 178.08547119 37.37375732 179.19287109 36.73486328 C214.15659183 16.83340923 254.03534925 4.50464336 293.63598633 -1.63037109 C295.38427417 -1.90372726 297.12743279 -2.21035555 298.86694336 -2.53491211 C304.13236113 -3.31653923 309.40640296 -3.1859458 314.72070312 -3.18530273 C316.73068757 -3.18747909 318.74011306 -3.20564353 320.75 -3.22460938 C331.68691743 -3.24094939 344.43252581 -2.96811247 353.01171875 4.828125 C363.45728694 16.30292109 363.81008609 29.52590792 363.18212891 44.328125 C361.03959525 75.75961063 341.85283585 106.43684222 320.40234375 128.54199219 C319.15163798 129.84234297 317.93280744 131.17318086 316.71875 132.5078125 C303.60017136 146.50404253 286.8584573 157.09693897 270 166 C269.27619141 166.38849121 268.55238281 166.77698242 267.80664062 167.17724609 C248.87673555 177.20121972 227.13004966 184.49775207 206.10839844 188.58789062 C203.74645866 189.04955741 201.39381798 189.54990946 199.0390625 190.046875 C133.22896606 203.45140651 55.76214078 194.29495891 -1.25 157.375 C-3.86673518 155.62812386 -6.44342534 153.83363405 -9 152 C-9.58668457 151.58008789 -10.17336914 151.16017578 -10.77783203 150.72753906 C-19.05337859 144.72981621 -26.61416158 138.04255297 -34 131 C-34.79148438 130.26136719 -35.58296875 129.52273438 -36.3984375 128.76171875 C-58.51833832 107.53437533 -78.14972905 73.04163342 -79.30078125 41.81640625 C-79.31998554 40.06520511 -79.32363609 38.31377103 -79.3125 36.5625 C-79.30758545 35.64380127 -79.3026709 34.72510254 -79.29760742 33.77856445 C-79.10901034 22.8641126 -77.00331093 13.45832961 -69.40234375 5.28125 C-52.8751537 -10.07887196 -20.11856639 -3.90178257 0 0 Z " fill="#BD7C58" transform="translate(114,303)"/>
<path d="M0 0 C0.73621582 0.13921875 1.47243164 0.2784375 2.23095703 0.421875 C15.05478172 2.90446172 27.61368156 6.51794532 40.13916016 10.18896484 C42.69077595 10.91233638 45.24510192 11.55966804 47.82421875 12.17578125 C57.08948151 14.52213716 57.08948151 14.52213716 59.28515625 18.0859375 C59.9375 20.625 59.9375 20.625 60.359375 23.52734375 C61.19390943 28.05113101 62.8690231 31.97848367 64.6875 36.1875 C65.038125 37.00661865 65.38875 37.8257373 65.75 38.66967773 C69.19204412 46.60835966 72.95560964 54.35228604 77 62 C77.51167725 62.97549805 77.51167725 62.97549805 78.03369141 63.97070312 C86.51666966 80.01210587 96.98935076 94.42905494 109 108 C109.77085937 108.88171875 110.54171875 109.7634375 111.3359375 110.671875 C132.01130859 134.03141707 156.81357292 151.84805916 185 165 C185.7213916 165.33918457 186.4427832 165.67836914 187.18603516 166.02783203 C201.55204327 172.68937536 216.4710587 176.96428009 232 180 C231 182 231 182 227.29296875 183.33203125 C203.68299611 190.38504061 179.59899797 194.05774009 155 195 C153.75186523 195.0505957 152.50373047 195.10119141 151.21777344 195.15332031 C95.68348141 197.07976568 36.71682843 184.78915919 -9 152 C-9.58668457 151.58008789 -10.17336914 151.16017578 -10.77783203 150.72753906 C-19.05337859 144.72981621 -26.61416158 138.04255297 -34 131 C-34.79148438 130.26136719 -35.58296875 129.52273438 -36.3984375 128.76171875 C-58.51833832 107.53437533 -78.14972905 73.04163342 -79.30078125 41.81640625 C-79.31998554 40.06520511 -79.32363609 38.31377103 -79.3125 36.5625 C-79.30758545 35.64380127 -79.3026709 34.72510254 -79.29760742 33.77856445 C-79.10901034 22.8641126 -77.00331093 13.45832961 -69.40234375 5.28125 C-52.8751537 -10.07887196 -20.11856639 -3.90178257 0 0 Z " fill="#AA704F" transform="translate(114,303)"/>
<path d="M0 0 C21.69307153 15.28630947 31.7601141 43.24093329 38.13671875 68.03125 C38.33998779 68.81081055 38.54325684 69.59037109 38.75268555 70.39355469 C40.29524469 76.74550458 40.85172295 83.07898626 41.26171875 89.59375 C40.35220459 89.60833252 39.44269043 89.62291504 38.50561523 89.63793945 C4.09659455 90.25180523 -28.2900559 94.28874402 -61.09008789 105.45996094 C-61.91500732 105.74000977 -62.73992676 106.02005859 -63.58984375 106.30859375 C-64.29963379 106.55730225 -65.00942383 106.80601074 -65.74072266 107.06225586 C-67.73828125 107.59375 -67.73828125 107.59375 -71.73828125 107.59375 C-71.98884277 107.07167969 -72.2394043 106.54960937 -72.49755859 106.01171875 C-79.87743409 90.72316036 -87.69290729 76.06476615 -98.53515625 62.92578125 C-99.73828125 60.59375 -99.73828125 60.59375 -99.1875 58.109375 C-93.73420267 48.64327397 -85.20842891 40.52192131 -77.73828125 32.59375 C-77.00996094 31.81128906 -76.28164063 31.02882812 -75.53125 30.22265625 C-58.77122174 12.77854521 -24.96941518 -14.85783383 0 0 Z " fill="#AC623F" transform="translate(409.73828125,196.40625)"/>
<path d="M0 0 C21.22573257 13.28660497 37.86352051 31.28850741 53 51 C51.38649457 54.53794679 49.26260691 57.53197143 47 60.6875 C38.05614736 73.41606457 30.74373638 87.00392142 24 101 C18.17582602 100.5604397 13.43796001 99.15000979 7.99462891 97.07421875 C2.6636641 95.16192092 -2.81726327 93.85075452 -8.3125 92.5 C-9.53074463 92.19884277 -10.74898926 91.89768555 -12.00415039 91.58740234 C-19.61412712 89.73945685 -27.23647224 88.04786045 -34.9375 86.625 C-36.18430542 86.39200195 -36.18430542 86.39200195 -37.45629883 86.15429688 C-49.52052401 84.04465295 -61.59470151 83.85901941 -73.8125 83.9375 C-75.19856606 83.94253316 -76.58463393 83.9470928 -77.97070312 83.95117188 C-81.31384975 83.96282047 -84.65690011 83.97917571 -88 84 C-86.86264797 74.91728639 -85.28629284 66.14327468 -82.875 57.3125 C-82.41758423 55.63365723 -82.41758423 55.63365723 -81.95092773 53.92089844 C-75.46084876 30.88383393 -64.60760286 4.62644645 -43.375 -8.5 C-29.04637199 -14.94788261 -12.38622645 -7.23307627 0 0 Z " fill="#9B5839" transform="translate(150,203)"/>
<path d="M0 0 C24.08153004 14.05549118 38.73150876 38.47586091 50.96484375 62.73046875 C51.46902832 63.71047852 51.97321289 64.69048828 52.49267578 65.70019531 C52.96946777 66.67182617 53.44625977 67.64345703 53.9375 68.64453125 C54.37457275 69.52318848 54.81164551 70.4018457 55.26196289 71.30712891 C55.96484375 73.73046875 55.96484375 73.73046875 55.24804688 75.8840332 C53.30098588 78.68571173 50.86079992 80.94989551 48.40234375 83.29296875 C42.77656251 88.77708753 37.81418286 94.54169524 32.96484375 100.73046875 C31.63263894 102.39803761 30.29962996 104.06496542 28.96484375 105.73046875 C25.09959712 104.40832505 22.70132536 102.81119016 19.77734375 99.98046875 C9.03088711 90.17543724 -4.28934257 84.26030682 -18.9453125 84.45703125 C-33.14040041 85.71323372 -45.07601525 93.17187254 -54.87890625 103.10546875 C-57.03515625 104.73046875 -57.03515625 104.73046875 -59 104.84375 C-62.06474758 103.1672566 -63.96170021 100.60932713 -66.09765625 97.91796875 C-67.06685324 96.73390807 -68.03826894 95.55166055 -69.01171875 94.37109375 C-69.75663574 93.46520508 -69.75663574 93.46520508 -70.51660156 92.54101562 C-72.92052685 89.67485648 -75.43627424 86.91683159 -77.97265625 84.16796875 C-78.84792969 83.21792969 -79.72320312 82.26789063 -80.625 81.2890625 C-82.94646512 78.73126722 -82.94646512 78.73126722 -85.4140625 76.703125 C-87.03515625 74.73046875 -87.03515625 74.73046875 -86.99609375 72.4609375 C-80.48904155 53.97138672 -69.50746502 36.74086261 -57.03515625 21.73046875 C-56.23464844 20.76496094 -55.43414062 19.79945313 -54.609375 18.8046875 C-40.52261308 2.56110079 -21.61711641 -10.35880612 0 0 Z " fill="#BD7C58" transform="translate(272.03515625,138.26953125)"/>
<path d="M0 0 C11.67263812 6.6074045 20.82844611 15.45082103 28.8125 26.1875 C29.97652344 27.70537109 29.97652344 27.70537109 31.1640625 29.25390625 C36.38183596 36.194254 40.90364658 43.48672554 45.25 51 C46.01244019 52.30686768 46.01244019 52.30686768 46.7902832 53.64013672 C49.83156796 59.00254958 52.11645377 64.25807923 53.8125 70.1875 C52.98339111 70.54875977 52.15428223 70.91001953 51.30004883 71.28222656 C30.17487293 80.53225172 9.24235988 89.87317362 -9.13061523 104.06323242 C-10.9375 105.3984375 -10.9375 105.3984375 -14.1875 107.1875 C-18.9363299 106.45924494 -23.16486222 102.53855854 -27.0625 99.8125 C-42.09856121 89.54706052 -58.60056317 81.62159528 -75.1875 74.1875 C-76.14785156 73.75566406 -77.10820312 73.32382812 -78.09765625 72.87890625 C-80.12404676 71.97376427 -82.15504006 71.0789298 -84.1875 70.1875 C-83.60496853 64.94471675 -81.07435615 60.6999572 -78.625 56.125 C-77.94727539 54.85245361 -77.94727539 54.85245361 -77.25585938 53.55419922 C-63.20396871 27.51658093 -34.66255191 -15.88860593 0 0 Z " fill="#995035" transform="translate(271.1875,239.8125)"/>
<path d="M0 0 C6.12491945 3.40169561 11.50705171 7.59335553 16.78125 12.1796875 C17.29671387 12.6236084 17.81217773 13.0675293 18.34326172 13.52490234 C37.21385223 29.91329805 37.21385223 29.91329805 40.78125 38.1796875 C39.77707031 38.76234375 38.77289063 39.345 37.73828125 39.9453125 C22.46991657 49.00908536 11.16127193 59.83106618 0.78125 74.1796875 C0.37874023 74.72334961 -0.02376953 75.26701172 -0.43847656 75.82714844 C-9.61409587 88.31889508 -16.27802875 102.37496298 -23.21875 116.1796875 C-27.04046334 114.72519326 -29.81769132 113.09517011 -33.03125 110.5546875 C-49.23144948 98.56261521 -66.25904216 93.62771686 -86.21875 93.1796875 C-85.66427204 86.78725767 -84.54599816 80.99162231 -82.65625 74.8671875 C-82.39231445 74.00617432 -82.12837891 73.14516113 -81.85644531 72.25805664 C-75.42845132 51.80551738 -66.94776378 30.87567872 -53.21875 14.1796875 C-52.51105469 13.30957031 -51.80335938 12.43945312 -51.07421875 11.54296875 C-36.95982008 -4.99386612 -19.64855572 -10.03263102 0 0 Z " fill="#8A4830" transform="translate(197.21875,85.8203125)"/>
<path d="M0 0 C0.69351563 0.495 1.38703125 0.99 2.1015625 1.5 C27.35053287 21.61870149 39.85302605 59.62671697 46 90 C46 90.66 46 91.32 46 92 C45.05640625 92.02578125 44.1128125 92.0515625 43.140625 92.078125 C24.4934336 92.90189651 8.15989981 100.44765616 -6.48388672 111.85009766 C-9.72433641 114.32934829 -10.75345731 115 -15 115 C-15.27561768 114.42258057 -15.55123535 113.84516113 -15.83520508 113.25024414 C-29.68636069 84.42008165 -46.77024416 55.51472622 -75.43359375 39.4453125 C-78 38 -78 38 -81 36 C-63.1774951 14.2918679 -29.83306947 -21.62656169 0 0 Z " fill="#995035" transform="translate(353,87)"/>
<path d="M0 0 C15.50404169 10.46583662 37.44937436 31.20607392 41.36328125 50.4921875 C40.28691406 51.02585938 39.21054687 51.55953125 38.1015625 52.109375 C15.52067791 63.53230983 -2.47204016 80.3051234 -17.63671875 100.4921875 C-20.28684884 100.3900724 -22.08109118 99.992836 -24.07763672 98.19384766 C-25.63264766 96.43725161 -27.11302831 94.64006243 -28.57421875 92.8046875 C-29.58078491 91.56953341 -30.5898909 90.33644464 -31.6015625 89.10546875 C-32.0951123 88.5017041 -32.58866211 87.89793945 -33.09716797 87.27587891 C-34.65615907 85.46966436 -36.30009487 83.81727679 -38.015625 82.16015625 C-40.63671875 79.4921875 -40.63671875 79.4921875 -40.63671875 77.4921875 C-41.23742187 77.2240625 -41.838125 76.9559375 -42.45703125 76.6796875 C-44.67177731 75.4730875 -45.84931746 74.36126571 -47.51171875 72.4921875 C-56.30925997 63.4690683 -67.46188356 57.09816794 -78.63671875 51.4921875 C-78.0891875 46.71954014 -75.91084389 43.15631556 -73.38671875 39.1796875 C-72.94996826 38.48689697 -72.51321777 37.79410645 -72.06323242 37.08032227 C-60.95824195 19.88706097 -46.014929 1.0197335 -25.59765625 -5.12109375 C-16.54158697 -6.90705164 -7.92383008 -4.5312569 0 0 Z " fill="#AC623F" transform="translate(274.63671875,19.5078125)"/>
<path d="M0 0 C4.46877145 0.37434735 6.82504486 2.13918145 10.1875 5 C11.15042969 5.81855469 12.11335938 6.63710937 13.10546875 7.48046875 C14.06066406 8.31191406 15.01585937 9.14335938 16 10 C16.84175781 10.71800781 17.68351562 11.43601562 18.55078125 12.17578125 C23.29955528 16.3186511 27.72142782 20.69262724 32 25.3125 C32.46921875 25.81628174 32.9384375 26.32006348 33.421875 26.83911133 C35.7529786 29.40461082 37.65783225 31.78947375 39 35 C37.99582031 35.58265625 36.99164063 36.1653125 35.95703125 36.765625 C20.68866657 45.82939786 9.38002193 56.65137868 -1 71 C-1.40250977 71.54366211 -1.80501953 72.08732422 -2.21972656 72.64746094 C-11.39534587 85.13920758 -18.05927875 99.19527548 -25 113 C-28.30041847 111.70142988 -31.38002713 110.41500124 -34.375 108.5 C-35.08398438 108.0771875 -35.79296875 107.654375 -36.5234375 107.21875 C-39.05682712 103.41196348 -37.71154953 99.3361812 -37 95 C-36.90283691 94.2889209 -36.80567383 93.5778418 -36.70556641 92.84521484 C-32.68915298 64.78414218 -20.43145335 20.43145335 0 0 Z " fill="#995035" transform="translate(199,89)"/>
<path d="M0 0 C4.83738032 1.51850097 8.01882802 4.27310366 11.75 7.5625 C12.36834717 8.10189209 12.98669434 8.64128418 13.6237793 9.19702148 C25.18465447 19.3649838 34.64121427 30.81251376 44 43 C42.38649457 46.53794679 40.26260691 49.53197143 38 52.6875 C29.05614736 65.41606457 21.74373638 79.00392142 15 93 C12.36 92.67 9.72 92.34 7 92 C1.60352849 68.51173767 -1.26899342 45.71489683 -1.25 21.625 C-1.24940582 20.777099 -1.24881165 19.929198 -1.24819946 19.05560303 C-1.24169873 16.63327165 -1.22526699 14.21129758 -1.203125 11.7890625 C-1.1987291 11.06104431 -1.19433319 10.33302612 -1.18980408 9.58294678 C-1.14331977 6.25418541 -1.02542294 3.18415399 0 0 Z " fill="#AB623F" transform="translate(159,211)"/>
<path d="M0 0 C-0.53753906 0.23847656 -1.07507813 0.47695313 -1.62890625 0.72265625 C-7.19884139 3.72326381 -12.0580732 8.0646345 -17 12 C-17.79204834 12.62890137 -17.79204834 12.62890137 -18.60009766 13.27050781 C-35.31905196 26.6647001 -50.24524403 42.05853036 -62 60 C-65.96 58.02 -69.92 56.04 -74 54 C-73.01369586 49.06847931 -71.3819113 45.83393957 -68.75 41.6875 C-68.31324951 40.99470947 -67.87649902 40.30191895 -67.42651367 39.58813477 C-56.30290292 22.36604469 -41.38828306 3.58720908 -20.96875 -2.6171875 C-13.52674205 -4.0642446 -7.04096864 -2.46948378 0 0 Z " fill="#9A5839" transform="translate(270,17)"/>
</svg>
