<svg id="svg" xmlns="http://www.w3.org/2000/svg" xmlns:xlink="http://www.w3.org/1999/xlink" width="400" height="400" viewBox="0, 0, 400,400"><g id="svgg"><path id="path0" d="M6.189 1.776 C 4.739 2.753,2.753 4.739,1.776 6.189 L 0.000 8.825 -0.000 178.516 L -0.000 348.206 1.776 350.842 C 5.043 355.690,7.984 357.031,15.350 357.031 L 21.875 357.031 21.875 362.916 C 21.875 374.635,27.070 379.671,39.172 379.683 L 43.579 379.687 43.869 385.422 C 44.101 390.011,44.572 391.781,46.228 394.284 C 50.305 400.445,42.311 400.000,148.924 400.000 L 244.096 400.000 272.634 371.494 L 301.172 342.988 301.402 312.979 L 301.631 282.969 308.042 282.442 C 333.511 280.350,355.502 271.307,353.595 263.710 C 352.147 257.942,348.766 257.443,339.752 261.667 C 311.415 274.946,277.776 271.748,253.255 253.443 L 248.306 249.749 276.688 221.359 C 292.298 205.744,305.423 192.963,305.855 192.957 C 307.306 192.935,381.633 212.698,382.276 213.277 C 383.842 214.687,376.583 228.615,369.395 237.993 C 365.002 243.725,364.538 246.641,367.543 249.645 C 371.984 254.086,375.833 251.696,383.961 239.453 C 425.689 176.594,384.394 94.180,308.398 88.650 L 300.781 88.095 300.781 69.945 C 300.781 45.964,299.077 42.969,285.431 42.969 L 278.906 42.969 278.893 37.305 C 278.869 26.681,274.004 21.911,263.166 21.888 L 257.192 21.875 256.916 15.372 C 256.685 9.912,256.307 8.364,254.562 5.728 C 250.444 -0.493,261.343 -0.000,127.927 -0.000 L 8.825 0.000 6.189 1.776 M243.295 12.193 C 244.229 12.551,244.531 13.793,244.531 17.267 L 244.531 21.867 175.280 22.066 L 106.028 22.266 104.435 24.399 C 102.349 27.193,103.298 31.880,106.250 33.368 C 107.782 34.140,125.259 34.354,187.305 34.363 L 266.406 34.375 266.406 38.672 L 266.406 42.969 159.961 42.982 L 53.516 42.994 50.449 44.739 C 48.538 45.827,46.699 47.781,45.566 49.928 L 43.750 53.371 43.750 210.318 L 43.750 367.265 39.258 367.031 L 34.766 366.797 34.569 200.620 L 34.371 34.443 57.003 34.214 C 82.046 33.960,81.677 34.037,82.519 28.852 C 82.846 26.832,82.537 25.642,81.264 24.023 L 79.574 21.875 55.714 21.875 C 28.526 21.875,27.560 22.078,23.752 28.576 L 21.875 31.778 21.875 188.155 L 21.875 344.531 17.188 344.531 L 12.500 344.531 12.500 178.581 C 12.500 46.551,12.700 12.550,13.477 12.236 C 14.884 11.668,241.817 11.626,243.295 12.193 M288.588 56.705 C 288.849 57.384,289.063 65.071,289.063 73.786 L 289.063 89.631 285.742 90.092 C 217.306 99.576,183.017 186.283,225.203 243.179 C 239.935 263.048,269.767 281.250,287.600 281.250 C 289.000 281.250,289.063 282.368,289.063 307.389 L 289.062 333.527 266.149 333.756 L 243.235 333.984 240.282 336.237 C 234.722 340.481,234.412 342.081,234.392 366.602 L 234.375 388.281 146.548 388.281 C 98.244 388.281,58.165 388.068,57.486 387.807 C 56.196 387.312,55.485 57.276,56.771 55.990 C 58.055 54.705,288.093 55.415,288.588 56.705 M91.121 97.713 C 88.495 99.779,88.236 104.642,90.625 107.031 C 92.160 108.567,93.229 108.594,152.344 108.594 C 220.557 108.594,215.625 109.081,215.625 102.344 C 215.625 95.609,220.491 96.094,152.840 96.094 C 93.666 96.094,93.163 96.107,91.121 97.713 M314.844 101.919 C 324.381 103.370,331.721 105.645,331.396 107.051 C 331.262 107.632,323.740 124.652,314.682 144.874 L 298.212 181.641 268.717 211.247 L 239.222 240.853 235.237 235.466 C 191.321 176.101,242.133 90.861,314.844 101.919 M350.286 115.364 C 367.905 126.888,381.533 147.495,386.107 169.531 C 387.607 176.757,387.928 199.051,386.552 200.427 C 386.038 200.942,314.080 182.178,313.048 181.260 C 312.325 180.617,343.020 111.742,344.036 111.728 C 344.407 111.723,347.220 113.359,350.286 115.364 M91.144 140.664 C 88.495 142.747,88.225 147.600,90.625 150.000 C 92.153 151.528,93.229 151.563,139.063 151.563 C 192.110 151.563,189.062 151.934,189.063 145.462 C 189.063 139.010,192.765 139.480,140.035 139.240 C 93.538 139.028,93.211 139.038,91.144 140.664 M91.121 183.650 C 88.495 185.716,88.236 190.580,90.625 192.969 C 92.147 194.491,93.229 194.531,132.813 194.531 C 178.765 194.531,176.576 194.834,176.551 188.477 C 176.524 181.856,177.722 182.031,132.579 182.031 C 93.903 182.031,93.142 182.061,91.121 183.650 M131.434 248.466 C 128.526 249.634,128.125 252.385,128.125 271.145 L 128.125 289.063 115.730 289.063 C 104.374 289.063,103.163 289.198,101.277 290.682 L 99.219 292.301 99.219 314.900 L 99.219 337.500 96.058 337.500 C 90.169 337.500,87.012 343.389,90.556 347.765 L 92.049 349.609 147.778 349.820 C 207.305 350.045,206.948 350.067,208.572 346.147 C 210.490 341.515,207.518 337.500,202.170 337.500 L 199.219 337.500 199.219 307.479 L 199.219 277.457 197.160 275.838 C 195.274 274.354,194.064 274.219,182.707 274.219 L 170.313 274.219 170.313 263.709 C 170.313 252.417,169.711 249.908,166.674 248.524 C 164.355 247.467,134.044 247.417,131.434 248.466 M157.813 298.828 L 157.813 337.500 149.219 337.500 L 140.625 337.500 140.625 298.828 L 140.625 260.156 149.219 260.156 L 157.813 260.156 157.813 298.828 M186.719 312.109 L 186.719 337.500 178.516 337.500 L 170.313 337.500 170.313 312.109 L 170.313 286.719 178.516 286.719 L 186.719 286.719 186.719 312.109 M128.125 319.531 L 128.125 337.500 119.922 337.500 L 111.719 337.500 111.719 319.531 L 111.719 301.563 119.922 301.563 L 128.125 301.563 128.125 319.531 M264.155 361.623 C 255.940 370.164,248.692 377.590,248.047 378.125 C 246.813 379.149,246.167 347.844,247.396 346.615 C 247.682 346.328,254.931 346.094,263.503 346.094 L 279.090 346.094 264.155 361.623 " stroke="none" fill="#ffffff" fill-rule="evenodd"></path></g></svg>