<svg id="svg" xmlns="http://www.w3.org/2000/svg" xmlns:xlink="http://www.w3.org/1999/xlink" width="400" height="400" viewBox="0, 0, 400,400"><g id="svgg"><path id="path0" d="M36.719 25.781 C 20.462 28.041,7.292 39.099,1.968 54.960 L -0.000 60.822 0.000 167.769 C 0.000 286.456,-0.381 277.702,5.247 288.470 C 8.556 294.803,16.394 302.510,22.780 305.710 C 32.855 310.760,26.646 310.457,125.594 310.738 L 215.641 310.993 215.047 313.114 C 213.744 317.765,214.492 331.412,216.304 336.060 C 221.630 349.723,225.814 350.128,237.979 338.158 C 244.202 332.034,246.323 330.395,247.759 330.599 C 251.585 331.142,250.383 333.510,241.929 342.090 C 231.262 352.914,230.472 356.585,237.923 360.696 C 266.871 376.664,304.354 345.914,295.750 313.256 L 294.624 308.984 302.185 301.362 L 309.746 293.741 316.779 300.774 L 323.813 307.808 312.342 319.334 C 300.612 331.120,299.276 333.151,300.733 336.982 C 302.943 342.796,309.366 342.064,315.986 335.244 L 319.862 331.251 341.825 353.125 C 369.459 380.649,365.020 380.081,386.133 358.801 C 404.883 339.902,405.758 344.510,378.157 316.828 L 356.314 294.922 360.536 290.544 C 366.628 284.224,366.955 279.329,361.459 276.695 C 357.685 274.886,355.574 276.198,344.320 287.347 L 333.563 298.005 326.542 290.985 L 319.521 283.964 326.753 276.840 L 333.984 269.717 338.672 270.317 C 371.341 274.499,396.019 241.144,381.554 212.359 C 377.066 203.428,373.471 203.824,362.572 214.453 C 353.958 222.853,351.388 224.236,350.367 221.019 C 349.943 219.683,351.361 217.846,358.067 211.039 C 368.531 200.421,369.511 196.902,363.102 192.954 C 353.396 186.976,337.873 186.847,326.423 192.649 L 322.656 194.558 322.643 129.505 C 322.628 57.108,322.705 58.307,317.426 48.237 C 312.183 38.236,303.056 30.730,291.406 26.839 C 286.832 25.311,47.259 24.316,36.719 25.781 M287.891 40.257 C 303.719 45.029,308.679 54.525,309.200 81.055 L 309.557 99.219 161.369 99.219 L 13.181 99.219 13.426 80.273 C 13.769 53.820,17.675 46.332,34.332 40.196 C 38.797 38.551,282.428 38.610,287.891 40.257 M35.016 51.854 C 24.491 54.738,18.975 66.575,23.503 76.563 C 31.617 94.460,57.778 88.795,57.778 69.141 C 57.778 56.869,46.890 48.600,35.016 51.854 M82.813 53.379 C 66.527 62.207,72.897 87.491,91.406 87.491 C 108.914 87.491,116.083 64.456,101.680 54.484 C 96.613 50.975,88.161 50.481,82.813 53.379 M134.282 53.745 C 118.345 62.071,123.221 85.878,141.159 87.318 C 147.674 87.841,152.120 86.147,156.098 81.628 C 169.540 66.357,152.305 44.330,134.282 53.745 M43.103 66.137 C 46.193 68.933,43.646 73.798,39.352 73.301 C 37.958 73.139,36.740 72.297,36.009 70.988 C 33.600 66.678,39.353 62.744,43.103 66.137 M94.579 66.454 C 96.647 68.522,96.269 70.906,93.555 72.926 L 91.406 74.524 89.258 72.926 C 85.562 70.177,86.980 64.844,91.406 64.844 C 92.266 64.844,93.693 65.568,94.579 66.454 M146.363 67.383 L 147.961 69.531 146.359 71.680 C 143.478 75.542,138.281 74.177,138.281 69.558 C 138.281 64.924,143.491 63.522,146.363 67.383 M309.375 160.092 L 309.375 207.684 307.318 211.779 C 303.091 220.196,301.926 230.991,304.292 239.844 L 305.440 244.141 299.002 250.587 L 292.564 257.034 279.333 243.786 C 266.890 231.327,266.177 230.454,267.365 229.136 C 271.619 224.416,270.316 222.119,254.500 206.445 C 237.967 190.061,239.132 190.243,227.188 202.187 C 215.278 214.097,215.089 212.888,231.445 229.491 C 246.917 245.197,249.474 246.515,254.916 241.590 C 256.237 240.395,257.092 241.093,269.568 253.552 L 282.817 266.784 274.416 275.119 L 266.016 283.455 260.943 282.728 C 248.987 281.015,235.101 285.484,226.871 293.694 L 223.665 296.894 129.606 296.689 L 35.547 296.484 30.778 294.280 C 24.745 291.492,18.728 285.449,15.858 279.297 L 13.672 274.609 13.462 193.555 L 13.253 112.500 161.314 112.500 L 309.375 112.500 309.375 160.092 M342.320 207.339 L 336.719 213.115 336.753 219.643 C 336.829 234.245,337.653 235.349,348.998 236.052 C 359.187 236.683,359.976 236.408,366.518 229.945 L 371.707 224.818 372.222 227.868 C 373.816 237.301,366.203 249.669,355.688 254.727 C 351.564 256.711,342.187 257.206,333.333 255.906 L 328.775 255.237 304.141 279.871 L 279.506 304.506 279.881 307.526 C 280.087 309.188,281.045 312.656,282.009 315.234 C 287.801 330.726,274.489 349.558,256.492 351.332 L 251.953 351.779 257.731 345.778 L 263.508 339.776 263.069 330.256 C 262.503 317.954,262.236 317.661,250.934 316.920 C 241.171 316.281,240.061 316.680,233.445 323.217 L 228.219 328.381 227.686 326.257 C 225.348 316.942,232.824 303.960,243.563 298.686 C 248.444 296.289,256.677 295.767,266.645 297.222 L 271.181 297.884 295.313 273.747 C 322.683 246.372,321.527 248.135,318.356 238.594 C 312.422 220.736,325.766 202.130,344.859 201.641 L 347.920 201.563 342.320 207.339 M250.960 225.949 L 249.213 227.696 242.201 220.717 L 235.189 213.737 236.898 211.919 L 238.606 210.101 245.657 217.152 L 252.707 224.202 250.960 225.949 M375.202 350.190 L 366.816 358.601 348.255 340.052 L 329.694 321.503 338.080 313.092 L 346.465 304.680 365.026 323.229 L 383.587 341.778 375.202 350.190 " stroke="none" fill="#ffffff" fill-rule="evenodd"></path></g></svg>