<svg id="svg" xmlns="http://www.w3.org/2000/svg" xmlns:xlink="http://www.w3.org/1999/xlink" width="400" height="400" viewBox="0, 0, 400,400"><g id="svgg"><path id="path0" d="M309.766 12.971 C 275.158 18.093,251.172 44.361,249.449 79.026 L 248.996 88.130 235.450 101.659 L 221.904 115.189 211.498 104.885 C 198.897 92.407,196.444 91.034,186.719 91.023 C 174.278 91.009,164.237 98.932,162.072 110.471 C 161.522 113.403,161.469 113.441,158.595 112.981 C 140.472 110.083,125.188 130.298,132.357 147.684 C 132.731 148.593,132.021 149.106,129.428 149.800 C 119.993 152.324,113.076 162.318,113.076 173.428 C 113.076 178.784,112.885 179.688,111.755 179.687 C 105.634 179.687,96.022 186.945,92.892 193.930 C 88.184 204.436,90.715 214.773,100.504 225.018 L 106.177 230.956 96.632 240.478 L 87.087 250.000 82.272 250.000 C 20.374 250.000,-11.861 323.221,30.737 367.059 C 73.539 411.107,146.440 383.184,149.724 321.484 L 150.181 312.891 159.653 303.316 L 169.126 293.741 204.079 328.689 L 239.033 363.636 236.157 366.581 C 231.421 371.432,231.929 373.681,239.474 381.271 C 244.965 386.795,245.991 387.500,248.528 387.500 C 255.470 387.500,257.481 380.661,252.146 375.197 L 249.249 372.231 297.481 324.003 L 345.713 275.776 360.942 291.092 C 378.869 309.122,383.412 311.648,386.735 305.438 C 389.422 300.417,388.786 299.483,369.336 279.862 C 347.430 257.763,346.116 256.999,339.972 262.781 L 337.367 265.234 335.037 262.500 C 327.696 253.882,325.187 244.858,321.899 215.234 C 318.568 185.229,316.382 177.395,308.601 167.574 C 302.156 159.441,302.282 160.663,307.360 155.532 L 311.838 151.006 320.958 150.552 C 366.090 148.308,397.426 105.315,384.853 62.891 C 380.057 46.707,378.280 47.246,353.606 72.380 L 333.937 92.416 322.761 90.803 C 309.360 88.868,311.170 90.688,309.267 77.237 L 307.680 66.016 327.668 46.370 C 349.719 24.696,350.177 24.014,345.898 19.206 C 342.192 15.042,320.762 11.344,309.766 12.971 M324.573 26.288 L 328.270 26.795 311.504 43.671 C 302.282 52.953,294.526 61.162,294.268 61.915 C 293.282 64.788,298.628 97.915,300.356 99.644 C 302.085 101.372,335.212 106.718,338.085 105.732 C 338.838 105.474,347.066 97.699,356.371 88.454 L 373.289 71.646 373.857 76.950 C 377.229 108.440,352.351 135.549,318.359 137.423 C 306.415 138.081,305.044 138.635,297.620 145.797 L 292.505 150.731 282.776 140.908 C 266.741 124.718,252.487 121.613,241.179 131.846 C 239.863 133.037,239.522 132.863,235.727 129.068 L 231.678 125.019 245.434 111.142 C 262.094 94.335,261.855 94.747,262.577 81.641 C 264.491 46.932,292.531 21.896,324.573 26.288 M191.746 105.451 C 193.688 106.396,201.826 113.909,212.699 124.797 L 230.476 142.598 221.875 151.172 L 213.275 159.745 196.401 142.959 C 187.120 133.726,178.508 124.801,177.263 123.125 C 169.936 113.261,180.726 100.092,191.746 105.451 M163.026 128.759 C 171.744 135.103,204.731 170.095,203.944 172.165 C 202.920 174.860,202.882 181.289,203.875 183.902 C 205.364 187.817,198.165 190.937,191.917 189.083 C 188.251 187.996,150.274 151.185,145.997 144.574 C 138.711 133.311,152.142 120.839,163.026 128.759 M263.690 141.216 C 264.540 141.676,272.804 149.729,282.056 159.112 C 304.440 181.813,304.943 182.786,307.811 208.984 C 312.300 249.990,313.860 255.883,324.023 270.206 L 327.550 275.179 288.192 314.542 L 248.834 353.906 213.875 318.953 L 178.915 284.000 212.504 250.377 C 244.944 217.906,246.094 216.654,246.094 213.795 C 246.094 208.091,242.149 205.225,237.238 207.360 C 233.652 208.919,139.485 303.570,138.077 307.031 C 137.465 308.535,136.747 313.984,136.482 319.141 C 134.851 350.876,113.442 373.219,83.187 374.763 C 27.381 377.611,3.473 305.763,49.380 273.167 C 57.881 267.131,67.464 264.207,81.528 263.356 C 93.650 262.623,94.710 262.062,106.610 250.074 L 115.955 240.662 128.582 253.144 C 143.724 268.112,145.477 269.138,155.859 269.121 C 170.742 269.097,180.842 259.102,180.854 244.386 L 180.859 238.382 183.551 237.877 C 197.257 235.306,206.679 218.864,202.018 205.652 L 200.910 202.513 203.385 202.019 C 204.746 201.746,207.663 200.326,209.868 198.862 L 213.877 196.201 218.594 198.106 C 230.176 202.784,242.528 200.779,252.270 192.640 C 256.197 189.359,258.718 189.115,261.364 191.761 C 264.555 194.952,263.909 197.020,257.617 203.752 C 239.196 223.464,240.061 251.285,259.656 269.347 C 270.284 279.143,277.551 268.431,267.521 257.752 C 254.189 243.556,254.460 226.568,268.252 211.948 C 288.052 190.958,266.856 165.014,243.771 181.984 C 232.690 190.130,216.406 187.655,216.406 177.825 C 216.406 175.525,246.593 143.736,251.172 141.214 C 254.876 139.174,259.917 139.175,263.690 141.216 M143.593 162.834 C 148.553 165.455,188.919 207.274,189.487 210.379 C 191.084 219.107,185.416 225.539,176.761 224.821 L 172.527 224.470 149.919 201.883 C 125.432 177.420,124.857 176.647,126.520 170.471 C 128.392 163.519,137.328 159.522,143.593 162.834 M122.574 194.496 C 128.632 198.878,167.038 238.809,167.564 241.272 C 169.619 250.892,159.256 259.532,150.938 255.135 C 146.569 252.826,104.886 209.951,104.301 207.165 C 102.104 196.700,114.112 188.374,122.574 194.496 M53.684 292.820 C 44.990 301.558,39.063 308.118,39.063 309.001 C 39.063 310.800,47.226 342.044,48.887 346.599 C 49.685 348.788,50.753 350.114,52.182 350.687 C 55.486 352.013,89.244 360.938,90.956 360.938 C 94.000 360.938,121.875 332.135,121.875 328.989 C 121.875 324.145,112.592 291.216,110.688 289.308 C 108.808 287.423,75.748 278.125,70.926 278.125 C 68.564 278.125,66.864 279.573,53.684 292.820 M87.275 295.690 C 102.762 299.876,100.180 297.237,104.472 313.262 L 108.068 326.690 97.980 336.697 L 87.891 346.704 74.270 343.026 L 60.649 339.348 56.961 325.729 L 53.273 312.109 63.149 302.148 C 68.580 296.670,73.315 292.188,73.670 292.188 C 74.025 292.188,80.147 293.764,87.275 295.690 " stroke="none" fill="#ffffff" fill-rule="evenodd"></path></g></svg>